<svg width="1440" height="246" viewBox="0 0 1440 246" fill="none" xmlns="http://www.w3.org/2000/svg">
<mask id="mask0" mask-type="alpha" maskUnits="userSpaceOnUse" x="0" y="0" width="1440" height="246">
<path fill-rule="evenodd" clip-rule="evenodd" d="M0 0H1440V246H0V0Z" fill="white"/>
</mask>
<g mask="url(#mask0)">
<g opacity="0.1">
<path d="M109 84.9195V0.12976L54.2724 17.9162L0 0V72.0704L54.3137 90" transform="translate(133 19)" stroke="#070000" stroke-width="0.8"/>
<path d="M0 12.9816V0L39 26" transform="translate(148 10)" stroke="#070000" stroke-width="0.8"/>
<path fill-rule="evenodd" clip-rule="evenodd" d="M41 20.5003C41 31.8224 31.8213 41 20.5 41C9.1787 41 0 31.8224 0 20.5003C0 9.17819 9.1787 0 20.5 0C31.8213 0 41 9.17819 41 20.5003Z" transform="translate(70 -35)" stroke="#070000" stroke-width="0.8"/>
<path fill-rule="evenodd" clip-rule="evenodd" d="M0 43C0 19.2511 19.0289 0 42.5 0C65.9711 0 85 19.2511 85 43H0Z" transform="translate(48 15)" stroke="#070000" stroke-width="0.8"/>
<path d="M0 42.1223C0 18.8582 18.9672 0 42.3628 0C65.7591 0 85 20.2511 85 45" transform="translate(197 -20)" stroke="#070000" stroke-width="0.8"/>
<path fill-rule="evenodd" clip-rule="evenodd" d="M41 20.5003C41 31.8224 31.8225 41 20.5 41C9.17864 41 0 31.8224 0 20.5003C0 9.17819 9.17864 0 20.5 0C31.8225 0 41 9.17819 41 20.5003Z" transform="translate(282 -35)" stroke="#070000" stroke-width="0.8"/>
<path fill-rule="evenodd" clip-rule="evenodd" d="M0 50L42.5003 0L85 50H0Z" transform="translate(260 13)" stroke="#070000" stroke-width="0.8"/>
<path d="M0 49.4767V0H65.6492V143L136 119.555V47.388L65.937 70.064" transform="translate(122 -20)" stroke="#070000" stroke-width="0.8"/>
<path fill-rule="evenodd" clip-rule="evenodd" d="M0 0L20 13.9246L4.04232 23L0 0Z" transform="translate(324 -14)" stroke="#070000" stroke-width="0.8"/>
<path d="M0 63L63 0" transform="translate(271 78)" stroke="#070000" stroke-width="0.8"/>
<path fill-rule="evenodd" clip-rule="evenodd" d="M16 7.99971C16 12.4192 12.4178 16 8 16C3.58333 16 0 12.4192 0 7.99971C0 3.58372 3.58333 0 8 0C12.4178 0 16 3.58372 16 7.99971Z" transform="translate(274 77)" stroke="#070000" stroke-width="0.8"/>
<path fill-rule="evenodd" clip-rule="evenodd" d="M16 7.99828C16 12.4176 12.4195 16 8 16C3.58391 16 0 12.4176 0 7.99828C0 3.58072 3.58391 0 8 0C12.4195 0 16 3.58072 16 7.99828Z" transform="translate(317 121)" stroke="#070000" stroke-width="0.8"/>
<path d="M0 0L6.00141 19L12 0.0017851" transform="translate(234 193)" stroke="#070000" stroke-width="0.8"/>
<path d="M0 13L13 0" transform="translate(234 131)" stroke="#070000" stroke-width="0.8"/>
<path fill-rule="evenodd" clip-rule="evenodd" d="M12 71L0 70.9982L0.00112745 0H12V71Z" transform="translate(234 122)" stroke="#070000" stroke-width="0.8"/>
</g>
<g opacity="0.1">
<path d="M109 84.9195V0.12976L54.2724 17.9162L0 0V72.0704L54.3137 90" transform="translate(562 19)" stroke="#070000" stroke-width="0.8"/>
<path d="M0 12.9816V0L39 26" transform="translate(577 10)" stroke="#070000" stroke-width="0.8"/>
<path fill-rule="evenodd" clip-rule="evenodd" d="M41 20.5003C41 31.8224 31.8213 41 20.5 41C9.1787 41 0 31.8224 0 20.5003C0 9.17819 9.1787 0 20.5 0C31.8213 0 41 9.17819 41 20.5003Z" transform="translate(499 -35)" stroke="#070000" stroke-width="0.8"/>
<path fill-rule="evenodd" clip-rule="evenodd" d="M0 43C0 19.2511 19.0289 0 42.5 0C65.9711 0 85 19.2511 85 43H0Z" transform="translate(477 15)" stroke="#070000" stroke-width="0.8"/>
<path d="M0 42.1223C0 18.8582 18.9672 0 42.3628 0C65.7591 0 85 20.2511 85 45" transform="translate(626 -20)" stroke="#070000" stroke-width="0.8"/>
<path fill-rule="evenodd" clip-rule="evenodd" d="M41 20.5003C41 31.8224 31.8225 41 20.5 41C9.17864 41 0 31.8224 0 20.5003C0 9.17819 9.17864 0 20.5 0C31.8225 0 41 9.17819 41 20.5003Z" transform="translate(711 -35)" stroke="#070000" stroke-width="0.8"/>
<path fill-rule="evenodd" clip-rule="evenodd" d="M0 50L42.5003 0L85 50H0Z" transform="translate(689 13)" stroke="#070000" stroke-width="0.8"/>
<path d="M0 49.4767V0H65.6492V143L136 119.555V47.388L65.937 70.064" transform="translate(551 -20)" stroke="#070000" stroke-width="0.8"/>
<path fill-rule="evenodd" clip-rule="evenodd" d="M0 0L20 13.9246L4.04232 23L0 0Z" transform="translate(753 -14)" stroke="#070000" stroke-width="0.8"/>
<path d="M0 63L63 0" transform="translate(700 78)" stroke="#070000" stroke-width="0.8"/>
<path fill-rule="evenodd" clip-rule="evenodd" d="M16 7.99971C16 12.4192 12.4178 16 8 16C3.58333 16 0 12.4192 0 7.99971C0 3.58372 3.58333 0 8 0C12.4178 0 16 3.58372 16 7.99971Z" transform="translate(703 77)" stroke="#070000" stroke-width="0.8"/>
<path fill-rule="evenodd" clip-rule="evenodd" d="M16 7.99828C16 12.4176 12.4195 16 8 16C3.58391 16 0 12.4176 0 7.99828C0 3.58072 3.58391 0 8 0C12.4195 0 16 3.58072 16 7.99828Z" transform="translate(746 121)" stroke="#070000" stroke-width="0.8"/>
<path d="M0 0L6.00141 19L12 0.0017851" transform="translate(663 193)" stroke="#070000" stroke-width="0.8"/>
<path d="M0 13L13 0" transform="translate(663 131)" stroke="#070000" stroke-width="0.8"/>
<path fill-rule="evenodd" clip-rule="evenodd" d="M12 71L0 70.9982L0.00112745 0H12V71Z" transform="translate(663 122)" stroke="#070000" stroke-width="0.8"/>
</g>
<g opacity="0.1">
<path d="M109 84.9195V0.12976L54.2724 17.9162L0 0V72.0704L54.3137 90" transform="translate(989 19)" stroke="#070000" stroke-width="0.8"/>
<path d="M0 12.9816V0L39 26" transform="translate(1004 10)" stroke="#070000" stroke-width="0.8"/>
<path fill-rule="evenodd" clip-rule="evenodd" d="M41 20.5003C41 31.8224 31.8213 41 20.5 41C9.1787 41 0 31.8224 0 20.5003C0 9.17819 9.1787 0 20.5 0C31.8213 0 41 9.17819 41 20.5003Z" transform="translate(926 -35)" stroke="#070000" stroke-width="0.8"/>
<path fill-rule="evenodd" clip-rule="evenodd" d="M0 43C0 19.2511 19.0289 0 42.5 0C65.9711 0 85 19.2511 85 43H0Z" transform="translate(904 15)" stroke="#070000" stroke-width="0.8"/>
<path d="M0 42.1223C0 18.8582 18.9672 0 42.3628 0C65.7591 0 85 20.2511 85 45" transform="translate(1053 -20)" stroke="#070000" stroke-width="0.8"/>
<path fill-rule="evenodd" clip-rule="evenodd" d="M41 20.5003C41 31.8224 31.8225 41 20.5 41C9.17864 41 0 31.8224 0 20.5003C0 9.17819 9.17864 0 20.5 0C31.8225 0 41 9.17819 41 20.5003Z" transform="translate(1138 -35)" stroke="#070000" stroke-width="0.8"/>
<path fill-rule="evenodd" clip-rule="evenodd" d="M0 50L42.5003 0L85 50H0Z" transform="translate(1116 13)" stroke="#070000" stroke-width="0.8"/>
<path d="M0 49.4767V0H65.6492V143L136 119.555V47.388L65.937 70.064" transform="translate(978 -20)" stroke="#070000" stroke-width="0.8"/>
<path fill-rule="evenodd" clip-rule="evenodd" d="M0 0L20 13.9246L4.04232 23L0 0Z" transform="translate(1180 -14)" stroke="#070000" stroke-width="0.8"/>
<path d="M0 63L63 0" transform="translate(1127 78)" stroke="#070000" stroke-width="0.8"/>
<path fill-rule="evenodd" clip-rule="evenodd" d="M16 7.99971C16 12.4192 12.4178 16 8 16C3.58333 16 0 12.4192 0 7.99971C0 3.58372 3.58333 0 8 0C12.4178 0 16 3.58372 16 7.99971Z" transform="translate(1130 77)" stroke="#070000" stroke-width="0.8"/>
<path fill-rule="evenodd" clip-rule="evenodd" d="M16 7.99828C16 12.4176 12.4195 16 8 16C3.58391 16 0 12.4176 0 7.99828C0 3.58072 3.58391 0 8 0C12.4195 0 16 3.58072 16 7.99828Z" transform="translate(1173 121)" stroke="#070000" stroke-width="0.8"/>
<path d="M0 0L6.00141 19L12 0.0017851" transform="translate(1090 193)" stroke="#070000" stroke-width="0.8"/>
<path d="M0 13L13 0" transform="translate(1090 131)" stroke="#070000" stroke-width="0.8"/>
<path fill-rule="evenodd" clip-rule="evenodd" d="M12 71L0 70.9982L0.00112745 0H12V71Z" transform="translate(1090 122)" stroke="#070000" stroke-width="0.8"/>
</g>
<g opacity="0.1">
<path d="M109 84.9195V0.12976L54.2724 17.9162L0 0V72.0704L54.3137 90" transform="translate(1418 19)" stroke="#070000" stroke-width="0.8"/>
<path d="M0 12.9816V0L39 26" transform="translate(1433 10)" stroke="#070000" stroke-width="0.8"/>
<path fill-rule="evenodd" clip-rule="evenodd" d="M41 20.5003C41 31.8224 31.8213 41 20.5 41C9.1787 41 0 31.8224 0 20.5003C0 9.17819 9.1787 0 20.5 0C31.8213 0 41 9.17819 41 20.5003Z" transform="translate(1355 -35)" stroke="#070000" stroke-width="0.8"/>
<path fill-rule="evenodd" clip-rule="evenodd" d="M0 43C0 19.2511 19.0289 0 42.5 0C65.9711 0 85 19.2511 85 43H0Z" transform="translate(1333 15)" stroke="#070000" stroke-width="0.8"/>
<path d="M0 49.4767V0H65.6492V143L136 119.555V47.388L65.937 70.064" transform="translate(1407 -20)" stroke="#070000" stroke-width="0.8"/>
</g>
</g>
</svg>
