<svg width="164" height="16" viewBox="0 0 164 16" fill="none" xmlns="http://www.w3.org/2000/svg">
<path fill-rule="evenodd" clip-rule="evenodd" d="M108.431 15.9499H109V0H108.431V15.9499ZM59.5754 11.3603H54.5821V0.586182H49.9328L49.9316 12.4771L53.4522 16H64.2232V0.586182H59.5754V11.3603ZM42.0199 10.404C41.4083 11.2357 40.5483 11.7017 39.4044 11.7017C37.1889 11.7017 35.8428 10.0354 35.8428 8.00009C35.8428 5.9664 37.1889 4.30127 39.4044 4.30127C40.5483 4.30127 41.4083 4.76167 42.0199 5.59508V10.404ZM41.4748 1.7642V1.76364C40.3926 0.694746 39.0287 0.0439453 37.5415 0.0439453C34.0332 0.0439453 31.1943 3.61138 31.1943 7.99996C31.1943 12.3874 34.0332 15.9499 37.5415 15.9499C39.0287 15.9499 40.3926 15.3046 41.4748 14.2374V14.2341L42.942 15.7032V15.7055H46.667V0.29224H42.942L41.4748 1.7642ZM10.8273 10.404C10.2156 11.2357 9.35394 11.7017 8.21118 11.7017C5.99676 11.7017 4.64844 10.0354 4.64844 8.00009C4.64844 5.9664 5.99676 4.30127 8.21118 4.30127C9.35394 4.30127 10.2156 4.76167 10.8273 5.59508V10.404ZM10.2816 1.7642V1.76364C9.20046 0.694746 7.83436 0.0439453 6.34938 0.0439453C2.84164 0.0439453 0 3.61138 0 7.99996C0 12.3874 2.84164 15.9499 6.34938 15.9499C7.83436 15.9499 9.20046 15.3046 10.2816 14.2374V14.2341L11.751 15.7055H15.4721V0.29224H11.7477L10.2816 1.7642ZM23.3278 3.18716V0.292236H18.6807V15.7055H23.3278V4.91464H30.0305V0.292236H26.2106L23.3278 3.18716ZM75.2485 4.29513C76.6301 4.29513 77.7496 5.06897 78.279 6.3071L81.5223 3.05533C80.0595 1.22318 77.7973 0.045166 75.2474 0.045166C70.8052 0.045166 67.2402 3.62373 67.2402 7.9984C67.2402 12.377 70.8052 15.95 75.2474 15.95C77.7985 15.95 80.0595 14.7725 81.5223 12.9409L78.279 9.68859C77.7512 10.9262 76.6301 11.7011 75.2485 11.7011C73.3135 11.7011 71.8891 10.1796 71.8891 7.9984C71.8891 5.81608 73.3135 4.29513 75.2485 4.29513ZM91.0494 11.7012C89.1139 11.7012 87.6895 10.1796 87.6895 7.99844C87.6895 5.81611 89.1139 4.29517 91.0494 4.29517C92.985 4.29517 94.4077 5.81611 94.4077 7.99844C94.4077 10.1796 92.985 11.7012 91.0494 11.7012ZM91.0497 0.045166C86.6064 0.045166 83.042 3.62373 83.042 7.9984C83.042 12.377 86.6064 15.95 91.0497 15.95C95.493 15.95 99.0568 12.377 99.0568 7.9984C99.0568 3.62373 95.493 0.045166 91.0497 0.045166Z" fill="white"/>
<path fill-rule="evenodd" clip-rule="evenodd" d="M45.6488 14.645V9.34912H44.7578V14.645C44.7578 14.851 44.7673 15.1401 44.909 15.3926C45.0896 15.7195 45.4404 15.8685 45.9995 15.8685V14.9254C45.6583 14.9254 45.6488 14.8975 45.6488 14.645ZM42.776 14.7392C42.5387 14.9533 42.2163 15.0749 41.7333 15.0749C41.3069 15.0749 41.0312 14.7665 41.0312 14.5239C41.0312 14.2715 41.3069 13.9264 41.7333 13.9264H42.5009C42.6048 13.9264 42.6904 13.9166 42.776 13.8979V14.7392ZM43.7418 12.5717C43.7418 11.7683 42.9459 11.1987 42.0738 11.1987C41.3812 11.1987 40.538 11.4512 40.1773 12.4414L41.1066 12.7119C41.3062 12.2075 41.7036 12.1237 42.0738 12.1237C42.5101 12.1237 42.7752 12.3664 42.7752 12.5717V12.9732C42.7085 13.011 42.6329 13.0482 42.5001 13.0482H41.7325C40.841 13.0482 40.0645 13.7016 40.0645 14.5241C40.0645 15.3462 40.851 15.9623 41.7325 15.9623C42.1972 15.9623 42.604 15.85 42.8981 15.7104L42.9742 15.953L43.903 15.6912L43.7418 15.1874V12.5717ZM37.361 11.2639C37.0386 11.2639 36.7257 11.3389 36.4511 11.4693V11.3291H35.4834V15.8687H36.4511V12.7864C36.4794 12.6742 36.5172 12.581 36.5639 12.5066C36.7068 12.2826 36.9814 12.1237 37.361 12.1237C37.7679 12.1237 38.0436 12.2634 38.1664 12.4414C38.3087 12.6375 38.3376 12.9266 38.3376 13.2541V15.8687H39.3036V13.2541C39.3036 12.8615 39.2753 12.3571 38.9812 11.937C38.6411 11.4512 38.0341 11.2639 37.361 11.2639ZM33.4639 14.645C33.3211 14.8789 33.0187 15.0377 32.5913 15.0377C32.1738 15.0377 31.8803 14.8789 31.7292 14.645C31.5674 14.3931 31.5391 13.9725 31.5391 13.6083C31.5391 13.2167 31.5674 12.8142 31.7292 12.5623C31.8709 12.329 32.1738 12.1794 32.5913 12.1794C33.0187 12.1794 33.3211 12.329 33.4639 12.5623C33.6251 12.8054 33.6529 13.2167 33.6529 13.6083C33.6529 13.9637 33.6251 14.3931 33.4639 14.645ZM32.6007 11.2551C31.8798 11.2551 31.2351 11.5443 30.8938 12.0859C30.5997 12.5531 30.5625 13.1698 30.5625 13.6084C30.5625 14.0104 30.5914 14.6452 30.8938 15.1315C31.2351 15.6633 31.8893 15.9623 32.6007 15.953C33.3205 15.953 33.9558 15.6633 34.2971 15.1315C34.6006 14.6452 34.629 14.0104 34.629 13.5991C34.629 13.1604 34.5912 12.5531 34.2971 12.0859C33.9464 11.5443 33.3205 11.2551 32.6007 11.2551ZM28.6094 15.8685H29.5849V11.2544H28.6094V15.8685ZM29.1015 9.11523C28.7791 9.11523 28.5234 9.36771 28.5234 9.6848C28.5234 10.0024 28.7791 10.2549 29.1015 10.2549C29.4239 10.2549 29.6796 10.0024 29.6796 9.6848C29.6796 9.36771 29.4239 9.11523 29.1015 9.11523ZM25.84 12.0858C26.1902 12.0858 26.3992 12.1608 26.9111 12.7025L27.622 12.0858C26.9394 11.3667 26.5031 11.1887 25.84 11.1887C24.4932 11.1887 23.6973 12.1893 23.6973 13.5711C23.6973 14.9441 24.4932 15.9435 25.84 15.9435C26.5031 15.9435 26.9394 15.7666 27.622 15.0563L26.9111 14.4402C26.3992 14.9725 26.1902 15.047 25.84 15.047C25.4415 15.047 25.138 14.9068 24.9395 14.6264C24.7684 14.403 24.6922 14.0853 24.6922 13.5711C24.6922 13.048 24.7684 12.7304 24.9395 12.5064C25.138 12.2353 25.4415 12.0858 25.84 12.0858ZM21.9039 14.7392C21.6666 14.9533 21.3448 15.0749 20.8606 15.0749C20.4338 15.0749 20.1592 14.7665 20.1592 14.5239C20.1592 14.2715 20.4338 13.9264 20.8606 13.9264H21.6294C21.7327 13.9264 21.8183 13.9166 21.9039 13.8979V14.7392ZM22.8703 12.5717C22.8703 11.7683 22.0738 11.1987 21.2023 11.1987C20.5097 11.1987 19.666 11.4512 19.3058 12.4414L20.2351 12.7119C20.4336 12.2075 20.8321 12.1237 21.2023 12.1237C21.6386 12.1237 21.9037 12.3664 21.9037 12.5717V12.9732C21.8376 13.011 21.7614 13.0482 21.6291 13.0482H20.8604C19.9694 13.0482 19.1924 13.7016 19.1924 14.5241C19.1924 15.3462 19.9789 15.9623 20.8604 15.9623C21.3257 15.9623 21.7325 15.85 22.0266 15.7104L22.1027 15.953L23.0315 15.6912L22.8703 15.1874V12.5717ZM16.7462 12.0858C17.0959 12.0858 17.3049 12.1608 17.8168 12.7025L18.5282 12.0858C17.8451 11.3667 17.4088 11.1887 16.7462 11.1887C15.3995 11.1887 14.6035 12.1893 14.6035 13.5711C14.6035 14.9441 15.3995 15.9435 16.7462 15.9435C17.4088 15.9435 17.8451 15.7666 18.5282 15.0563L17.8168 14.4402C17.3049 14.9725 17.0959 15.047 16.7462 15.047C16.3477 15.047 16.0442 14.9068 15.8452 14.6264C15.674 14.403 15.5979 14.0853 15.5979 13.5711C15.5979 13.048 15.674 12.7304 15.8452 12.5064C16.0442 12.2353 16.3477 12.0858 16.7462 12.0858ZM12.7814 14.3374C12.7814 14.7667 12.2317 15.0001 11.8715 15.0001C11.0744 15.0001 10.8949 14.6736 10.8949 13.9639V11.2551H9.92773V13.9639C9.92773 15.2153 10.5436 15.9437 11.8715 15.9437C12.1839 15.9437 12.4968 15.85 12.7814 15.7197V15.8686H13.7485V11.2551H12.7814V14.3374ZM7.97307 14.2065C7.95417 14.3746 7.91637 14.5148 7.86024 14.6173C7.71739 14.8604 7.44281 15.0099 7.06317 15.0099C6.68354 15.0099 6.40896 14.8511 6.26722 14.6173C6.10548 14.3467 6.07713 13.9453 6.08658 13.5712C6.08658 13.1698 6.11548 12.7864 6.26722 12.5252C6.40896 12.2919 6.68354 12.1331 7.06317 12.1331C7.44281 12.1331 7.71739 12.2919 7.86024 12.5252C7.91637 12.6276 7.95417 12.7678 7.97307 12.9365V14.2065ZM8.95045 9.34912H7.97386V11.3853C7.69928 11.255 7.38634 11.1887 7.06396 11.1887C6.36195 11.1887 5.75554 11.4877 5.42426 12.0579C5.14023 12.5343 5.11133 13.1132 5.11133 13.5711C5.11133 13.9917 5.14023 14.5985 5.42426 15.0936C5.75554 15.6451 6.36195 15.9529 7.06396 15.9622C7.44359 15.9622 7.79432 15.8685 8.09781 15.6911L8.19174 16L9.12109 15.7289L8.95045 15.1686V9.34912ZM0 15.8685H4.39829V14.9068H0.994937V12.9643H3.97197V12.0672H0.994937V10.3114H4.39829V9.34912H0V15.8685ZM36.2523 3.67094C36.2806 3.55867 36.3184 3.46557 36.3657 3.39054C36.508 3.16654 36.7831 3.00772 37.1622 3.00772C37.5691 3.00772 37.8448 3.14792 37.9676 3.32537C38.1104 3.52143 38.1388 3.81115 38.1388 4.13755V6.7532H39.1054V4.13755C39.1054 3.74597 39.0765 3.24103 38.783 2.82042C38.4423 2.33519 37.8353 2.14844 37.1622 2.14844C36.8398 2.14844 36.5269 2.22292 36.2523 2.35381V2.21361H35.2852V6.7532H36.2523V3.67094ZM31.5295 3.44703C31.6713 3.21317 31.9742 3.06421 32.3916 3.06421C32.819 3.06421 33.1214 3.21317 33.2637 3.44703C33.4255 3.68964 33.4532 4.10094 33.4532 4.49306C33.4532 4.84795 33.4255 5.27787 33.2637 5.52924C33.1214 5.7631 32.819 5.92192 32.3916 5.92192C31.9742 5.92192 31.6807 5.7631 31.5295 5.52924C31.3678 5.27787 31.3389 4.85726 31.3389 4.49306C31.3389 4.10094 31.3678 3.69895 31.5295 3.44703ZM32.4015 6.83702C33.1213 6.83702 33.7566 6.54785 34.0979 6.01552C34.4014 5.5292 34.4297 4.89446 34.4297 4.48316C34.4297 4.04503 34.3919 3.43712 34.0979 2.97051C33.7466 2.42833 33.1213 2.13916 32.4015 2.13916C31.6806 2.13916 31.0358 2.42833 30.6946 2.97051C30.4005 3.43712 30.3633 4.05379 30.3633 4.49302C30.3633 4.89446 30.3916 5.5292 30.6946 6.01552C31.0358 6.54785 31.69 6.84688 32.4015 6.83702ZM33.5202 0.299072H32.4396L31.6426 1.66276H32.4207L33.5202 0.299072ZM28.9028 1.13969C29.2252 1.13969 29.4809 0.887215 29.4809 0.56957C29.4809 0.251925 29.2252 0 28.9028 0C28.5805 0 28.3242 0.251925 28.3242 0.56957C28.3242 0.887215 28.5805 1.13969 28.9028 1.13969ZM28.4102 6.75323H29.3862V2.13916H28.4102V6.75323ZM25.6408 6.8283C26.3039 6.8283 26.7402 6.65031 27.4228 5.94054L26.7113 5.32442C26.1999 5.85675 25.9909 5.93123 25.6408 5.93123C25.2422 5.93123 24.9388 5.79103 24.7398 5.51062C24.5691 5.28663 24.493 4.96953 24.493 4.45582C24.493 3.93226 24.5691 3.61461 24.7398 3.39062C24.9388 3.11952 25.2422 2.97056 25.6408 2.97056C25.9909 2.97056 26.1999 3.04504 26.7113 3.58723L27.4228 2.97056C26.7402 2.25093 26.3039 2.07349 25.6408 2.07349C24.2946 2.07349 23.498 3.07352 23.498 4.45582C23.498 5.82827 24.2946 6.8283 25.6408 6.8283ZM21.7047 5.62289C21.4674 5.83812 21.145 5.9597 20.662 5.9597C20.2357 5.9597 19.96 5.65082 19.96 5.40821C19.96 5.15628 20.2357 4.81071 20.662 4.81071H21.4301C21.5341 4.81071 21.6197 4.80085 21.7047 4.78223V5.62289ZM21.4309 3.93217H20.6627C19.7717 3.93217 18.9941 4.58662 18.9941 5.40812C18.9941 6.23016 19.7806 6.84683 20.6627 6.84683C21.1274 6.84683 21.5348 6.73456 21.8283 6.59436L21.9045 6.83697L22.8338 6.57574L22.6721 6.07189V3.4557C22.6721 2.65282 21.8761 2.08325 21.004 2.08325C20.312 2.08325 19.4683 2.33518 19.1081 3.32535L20.0369 3.5959C20.2364 3.0915 20.6344 3.00771 21.004 3.00771C21.4404 3.00771 21.7055 3.25032 21.7055 3.4557V3.85768C21.6393 3.89492 21.5632 3.93217 21.4309 3.93217ZM15.4747 3.40922C15.6164 3.17591 15.8916 3.01709 16.2712 3.01709C16.6503 3.01709 16.9254 3.17591 17.0677 3.40922C17.1238 3.51218 17.1622 3.65238 17.1811 3.82051V5.09109C17.1622 5.25868 17.1238 5.39888 17.0677 5.50184C16.9254 5.74446 16.6503 5.89397 16.2712 5.89397C15.8916 5.89397 15.6164 5.73515 15.4747 5.50184C15.3135 5.23075 15.2851 4.82931 15.2946 4.4558C15.2946 4.05382 15.3229 3.671 15.4747 3.40922ZM16.271 6.84693C16.6501 6.84693 17.0008 6.75328 17.3043 6.57583L17.3988 6.88417L18.3276 6.61308L18.1575 6.05336V0.233887H17.1809V2.26955C16.9063 2.13921 16.5934 2.07349 16.271 2.07349C15.569 2.07349 14.9626 2.37251 14.6313 2.94208C14.3462 3.41855 14.3184 3.99798 14.3184 4.45583C14.3184 4.87589 14.3462 5.48324 14.6313 5.97833C14.9626 6.52928 15.569 6.83707 16.271 6.84693ZM10.7054 3.67094C10.7343 3.55867 10.7721 3.46557 10.8188 3.39054C10.9611 3.16654 11.2362 3.00772 11.6159 3.00772C12.0227 3.00772 12.2984 3.14792 12.4213 3.32537C12.5636 3.52143 12.5925 3.81115 12.5925 4.13755V6.7532H13.5585V4.13755C13.5585 3.74597 13.5302 3.24103 13.2361 2.82042C12.8954 2.33519 12.289 2.14844 11.6159 2.14844C11.2929 2.14844 10.98 2.22292 10.7054 2.35381V2.21361H9.73828V6.7532H10.7054V3.67094ZM6.81679 6.82826C7.12972 6.82826 7.44265 6.73461 7.72668 6.60372V6.75323H8.69383V2.13916H7.72668V5.22141C7.72668 5.65078 7.17697 5.88463 6.81679 5.88463C6.02028 5.88463 5.84019 5.55768 5.84019 4.84791V2.13916H4.87305V4.84791C4.87305 6.09932 5.48946 6.82826 6.81679 6.82826ZM0.994937 3.84792H3.96252V2.95139H0.994937V1.19558H4.30324V0.233887H0V6.75328H0.994937V3.84792Z" transform="translate(118)" fill="white"/>
</svg>
