<svg width="327" height="704" viewBox="0 0 327 704" fill="none" xmlns="http://www.w3.org/2000/svg">
<path fill-rule="evenodd" clip-rule="evenodd" d="M56.7915 1.80047L56.3444 2.40392L55.2019 6.97435L54.0593 9.00235L52.7478 10.7929L51.6549 12.6824L51.1978 14.9973L50.3434 28.4712L49.4989 32.6162L48.0681 36.1677L46.0413 39.0761L43.2395 41.5097L36.8907 45.5163L34.0392 48.1477L32.9463 49.7899L32.221 51.6794L31.8136 53.7866L31.7043 56.1509L31.1777 58.4757L29.9358 59.5738L28.4057 60.2762L27.0644 61.4039L26.3987 62.8087L26.1801 64.2233L26.2795 65.6281L26.508 67.0428L25.0674 70.0699L23.0206 74.4128L22.2556 75.2834L14.4463 80.8233L13.2143 82.228L12.7274 84.2857L13.0056 86.4126L17.0693 94.9896L18.2218 98.9665L18.49 103.171L17.2978 107.247L16.2049 108.157L11.5848 111.006L11.1179 112.975L9.94548 114.775L2.02685 121.898L0.924005 123.441L0.347744 124.539L0 125.647L0.745166 126.567L1.02336 127.566L1.21214 128.763L1.22207 129.733L0.64581 131.929L8.89231 128.1L12.7274 129.782L18.3907 131.335L25.8324 132.968L27.7301 134.521L60.6465 139.329H61.7494L63.1503 139.586L85.3662 148.717L88.8535 149.152L90.6717 149.874L91.9832 150.972L118.283 165.267L130.156 170.006L131.547 169.848L133.017 169.165L137.965 169.254L139.018 168.72L140.429 168.364L142.048 168.344L143.479 168.69L144.552 169.214L145.367 170.115L145.963 171.242L146.549 172.746L147.652 174.814L148.725 176.337L150.325 176.179L152.034 176.782L153.594 177L155.094 176.693L156.614 175.655L157.588 174.022L158.174 170.144L158.879 168.68L160.35 168.176L162.178 168.621L165.496 170.204L166.202 170.688L166.718 171.242L167.314 171.599L174.726 169.65L175.541 168.473L175.581 166.059L175.154 164.842L173.862 162.646L173.594 161.32L173.802 160.42L175.233 157.818L175.323 156.928L175.144 156.077L175.044 155.226L175.412 154.247L176.028 153.653L176.803 153.287L178.383 152.852L179.515 152.051L182.605 147.975L183.947 147.233L184.553 146.214L184.642 144.878L184.811 144.305L185.636 142.287L186.222 141.564L187.325 141.139L189.262 141.525L193.117 143.681L195.462 143.563L197.111 142.504L198.482 140.862L198.85 140.14L199.526 138.824L200.529 135.431L201.066 134.471L202.516 132.849L203.082 131.543L202.784 129.94L200.36 123.589L200.37 122.402L201.006 120.434L201.463 119.86L202.139 119.306L202.695 118.663L202.784 117.852L202.208 117.09L200.39 117.327L199.684 116.882L199.734 113.232L205 107.761L204.642 104.457L203.4 102.231L199.625 91.7745L199.526 90.162L200.4 86.4126L200.42 84.3649L199.903 80.2792L200.738 76.0352L200.052 74.492L198.82 73.1268L197.618 71.4153L195.621 64.619L195.422 63.056L196.366 62.2052L198.025 61.77L199.039 60.7708L198.095 58.2185L195.124 56.3685L191.319 55.9135L187.98 54.7659L186.44 50.8187L189.451 45.6647L202.546 41.3218L204.056 34.2287L203.748 27.1258L191.607 24.3162L189.799 24.2569L188.308 24.4547L183.42 25.7705L181.999 25.8892L180.549 25.7606L179.128 25.1769L178.323 24.6823L171.09 17.4903L169.153 16.1745L167.185 15.7096L160.121 16.501L157.836 16.4021L154.766 15.7294L151.11 14.1663L146.668 11.3667L144.423 10.4566L141.552 9.70473L140.19 8.97267L139.366 8.14168L138.79 6.91499L138.392 6.37089L136.872 5.85647L135.352 6.01476L133.096 6.85563L129.708 8.99245L128.268 9.48709L123.876 8.57696L122.913 9.10127L121.69 10.3576L121.114 10.783L120.23 11.3172L119.674 12.0394L118.461 14.5917L117.706 15.7492L116.146 16.7285L113.941 17.2232L97.4478 16.3328L95.0732 16.6692L93.5232 17.2825L92.7781 18.0838L91.8739 18.8258L90.7314 19.3897L89.4298 19.3501L87.8699 18.4103L86.8466 17.4705L84.2136 13.3947L82.6339 11.6437L81.4615 10.9908L79.3154 10.2785L74.7848 9.98172L73.2647 9.68494L72.1916 9.10127L68.3963 5.11452L62.9218 1.66197L58.9078 0.0197854L56.7915 1.80047Z" transform="translate(96 55)" fill="white"/>
<path fill-rule="evenodd" clip-rule="evenodd" d="M57.5676 0.366438L56.211 0.940855L55.716 1.24787L55.0724 1.72325L54.4288 2.18872L53.4683 2.36699L52.5178 2.53536L51.5573 2.71362L50.5969 2.88199L48.4383 2.73343L46.2798 2.60468L44.1213 2.45613L41.9528 2.31747L42.0419 2.81266L43.6361 5.00139L43.7648 5.72436L42.4677 7.50703L41.6261 9.29961L41.4875 11.2605L42.3291 13.5384L41.2102 14.1425L40.7448 15.4201L40.5666 16.6581L40.3191 17.2424L39.5369 17.7178L38.8933 18.8666L38.4576 20.2036L38.2893 21.2633L37.6259 23.6303L36.0416 26.235L32.5761 30.6223L33.586 31.5731L32.5266 32.4644L29.4373 33.95L28.5956 35.7921L29.2194 37.2281L30.2987 38.7632L30.873 40.9916L30.4175 42.9723L29.5165 45.3393L28.9323 47.6568L29.4373 49.5385L30.3878 51.1825L31.1403 53.4901L31.3879 55.9561L30.873 58.1448L29.665 59.0659L28.764 57.6001L28.2095 54.9855L28.0214 52.5294L27.754 51.9352L27.0708 51.3211L26.2292 50.826L25.4272 50.6378L24.2291 50.8854L23.5162 51.5588L22.2785 53.6089L20.8823 55.2826L19.3278 56.7484L17.6247 57.7487L13.8424 58.6103L11.4462 60.9377L9.67381 61.8389L7.19842 61.5616L6.26768 61.8389L5.45575 62.7203L3.93091 65.0774L3.12889 65.5627L2.87145 66.6323L4.03983 68.9696L6.26768 72.3468L6.68354 73.9611L7.0598 76.2885L7.39645 80.9333L7.0598 82.1019L6.20827 82.6268L5.1686 82.7655H4.22796L4.13884 83.3597L2.84174 86.5685L2.49519 87.0241L1.12878 88.0541L1.14858 88.6681L1.60405 89.6783L1.64366 90.2923L2.21795 91.2332L2.26745 91.7977L2.03972 92.4018L1.2971 92.9861L0.950548 94.2439L0.217834 96.2346L0.0396062 97.423L0 98.7996L0.25744 99.1958L1.23769 100.057L3.28731 100.929L6.75285 101.315H24.843L29.3383 102.296L34.9722 104.435L40.7943 106.594L45.8144 107.564L51.0919 106.941L57.3497 106.307L63.0926 107.564L66.7661 112.566L68.4989 118.805L69.9841 123.064L71.9941 126.144L75.3507 128.857L80.054 132.423L85.8266 136.701L93.025 140.504L102.016 142.663L112.788 143L123.928 142.505L133.631 141.782L140.127 141.406L145.028 140.336L150.375 137.583L154.949 133.968L157.623 130.224L157.524 129.145L157.771 128.342L159.276 125.451L162.336 115.606L162.989 114.319L163.96 113.962L167.494 115.002L168.584 115.052L169.445 114.141L172.831 106.158L173.198 104.395L173.227 103.276L173.109 102.197L172.762 101.236L172.138 100.503L171.138 99.8792L170.574 99.7801L169.495 100.255L169.039 100.671L168.881 101.236L168.534 101.602L167.475 101.375L166.861 100.83L165.118 98.1658L162.524 95.4423L161.346 93.7884L160.712 91.9265L160.821 91.1341L161.554 89.5297L161.286 88.0343L161.316 86.935L161.93 83.5776L162.276 82.5872L162.445 81.6365L162.088 80.8046L161.464 79.8538L161.524 79.1209L162.623 77.675L165.455 77.368L169.217 79.2101L172.386 79.7845L173.455 75.6051L173.277 74.4662L172.633 72.1586L172.465 70.9503L172.663 70.0194L173.168 69.4648L173.762 69.0389L174.198 68.4447L177.307 61.4626L178 59.1649L177.614 57.5506L176.505 56.2928L173.604 53.6485L172.752 52.4106L172.317 50.8557L172.128 48.4689L171.693 46.1316L170.168 41.5065L169.831 39.2089L170.297 37.2677L171.138 35.287L171.534 33.4845L169.703 30.3648L169.465 28.0375L169.831 25.6507L170.574 23.7293L171.891 22.0754L172.921 22.0853L175.95 25.512L175.762 24.9475L175.535 24.3137L175.336 22.8875L175.158 21.4515L174.97 20.0253L174.772 18.5893L174.554 18.104L174.346 17.6187L174.138 17.1236L173.921 16.6284L173.604 16.0242L173.277 15.43L172.94 14.8457L172.623 14.2317L172.257 13.8454L171.901 13.4394L171.544 13.0432L171.178 12.6273L170.108 11.6963L169.752 11.3695L169.099 10.9238L168.425 10.4781L167.732 10.1216L167.029 9.76508L166.465 9.75518L165.168 9.85421L163.742 10.2207L162.801 11.0328L160.445 16.153L157.355 22.7687L154.108 29.5725L151.246 35.2672L146.652 39.5753L140.374 41.249L134.186 41.4867H129.908L127.571 41.1104L125.73 39.9219L123.947 38.6048L121.769 37.8224L119.284 38.4364L116.967 39.7041L114.769 39.9319L112.779 37.4658L109.798 33.3954L105.333 30.1668L100.451 28.0276L96.2034 27.2452L91.6586 26.5717L85.9256 25.1456L80.1431 23.8581L75.4299 23.5907L72.0733 24.175L69.4197 24.6504L67.2513 24.7791L65.3205 24.3335L64.4788 21.2633L65.1521 15.3112L66.3898 8.96288L67.2909 4.67456L67.1622 2.76314L66.0928 1.67373L64.2907 0.990373L61.9539 0.316919L59.5578 0L57.5676 0.366438Z" transform="translate(18 539)" fill="white"/>
<path fill-rule="evenodd" clip-rule="evenodd" d="M88.445 0.53669L82.1162 3.30959L80.5489 3.35928L78.6443 3.02137L77.0869 2.50455L75.8171 1.82872L74.7458 1.48087L73.8728 1.69952L72.9999 2.76296L70.7283 8.00066L70.4902 9.40201L71.0655 10.9624L74.5672 14.6298L75.1227 16.5579L74.9144 18.8637L73.3471 22.3223L69.9744 25.8804L68.9328 27.5501L68.6054 30.1739L68.5261 32.5989L68.288 34.8153L67.6035 36.8925L66.5223 39.0989L65.9271 41.5637L66.0263 44.0086L66.8992 46.0261L68.3078 47.3977L71.7202 49.4848L72.5535 51.244L72.2162 53.5796L62.1278 68.7063L60.3621 70.6244L57.6044 72.9501L56.3644 74.262L55.6303 76.2796L55.4716 78.8835L57.5151 86.7549L57.2473 89.7763L55.5014 90.631L54.2812 90.2832L52.6048 88.9812L51.8211 87.5004L50.7597 84.6976L49.3908 84.2802L47.3572 84.6082L41.1672 87.8681L36.0387 89.8558L35.9693 89.9254L35.9594 89.9353L36.3165 94.5767L36.7331 96.4651L37.8441 99.874L39.4412 107L41.2565 110.886L41.5144 113.023L41.5839 115.269L41.8517 117.446L42.6354 120.308L43.2603 121.451L44.1333 121.898L43.2603 117.316L42.9925 112.307H43.5976L49.6388 136.707L56.1561 154.11L57.6242 161.484L58.765 165.201L59.3304 169.892L59.9454 169.982L60.372 168.302L60.1835 165.529L62.3064 166.911L62.1576 169.047L60.1835 172.924L60.1141 175.209L61.0961 180.378L61.364 182.932L61.0267 184.492L60.2827 185.257L59.4792 185.894L59.0328 187.036L59.2213 187.712H59.2312H59.2511H59.2709L59.2808 187.702L61.4433 187.832L63.6058 187.981L65.7783 188.12L67.9408 188.259L68.8931 188.09L69.8553 187.911L70.8175 187.752L71.7798 187.573L72.0873 187.335L72.4246 187.096L72.742 186.858L73.0594 186.629L73.5653 186.311L74.9243 185.744L76.9083 185.377L79.3089 185.685L81.65 186.371L83.4653 187.056L84.5366 188.15L84.6557 190.058L83.753 194.371L82.513 200.742L81.8484 206.705L82.6916 209.796L84.6259 210.243L86.7884 210.104L89.4569 209.627L92.8098 209.051L97.5316 209.319L103.325 210.611L109.078 212.042L113.631 212.708L117.877 213.493L122.777 215.64L127.241 218.89L130.227 222.965L132.231 225.45L134.423 225.211L136.754 223.939L139.234 223.323L141.427 224.118L143.212 225.44L145.047 226.622L147.398 227H151.684L157.874 226.771L164.173 225.092L168.766 220.768L171.633 215.054L174.896 208.216L177.981 201.577L180.352 196.448L181.294 195.624L182.723 195.256L184.022 195.156L184.578 195.166L184.925 195.345L185.282 195.524L185.629 195.703L185.986 195.882L186.324 196.111L186.651 196.339L186.978 196.568L187.316 196.786L187.673 197.104L188.377 197.74L188.744 198.049L189.111 198.456L189.468 198.864L189.816 199.261L190.183 199.659L190.51 200.265L190.837 200.861L191.165 201.458L191.492 202.054L191.7 202.561L191.919 203.048L192.127 203.545L192.335 204.032L192.534 205.473L192.722 206.904L192.911 208.345L193.109 209.776L193.218 210.084L193.327 210.412L193.436 210.73L193.526 210.969L194.25 211.784L195.47 212.778L196.888 213.096L198.922 212.569L200.717 212.36L202.245 212.678L203.654 212.599L205.033 211.148L205.697 207.222L201.809 203.614L204.011 200.235L205.201 198.824L206.788 195.872L207.79 194.58L208.524 192.91L207.195 189.491L207.294 187.394L208.623 185.685L210.419 184.482L211.996 182.972L212.671 180.358L213.514 171.482L212.621 156.853L211.094 148.802L211.153 145.9L212.363 139.023L213.693 136.359L216.133 133.924L223.741 129.849L225.914 127.971L226.985 126.44L227.402 125.705L228.066 125.407L234.355 124.323L235.695 123.618L240.565 119.831L243.095 118.718L246.309 118.678L249.89 119.165L251.745 118.787L253.034 117.555L254.225 115.021L254.711 114.404L257.231 113.132L257.687 112.794L257.816 111.741L257.429 111.025L256.923 110.359L256.695 109.465L256.754 108.282L256.893 107.596L257.766 105.957L259.879 102.975L260.722 101.305L261 99.1584L259.81 95.2227L257.201 92.589L254.056 90.4422L251.289 87.9178L249.344 84.2007L245.743 67.1161L245.495 63.8661L245.644 60.6062L246.398 57.0382L246.418 56.7599L246.398 56.4916L246.309 56.1835L245.803 54.2057L245.714 54.156L243.184 52.0192L242.232 51.4129L234.603 47.8052L230.209 46.3541L222.313 45.4696L220.974 45.6187L219.595 45.9864L214.556 48.4015L213.345 49.3158L212.324 50.429L208.326 56.0444L206.649 57.1277L203.316 58.6384L201.888 59.6521L200.37 60.4373L197.146 61.1727L195.946 61.8486L194.022 64.204L192.345 65.1283L190.272 63.6475L189.151 62.0374L188.496 59.5527L188.258 56.9786L187.851 54.9113L187.326 52.9733L184.786 49.783L184.657 48.9282L184.875 48.3915L186.344 47.2685L187.088 46.5628L187.246 45.8572L186.869 44.9726L185.719 44.0185L183.923 43.0942L181.235 42.5675L179.191 42.7861L175.273 44.0682L173.19 44.1775L171.275 43.5514L169.46 42.1302L167.982 40.5996L166.603 39.6256L165.185 39.2976L164.113 39.4964L162.149 40.2418L159.183 40.9574L157.457 41.0369L156.049 40.6592L154.938 39.894L153.975 38.92L151.833 35.4613L150.533 33.9705L149.134 32.6884L145.196 29.7465L140.792 27.242L134.413 24.9064L131.953 23.356L130.565 21.8453L128.243 18.1779L126.944 16.5976L123.769 13.457L122.916 11.7674L122.579 9.62067L122.41 7.74225L122.004 6.1123L121.21 4.89978L119.643 4.16432L117.728 3.76677L114.405 3.46861L110.814 2.66357L107.551 1.40136L105.418 0.944177L93.643 0L88.445 0.53669ZM0 73.2781L0.436471 75.0472L0.396792 77.0647L0.644787 78.6549L2.24188 81.1495L3.57113 82.6205L4.65239 83.0876L5.22774 83.0578L5.83285 82.5907L6.40819 81.7161L6.9637 80.1358L6.64627 78.1878L6.05108 77.3728L2.0038 73.4272L0.109118 72.324L0 73.2781Z" transform="translate(1 354)" stroke="white"/>
<path fill-rule="evenodd" clip-rule="evenodd" d="M224.93 215.882L224.721 215.297L222.412 212.229L221.656 210.492L221.188 208.258L220.422 206.044L218.203 201.984L217.596 197.447L214.371 191.203L210.032 177.175L209.415 172.4L209.544 170.196L210.121 168.697L211.077 167.496L212.361 166.235L214.381 164.974L214.819 164.319L214.869 163.078L213.844 161.192L213.654 160.04L214.102 157.976L215.416 153.965L215.675 151.87L215.217 149.418L214.102 147.502L211.435 143.968L209.216 138.915L208.38 135.956L208.3 133.564L208.997 131.688L212.321 127.568L213.256 125.374L213.346 123.329L213.127 121.284L213.167 119.07L213.863 116.806L215.058 115.417L218.083 113.669L214.898 110.959L213.844 109.291L213.087 104.238L212.46 103.116L209.823 101.449L208.171 99.9297L208.708 99.8305L210.35 100.237L212.002 100.257L213.525 99.205L214.172 97.7457L213.794 96.2864L211.365 94.6483L211.415 93.8541L211.823 93.0202L212.042 92.226L212.082 91.3524L212.251 90.9752L212.231 90.5384L211.684 89.4364L211.037 88.8011L210.211 88.4735L209.465 87.9969L209.027 86.9347L209.176 85.9817L209.703 85.0783L210.301 84.2344L210.719 83.4402L212.838 77.7617L213.227 75.7266L213.057 71.8549L213.356 70.2169L214.65 69.0355L216.322 69.2043L217.934 70.3459L219.427 71.1103L220.73 70.1474L220.91 68.4498L219.686 61.4013L219.765 57.5097L220.402 52.7148L221.915 48.9622L223.219 48.6247L223.109 48.4063L222.034 46.8874L220.939 44.8125L220.342 43.2936L219.745 42.1619L218.929 41.2684L217.864 40.7323L216.431 40.3849L214.799 40.4147L213.396 40.7621L212.331 41.3081L207.375 41.2188L205.902 41.8939L204.508 42.0527L192.625 37.2974L166.272 22.9523L164.968 21.8503L163.137 21.1256L159.634 20.6888L137.391 11.5357L135.987 11.2776L135.36 11.2279L134.883 11.2776L101.921 6.45284L100.01 4.89423L92.5557 3.2562L86.883 1.68767L83.0414 0L74.9303 4.12982L74.582 4.18939L72.91 7.0882L72.5119 9.1134L72.6911 10.1359L73.5072 12.2505L73.7062 13.3723L73.3778 14.6926L71.8949 16.2215L71.3575 17.2738L71.3674 19.0508L72.5119 26.1688L72.3129 28.4422L71.7854 30.6262L71.0689 32.6315L70.2627 34.3589L68.8197 36.7514L68.4315 37.903L67.9339 41.6655L67.6055 42.5193L66.461 44.1474L65.6748 45.9045L63.9928 51.6823L63.4156 53.0523L62.5796 53.9656L61.3356 54.3131L61.0271 53.9756L61.037 53.2409L60.8977 52.4964L60.1612 52.1787L59.3053 52.3375L58.8774 52.824L58.7182 53.6082L58.6982 58.2146L58.9769 58.701L60.1911 60.2497L60.6489 61.7984L60.9773 62.4735L61.1266 63.1684L60.7584 63.9427L60.3603 64.459L59.8826 65.2035L59.4944 66.0374L59.3153 66.8316L59.2456 70.4353L58.7281 71.7159L57.5537 72.8874L56.26 73.4632L54.7074 73.6121L53.1449 73.4135L51.8213 72.8874L50.0995 70.1275L49.9701 62.9202L47.7607 60.7064L47.492 62.5032L46.885 64.4093L46.5665 66.226L47.1935 67.8343L46.7755 69.1149L44.8945 72.1726L47.1139 73.3639L46.676 75.2402L45.1931 76.3223L44.3272 75.0913L43.1628 75.806L42.0382 76.8881L41.0529 78.1191L40.3165 79.3104L42.1775 80.1543L43.8495 81.1768L45.0537 82.795L45.5314 85.4357L44.5561 97.5769L44.3272 98.659L42.8543 101.26L42.6154 101.876L42.6851 102.968L42.8543 103.931L43.332 105.648L43.1728 110.83L40.1871 119.636L37.8384 122.922L34.0068 125.294L30.8718 126.297L27.3686 126.734L25.1194 127.468L23.8754 127.657L21.7655 126.674L20.0637 128.163L19.0585 128.223L18.5012 127.459L18.5709 126.476L18.7301 125.443L18.4415 124.57L17.6354 124.312L15.5553 124.629L12.1716 122.674L11.8432 122.425L10.9773 122.008L10.2309 121.085L9.21576 119.497L7.84236 118.822L6.73766 119.129L5.66282 120.271L4.36903 122.068L3.63256 123.964L3.49323 131.042L2.87619 133.316L1.02508 137.098L0.62699 139.362L1.3535 140.92L6.40924 146.202L7.09594 147.909L7.43432 149.905L7.55374 154.551L7.02627 156.715L5.77229 158.254L2.916 160.666L1.7914 162.125L0.855892 163.783L0.228901 165.798L0 168.26L0.288615 169.323L1.5426 171.507L1.82126 172.599L1.66202 178.595L1.7914 179.24L2.33877 180.213L3.01553 180.918L4.71736 181.94L5.52349 182.754L10.9275 192.007L15.4956 201.249L18.2225 209.598L18.8694 213.778L18.8893 218.086L17.297 231.538L16.9586 232.521L16.1923 233.265L15.3364 233.871L14.7393 234.407L14.0924 235.767L14.0326 236.76L15.0975 240.989L14.998 242.031L14.4904 242.587L13.6744 243.074L13.1668 243.699L13.5649 244.672L13.4355 245.814L12.2512 250.857L12.1318 253.15L13.6545 259.037L13.6744 259.305L13.6843 259.295L13.7639 259.226L18.8993 257.24L25.1194 253.984L27.1596 253.656L28.533 254.083L29.5979 256.873L30.3742 258.352L32.0561 259.653L33.2803 260L35.0318 259.156L35.3105 256.138L33.2603 248.266L33.4096 245.665L34.1561 243.649L35.3901 242.349L38.1568 240.016L39.9283 238.1L50.0597 222.99L50.3981 220.658L49.5621 218.9L46.1286 216.816L44.7253 215.446L43.8495 213.43L43.75 210.998L44.3471 208.526L45.4319 206.322L46.1087 204.247L46.3575 202.024L46.4272 199.611L46.7556 197L47.8006 195.323L51.1943 191.759L52.7568 188.324L52.9757 186.011L52.4184 184.075L48.9053 180.422L48.328 178.863L48.5669 177.453L50.8459 172.241L51.7217 171.169L52.5975 170.951L53.6624 171.298L54.9463 171.973L56.4988 172.499L58.4096 172.837L59.992 172.777L66.3316 170.008L71.5466 169.472L83.3599 170.415L85.4996 170.871L88.7838 172.142L92.3865 172.936L95.7205 173.234L97.6314 173.631L99.2038 174.366L100 175.577L100.418 177.205L100.577 179.071L100.916 181.226L101.781 182.913L104.956 186.05L106.27 187.629L108.599 191.292L109.982 192.801L112.45 194.36L118.85 196.683L123.278 199.184L127.229 202.123L128.623 203.404L129.926 204.893L132.086 208.347L133.051 209.32L134.156 210.095L135.569 210.472L137.301 210.383L140.287 209.668L142.257 208.923L143.332 208.725L144.745 209.052L146.139 210.035L147.621 211.554L149.443 212.974L151.354 213.599L153.443 213.49L157.375 212.209L159.425 211.991L162.122 212.527L163.933 213.44L165.078 214.403L165.456 215.287L165.307 215.982L164.56 216.687L163.077 217.808L162.868 218.344L162.988 219.208L165.545 222.385L166.073 224.321L166.481 226.386L166.71 228.967L167.377 231.439L168.501 233.047L170.581 234.526L172.253 233.613L174.184 231.25L175.388 230.575L178.633 229.84L180.155 229.056L181.588 228.053L184.922 226.535L186.604 225.443L190.625 219.843L191.64 218.732L192.854 217.818L197.91 215.406L199.293 215.039L200.647 214.89L208.559 215.773L212.978 217.223L220.621 220.836L221.576 221.442L224.124 223.556L224.204 223.616L223.617 221.402L223.577 219.456L224.721 217.679L224.93 217.084L225 216.488L224.93 215.882ZM13.3758 110.066L14.1819 111.207L14.4108 110.294L14.8686 108.12L16.3515 107.207L17.7349 108.001L18.8794 108.577L20.2628 109.033L19.2277 107.892L18.3022 106.631L17.0382 105.489L15.207 104.685L14.0625 103.434V101.717L13.8237 100.237L13.0275 100.009L12.3408 101.717V102.858L12.1119 104.804L11.4252 105.717L12.6891 107.207L13.3758 110.066Z" transform="translate(23 185)" fill="white"/>
<path d="M0 83L7.97256 59.676L7.63666 58.4683L6.62898 57.5773L5.40395 56.1022L4.67289 54.3302L5.236 53.7263L6.59934 53.3996L8.26894 52.4393L10.0176 49.2714L10.8277 41.5198L12.0428 38.0549L13.5939 36.3026L17.0516 33.303L18.4643 31.2438L20.3315 26.3236L21.4973 24.0763L25.3897 20.7599L26.1405 18.8591L26.0714 16.5525L25.7256 13.5924L25.6465 10.5433L26.2195 8.28614L27 7.51396L25.9627 3.45503L24.9352 1.75227L23.5423 0" transform="translate(299 1)" stroke="white" stroke-linecap="round" stroke-linejoin="round"/>
<path d="M10.2336 0L10.8197 4.09091L11 12.0321L10.8197 14.0246L10.2336 15.4781L8.76844 16.5176L6.86373 17.4321L5.21824 18.8086L4.5082 21.1957L4.76742 23.2845L5.73668 26.8941L5.75922 29.0503L4.65471 35.1144L4.35041 43.9219L3.80943 45.8663L0.901639 51.3529L0.507172 52.9508L0 53.9807L0.157787 54" transform="translate(156 1)" stroke="white" stroke-linecap="round" stroke-linejoin="round"/>
<path d="M11.924 1.25884L10.9028 0.396485L10.6346 0L9.55157 6.00674L9.38654 8.1775L9.44843 12.856L9.15961 14.1049L7.93214 15.6215L7.65364 16.6325L7.82899 18.0202L8.26221 18.7042L8.82953 19.1899L9.44843 20.0027L10.3974 22.2329L10.6759 23.6404V25.3156L11.6145 27.4367L12.3882 29.7661L10.6037 33.0767L9.58252 36.764L5.74539 39.3313L4.34256 40.4216L3.44517 42.2752L2.55809 43.2565L2.81596 44.3766L4.2291 45.8535L5.39468 47.5881L3.73398 48.6784L2.19707 51.2655L0.752986 54.0607L0 57.3912" transform="translate(6.61182 638)" stroke="white" stroke-linecap="round" stroke-linejoin="round"/>
<path d="M3.85352 34.0088L2.86813 29.8944L0 17.9126L0.504396 16.6803L6.86374 9.74772L8.54506 6.33151L9 2.24408L8.73297 1.20219L7.93187 0" transform="translate(166 669)" stroke="white" stroke-linecap="round" stroke-linejoin="round"/>
<path d="M15.1172 0.875C13.5938 0.875 12.1289 1.1875 10.7227 1.8125C9.33594 2.41797 8.13477 3.23828 7.11914 4.27344C6.10352 5.28906 5.2832 6.5 4.6582 7.90625C4.05273 9.3125 3.75 10.7773 3.75 12.3008C3.75 13.1602 3.86719 14.0586 4.10156 14.9961C4.33594 15.9336 4.60938 16.8027 4.92188 17.6035C5.23438 18.4043 5.68359 19.293 6.26953 20.2695C6.85547 21.2461 7.37305 22.0762 7.82227 22.7598C8.29102 23.4238 8.91602 24.2441 9.69727 25.2207C10.4785 26.1777 11.084 26.9102 11.5137 27.418C11.9434 27.9258 12.5488 28.6289 13.3301 29.5273C13.5645 29.8008 13.7402 29.9961 13.8574 30.1133C13.8965 30.1719 13.9648 30.2402 14.0625 30.3184C14.1602 30.416 14.3359 30.5332 14.5898 30.6699C14.8438 30.8066 15.0879 30.875 15.3223 30.875H15.4102C15.957 30.875 16.4453 30.6211 16.875 30.1133C23.125 22.9258 26.25 16.9883 26.25 12.3008C26.25 9.03906 25.2539 6.33398 23.2617 4.18555C21.1914 1.97852 18.4766 0.875 15.1172 0.875ZM15.4688 28.8535C15.4492 28.8926 15.4102 28.9316 15.3516 28.9707C15.3125 28.9316 15.2734 28.8926 15.2344 28.8535L14.7363 28.2969C13.9941 27.4375 13.418 26.7734 13.0078 26.3047C12.5977 25.8164 12.0215 25.1133 11.2793 24.1953C10.5371 23.2773 9.95117 22.5059 9.52148 21.8809C9.0918 21.2363 8.59375 20.4648 8.02734 19.5664C7.46094 18.6484 7.02148 17.8281 6.70898 17.1055C6.41602 16.3633 6.16211 15.5723 5.94727 14.7324C5.73242 13.873 5.625 13.0625 5.625 12.3008C5.625 10.6016 6.05469 9.01953 6.91406 7.55469C7.77344 6.07031 8.92578 4.89844 10.3711 4.03906C11.8359 3.17969 13.418 2.75 15.1172 2.75C16.6602 2.75 18.0371 3.02344 19.248 3.57031C20.459 4.09766 21.4258 4.82031 22.1484 5.73828C22.8906 6.65625 23.4473 7.67188 23.8184 8.78516C24.1895 9.89844 24.375 11.0703 24.375 12.3008C24.375 16.5195 21.4062 22.0371 15.4688 28.8535ZM15.0293 6.5293C14.4238 6.5293 13.8281 6.62695 13.2422 6.82227C12.6758 7.01758 12.1582 7.29102 11.6895 7.64258C11.2402 7.97461 10.8398 8.375 10.4883 8.84375C10.1367 9.3125 9.86328 9.83008 9.66797 10.3965C9.49219 10.9629 9.4043 11.5488 9.4043 12.1543C9.4043 13.7168 9.95117 15.0449 11.0449 16.1387C12.1582 17.2324 13.4863 17.7793 15.0293 17.7793C16.5918 17.7793 17.9199 17.2324 19.0137 16.1387C20.1074 15.0449 20.6543 13.7168 20.6543 12.1543C20.6543 11.3926 20.5078 10.6699 20.2148 9.98633C19.9219 9.2832 19.5215 8.6875 19.0137 8.19922C18.5059 7.69141 17.9004 7.29102 17.1973 6.99805C16.5137 6.68555 15.791 6.5293 15.0293 6.5293ZM15.0293 15.9043C13.9941 15.9043 13.1055 15.5332 12.3633 14.791C11.6211 14.0488 11.25 13.1602 11.25 12.125C11.25 11.0898 11.6113 10.2109 12.334 9.48828C13.0762 8.74609 13.9648 8.375 15 8.375C16.0352 8.375 16.9141 8.74609 17.6367 9.48828C18.3789 10.2109 18.75 11.0898 18.75 12.125C18.75 13.4141 18.2324 14.4395 17.1973 15.2012C16.5527 15.6699 15.8301 15.9043 15.0293 15.9043Z" transform="translate(186 260)" fill="#696057"/>
<path d="M15.1172 0.875C13.5938 0.875 12.1289 1.1875 10.7227 1.8125C9.33594 2.41797 8.13477 3.23828 7.11914 4.27344C6.10352 5.28906 5.2832 6.5 4.6582 7.90625C4.05273 9.3125 3.75 10.7773 3.75 12.3008C3.75 13.1602 3.86719 14.0586 4.10156 14.9961C4.33594 15.9336 4.60938 16.8027 4.92188 17.6035C5.23438 18.4043 5.68359 19.293 6.26953 20.2695C6.85547 21.2461 7.37305 22.0762 7.82227 22.7598C8.29102 23.4238 8.91602 24.2441 9.69727 25.2207C10.4785 26.1777 11.084 26.9102 11.5137 27.418C11.9434 27.9258 12.5488 28.6289 13.3301 29.5273C13.5645 29.8008 13.7402 29.9961 13.8574 30.1133C13.8965 30.1719 13.9648 30.2402 14.0625 30.3184C14.1602 30.416 14.3359 30.5332 14.5898 30.6699C14.8438 30.8066 15.0879 30.875 15.3223 30.875H15.4102C15.957 30.875 16.4453 30.6211 16.875 30.1133C23.125 22.9258 26.25 16.9883 26.25 12.3008C26.25 9.03906 25.2539 6.33398 23.2617 4.18555C21.1914 1.97852 18.4766 0.875 15.1172 0.875ZM15.4688 28.8535C15.4492 28.8926 15.4102 28.9316 15.3516 28.9707C15.3125 28.9316 15.2734 28.8926 15.2344 28.8535L14.7363 28.2969C13.9941 27.4375 13.418 26.7734 13.0078 26.3047C12.5977 25.8164 12.0215 25.1133 11.2793 24.1953C10.5371 23.2773 9.95117 22.5059 9.52148 21.8809C9.0918 21.2363 8.59375 20.4648 8.02734 19.5664C7.46094 18.6484 7.02148 17.8281 6.70898 17.1055C6.41602 16.3633 6.16211 15.5723 5.94727 14.7324C5.73242 13.873 5.625 13.0625 5.625 12.3008C5.625 10.6016 6.05469 9.01953 6.91406 7.55469C7.77344 6.07031 8.92578 4.89844 10.3711 4.03906C11.8359 3.17969 13.418 2.75 15.1172 2.75C16.6602 2.75 18.0371 3.02344 19.248 3.57031C20.459 4.09766 21.4258 4.82031 22.1484 5.73828C22.8906 6.65625 23.4473 7.67188 23.8184 8.78516C24.1895 9.89844 24.375 11.0703 24.375 12.3008C24.375 16.5195 21.4062 22.0371 15.4688 28.8535ZM15.0293 6.5293C14.4238 6.5293 13.8281 6.62695 13.2422 6.82227C12.6758 7.01758 12.1582 7.29102 11.6895 7.64258C11.2402 7.97461 10.8398 8.375 10.4883 8.84375C10.1367 9.3125 9.86328 9.83008 9.66797 10.3965C9.49219 10.9629 9.4043 11.5488 9.4043 12.1543C9.4043 13.7168 9.95117 15.0449 11.0449 16.1387C12.1582 17.2324 13.4863 17.7793 15.0293 17.7793C16.5918 17.7793 17.9199 17.2324 19.0137 16.1387C20.1074 15.0449 20.6543 13.7168 20.6543 12.1543C20.6543 11.3926 20.5078 10.6699 20.2148 9.98633C19.9219 9.2832 19.5215 8.6875 19.0137 8.19922C18.5059 7.69141 17.9004 7.29102 17.1973 6.99805C16.5137 6.68555 15.791 6.5293 15.0293 6.5293ZM15.0293 15.9043C13.9941 15.9043 13.1055 15.5332 12.3633 14.791C11.6211 14.0488 11.25 13.1602 11.25 12.125C11.25 11.0898 11.6113 10.2109 12.334 9.48828C13.0762 8.74609 13.9648 8.375 15 8.375C16.0352 8.375 16.9141 8.74609 17.6367 9.48828C18.3789 10.2109 18.75 11.0898 18.75 12.125C18.75 13.4141 18.2324 14.4395 17.1973 15.2012C16.5527 15.6699 15.8301 15.9043 15.0293 15.9043Z" transform="translate(114 285)" fill="#696057"/>
<path d="M15.1172 0.875C13.5938 0.875 12.1289 1.1875 10.7227 1.8125C9.33594 2.41797 8.13477 3.23828 7.11914 4.27344C6.10352 5.28906 5.2832 6.5 4.6582 7.90625C4.05273 9.3125 3.75 10.7773 3.75 12.3008C3.75 13.1602 3.86719 14.0586 4.10156 14.9961C4.33594 15.9336 4.60938 16.8027 4.92188 17.6035C5.23438 18.4043 5.68359 19.293 6.26953 20.2695C6.85547 21.2461 7.37305 22.0762 7.82227 22.7598C8.29102 23.4238 8.91602 24.2441 9.69727 25.2207C10.4785 26.1777 11.084 26.9102 11.5137 27.418C11.9434 27.9258 12.5488 28.6289 13.3301 29.5273C13.5645 29.8008 13.7402 29.9961 13.8574 30.1133C13.8965 30.1719 13.9648 30.2402 14.0625 30.3184C14.1602 30.416 14.3359 30.5332 14.5898 30.6699C14.8438 30.8066 15.0879 30.875 15.3223 30.875H15.4102C15.957 30.875 16.4453 30.6211 16.875 30.1133C23.125 22.9258 26.25 16.9883 26.25 12.3008C26.25 9.03906 25.2539 6.33398 23.2617 4.18555C21.1914 1.97852 18.4766 0.875 15.1172 0.875ZM15.4688 28.8535C15.4492 28.8926 15.4102 28.9316 15.3516 28.9707C15.3125 28.9316 15.2734 28.8926 15.2344 28.8535L14.7363 28.2969C13.9941 27.4375 13.418 26.7734 13.0078 26.3047C12.5977 25.8164 12.0215 25.1133 11.2793 24.1953C10.5371 23.2773 9.95117 22.5059 9.52148 21.8809C9.0918 21.2363 8.59375 20.4648 8.02734 19.5664C7.46094 18.6484 7.02148 17.8281 6.70898 17.1055C6.41602 16.3633 6.16211 15.5723 5.94727 14.7324C5.73242 13.873 5.625 13.0625 5.625 12.3008C5.625 10.6016 6.05469 9.01953 6.91406 7.55469C7.77344 6.07031 8.92578 4.89844 10.3711 4.03906C11.8359 3.17969 13.418 2.75 15.1172 2.75C16.6602 2.75 18.0371 3.02344 19.248 3.57031C20.459 4.09766 21.4258 4.82031 22.1484 5.73828C22.8906 6.65625 23.4473 7.67188 23.8184 8.78516C24.1895 9.89844 24.375 11.0703 24.375 12.3008C24.375 16.5195 21.4062 22.0371 15.4688 28.8535ZM15.0293 6.5293C14.4238 6.5293 13.8281 6.62695 13.2422 6.82227C12.6758 7.01758 12.1582 7.29102 11.6895 7.64258C11.2402 7.97461 10.8398 8.375 10.4883 8.84375C10.1367 9.3125 9.86328 9.83008 9.66797 10.3965C9.49219 10.9629 9.4043 11.5488 9.4043 12.1543C9.4043 13.7168 9.95117 15.0449 11.0449 16.1387C12.1582 17.2324 13.4863 17.7793 15.0293 17.7793C16.5918 17.7793 17.9199 17.2324 19.0137 16.1387C20.1074 15.0449 20.6543 13.7168 20.6543 12.1543C20.6543 11.3926 20.5078 10.6699 20.2148 9.98633C19.9219 9.2832 19.5215 8.6875 19.0137 8.19922C18.5059 7.69141 17.9004 7.29102 17.1973 6.99805C16.5137 6.68555 15.791 6.5293 15.0293 6.5293ZM15.0293 15.9043C13.9941 15.9043 13.1055 15.5332 12.3633 14.791C11.6211 14.0488 11.25 13.1602 11.25 12.125C11.25 11.0898 11.6113 10.2109 12.334 9.48828C13.0762 8.74609 13.9648 8.375 15 8.375C16.0352 8.375 16.9141 8.74609 17.6367 9.48828C18.3789 10.2109 18.75 11.0898 18.75 12.125C18.75 13.4141 18.2324 14.4395 17.1973 15.2012C16.5527 15.6699 15.8301 15.9043 15.0293 15.9043Z" transform="translate(166 325)" fill="#696057"/>
<path d="M15.1172 0.875C13.5938 0.875 12.1289 1.1875 10.7227 1.8125C9.33594 2.41797 8.13477 3.23828 7.11914 4.27344C6.10352 5.28906 5.2832 6.5 4.6582 7.90625C4.05273 9.3125 3.75 10.7773 3.75 12.3008C3.75 13.1602 3.86719 14.0586 4.10156 14.9961C4.33594 15.9336 4.60938 16.8027 4.92188 17.6035C5.23438 18.4043 5.68359 19.293 6.26953 20.2695C6.85547 21.2461 7.37305 22.0762 7.82227 22.7598C8.29102 23.4238 8.91602 24.2441 9.69727 25.2207C10.4785 26.1777 11.084 26.9102 11.5137 27.418C11.9434 27.9258 12.5488 28.6289 13.3301 29.5273C13.5645 29.8008 13.7402 29.9961 13.8574 30.1133C13.8965 30.1719 13.9648 30.2402 14.0625 30.3184C14.1602 30.416 14.3359 30.5332 14.5898 30.6699C14.8438 30.8066 15.0879 30.875 15.3223 30.875H15.4102C15.957 30.875 16.4453 30.6211 16.875 30.1133C23.125 22.9258 26.25 16.9883 26.25 12.3008C26.25 9.03906 25.2539 6.33398 23.2617 4.18555C21.1914 1.97852 18.4766 0.875 15.1172 0.875ZM15.4688 28.8535C15.4492 28.8926 15.4102 28.9316 15.3516 28.9707C15.3125 28.9316 15.2734 28.8926 15.2344 28.8535L14.7363 28.2969C13.9941 27.4375 13.418 26.7734 13.0078 26.3047C12.5977 25.8164 12.0215 25.1133 11.2793 24.1953C10.5371 23.2773 9.95117 22.5059 9.52148 21.8809C9.0918 21.2363 8.59375 20.4648 8.02734 19.5664C7.46094 18.6484 7.02148 17.8281 6.70898 17.1055C6.41602 16.3633 6.16211 15.5723 5.94727 14.7324C5.73242 13.873 5.625 13.0625 5.625 12.3008C5.625 10.6016 6.05469 9.01953 6.91406 7.55469C7.77344 6.07031 8.92578 4.89844 10.3711 4.03906C11.8359 3.17969 13.418 2.75 15.1172 2.75C16.6602 2.75 18.0371 3.02344 19.248 3.57031C20.459 4.09766 21.4258 4.82031 22.1484 5.73828C22.8906 6.65625 23.4473 7.67188 23.8184 8.78516C24.1895 9.89844 24.375 11.0703 24.375 12.3008C24.375 16.5195 21.4062 22.0371 15.4688 28.8535ZM15.0293 6.5293C14.4238 6.5293 13.8281 6.62695 13.2422 6.82227C12.6758 7.01758 12.1582 7.29102 11.6895 7.64258C11.2402 7.97461 10.8398 8.375 10.4883 8.84375C10.1367 9.3125 9.86328 9.83008 9.66797 10.3965C9.49219 10.9629 9.4043 11.5488 9.4043 12.1543C9.4043 13.7168 9.95117 15.0449 11.0449 16.1387C12.1582 17.2324 13.4863 17.7793 15.0293 17.7793C16.5918 17.7793 17.9199 17.2324 19.0137 16.1387C20.1074 15.0449 20.6543 13.7168 20.6543 12.1543C20.6543 11.3926 20.5078 10.6699 20.2148 9.98633C19.9219 9.2832 19.5215 8.6875 19.0137 8.19922C18.5059 7.69141 17.9004 7.29102 17.1973 6.99805C16.5137 6.68555 15.791 6.5293 15.0293 6.5293ZM15.0293 15.9043C13.9941 15.9043 13.1055 15.5332 12.3633 14.791C11.6211 14.0488 11.25 13.1602 11.25 12.125C11.25 11.0898 11.6113 10.2109 12.334 9.48828C13.0762 8.74609 13.9648 8.375 15 8.375C16.0352 8.375 16.9141 8.74609 17.6367 9.48828C18.3789 10.2109 18.75 11.0898 18.75 12.125C18.75 13.4141 18.2324 14.4395 17.1973 15.2012C16.5527 15.6699 15.8301 15.9043 15.0293 15.9043Z" transform="translate(60 306)" fill="#696057"/>
<path d="M15.1172 0.875C13.5938 0.875 12.1289 1.1875 10.7227 1.8125C9.33594 2.41797 8.13477 3.23828 7.11914 4.27344C6.10352 5.28906 5.2832 6.5 4.6582 7.90625C4.05273 9.3125 3.75 10.7773 3.75 12.3008C3.75 13.1602 3.86719 14.0586 4.10156 14.9961C4.33594 15.9336 4.60938 16.8027 4.92188 17.6035C5.23438 18.4043 5.68359 19.293 6.26953 20.2695C6.85547 21.2461 7.37305 22.0762 7.82227 22.7598C8.29102 23.4238 8.91602 24.2441 9.69727 25.2207C10.4785 26.1777 11.084 26.9102 11.5137 27.418C11.9434 27.9258 12.5488 28.6289 13.3301 29.5273C13.5645 29.8008 13.7402 29.9961 13.8574 30.1133C13.8965 30.1719 13.9648 30.2402 14.0625 30.3184C14.1602 30.416 14.3359 30.5332 14.5898 30.6699C14.8438 30.8066 15.0879 30.875 15.3223 30.875H15.4102C15.957 30.875 16.4453 30.6211 16.875 30.1133C23.125 22.9258 26.25 16.9883 26.25 12.3008C26.25 9.03906 25.2539 6.33398 23.2617 4.18555C21.1914 1.97852 18.4766 0.875 15.1172 0.875ZM15.4688 28.8535C15.4492 28.8926 15.4102 28.9316 15.3516 28.9707C15.3125 28.9316 15.2734 28.8926 15.2344 28.8535L14.7363 28.2969C13.9941 27.4375 13.418 26.7734 13.0078 26.3047C12.5977 25.8164 12.0215 25.1133 11.2793 24.1953C10.5371 23.2773 9.95117 22.5059 9.52148 21.8809C9.0918 21.2363 8.59375 20.4648 8.02734 19.5664C7.46094 18.6484 7.02148 17.8281 6.70898 17.1055C6.41602 16.3633 6.16211 15.5723 5.94727 14.7324C5.73242 13.873 5.625 13.0625 5.625 12.3008C5.625 10.6016 6.05469 9.01953 6.91406 7.55469C7.77344 6.07031 8.92578 4.89844 10.3711 4.03906C11.8359 3.17969 13.418 2.75 15.1172 2.75C16.6602 2.75 18.0371 3.02344 19.248 3.57031C20.459 4.09766 21.4258 4.82031 22.1484 5.73828C22.8906 6.65625 23.4473 7.67188 23.8184 8.78516C24.1895 9.89844 24.375 11.0703 24.375 12.3008C24.375 16.5195 21.4062 22.0371 15.4688 28.8535ZM15.0293 6.5293C14.4238 6.5293 13.8281 6.62695 13.2422 6.82227C12.6758 7.01758 12.1582 7.29102 11.6895 7.64258C11.2402 7.97461 10.8398 8.375 10.4883 8.84375C10.1367 9.3125 9.86328 9.83008 9.66797 10.3965C9.49219 10.9629 9.4043 11.5488 9.4043 12.1543C9.4043 13.7168 9.95117 15.0449 11.0449 16.1387C12.1582 17.2324 13.4863 17.7793 15.0293 17.7793C16.5918 17.7793 17.9199 17.2324 19.0137 16.1387C20.1074 15.0449 20.6543 13.7168 20.6543 12.1543C20.6543 11.3926 20.5078 10.6699 20.2148 9.98633C19.9219 9.2832 19.5215 8.6875 19.0137 8.19922C18.5059 7.69141 17.9004 7.29102 17.1973 6.99805C16.5137 6.68555 15.791 6.5293 15.0293 6.5293ZM15.0293 15.9043C13.9941 15.9043 13.1055 15.5332 12.3633 14.791C11.6211 14.0488 11.25 13.1602 11.25 12.125C11.25 11.0898 11.6113 10.2109 12.334 9.48828C13.0762 8.74609 13.9648 8.375 15 8.375C16.0352 8.375 16.9141 8.74609 17.6367 9.48828C18.3789 10.2109 18.75 11.0898 18.75 12.125C18.75 13.4141 18.2324 14.4395 17.1973 15.2012C16.5527 15.6699 15.8301 15.9043 15.0293 15.9043Z" transform="translate(138 573)" fill="#696057"/>
<path d="M15.1172 0.875C13.5938 0.875 12.1289 1.1875 10.7227 1.8125C9.33594 2.41797 8.13477 3.23828 7.11914 4.27344C6.10352 5.28906 5.2832 6.5 4.6582 7.90625C4.05273 9.3125 3.75 10.7773 3.75 12.3008C3.75 13.1602 3.86719 14.0586 4.10156 14.9961C4.33594 15.9336 4.60938 16.8027 4.92188 17.6035C5.23438 18.4043 5.68359 19.293 6.26953 20.2695C6.85547 21.2461 7.37305 22.0762 7.82227 22.7598C8.29102 23.4238 8.91602 24.2441 9.69727 25.2207C10.4785 26.1777 11.084 26.9102 11.5137 27.418C11.9434 27.9258 12.5488 28.6289 13.3301 29.5273C13.5645 29.8008 13.7402 29.9961 13.8574 30.1133C13.8965 30.1719 13.9648 30.2402 14.0625 30.3184C14.1602 30.416 14.3359 30.5332 14.5898 30.6699C14.8438 30.8066 15.0879 30.875 15.3223 30.875H15.4102C15.957 30.875 16.4453 30.6211 16.875 30.1133C23.125 22.9258 26.25 16.9883 26.25 12.3008C26.25 9.03906 25.2539 6.33398 23.2617 4.18555C21.1914 1.97852 18.4766 0.875 15.1172 0.875ZM15.4688 28.8535C15.4492 28.8926 15.4102 28.9316 15.3516 28.9707C15.3125 28.9316 15.2734 28.8926 15.2344 28.8535L14.7363 28.2969C13.9941 27.4375 13.418 26.7734 13.0078 26.3047C12.5977 25.8164 12.0215 25.1133 11.2793 24.1953C10.5371 23.2773 9.95117 22.5059 9.52148 21.8809C9.0918 21.2363 8.59375 20.4648 8.02734 19.5664C7.46094 18.6484 7.02148 17.8281 6.70898 17.1055C6.41602 16.3633 6.16211 15.5723 5.94727 14.7324C5.73242 13.873 5.625 13.0625 5.625 12.3008C5.625 10.6016 6.05469 9.01953 6.91406 7.55469C7.77344 6.07031 8.92578 4.89844 10.3711 4.03906C11.8359 3.17969 13.418 2.75 15.1172 2.75C16.6602 2.75 18.0371 3.02344 19.248 3.57031C20.459 4.09766 21.4258 4.82031 22.1484 5.73828C22.8906 6.65625 23.4473 7.67188 23.8184 8.78516C24.1895 9.89844 24.375 11.0703 24.375 12.3008C24.375 16.5195 21.4062 22.0371 15.4688 28.8535ZM15.0293 6.5293C14.4238 6.5293 13.8281 6.62695 13.2422 6.82227C12.6758 7.01758 12.1582 7.29102 11.6895 7.64258C11.2402 7.97461 10.8398 8.375 10.4883 8.84375C10.1367 9.3125 9.86328 9.83008 9.66797 10.3965C9.49219 10.9629 9.4043 11.5488 9.4043 12.1543C9.4043 13.7168 9.95117 15.0449 11.0449 16.1387C12.1582 17.2324 13.4863 17.7793 15.0293 17.7793C16.5918 17.7793 17.9199 17.2324 19.0137 16.1387C20.1074 15.0449 20.6543 13.7168 20.6543 12.1543C20.6543 11.3926 20.5078 10.6699 20.2148 9.98633C19.9219 9.2832 19.5215 8.6875 19.0137 8.19922C18.5059 7.69141 17.9004 7.29102 17.1973 6.99805C16.5137 6.68555 15.791 6.5293 15.0293 6.5293ZM15.0293 15.9043C13.9941 15.9043 13.1055 15.5332 12.3633 14.791C11.6211 14.0488 11.25 13.1602 11.25 12.125C11.25 11.0898 11.6113 10.2109 12.334 9.48828C13.0762 8.74609 13.9648 8.375 15 8.375C16.0352 8.375 16.9141 8.74609 17.6367 9.48828C18.3789 10.2109 18.75 11.0898 18.75 12.125C18.75 13.4141 18.2324 14.4395 17.1973 15.2012C16.5527 15.6699 15.8301 15.9043 15.0293 15.9043Z" transform="translate(85 558)" fill="#696057"/>
<path d="M15.1172 0.875C13.5938 0.875 12.1289 1.1875 10.7227 1.8125C9.33594 2.41797 8.13477 3.23828 7.11914 4.27344C6.10352 5.28906 5.2832 6.5 4.6582 7.90625C4.05273 9.3125 3.75 10.7773 3.75 12.3008C3.75 13.1602 3.86719 14.0586 4.10156 14.9961C4.33594 15.9336 4.60938 16.8027 4.92188 17.6035C5.23438 18.4043 5.68359 19.293 6.26953 20.2695C6.85547 21.2461 7.37305 22.0762 7.82227 22.7598C8.29102 23.4238 8.91602 24.2441 9.69727 25.2207C10.4785 26.1777 11.084 26.9102 11.5137 27.418C11.9434 27.9258 12.5488 28.6289 13.3301 29.5273C13.5645 29.8008 13.7402 29.9961 13.8574 30.1133C13.8965 30.1719 13.9648 30.2402 14.0625 30.3184C14.1602 30.416 14.3359 30.5332 14.5898 30.6699C14.8438 30.8066 15.0879 30.875 15.3223 30.875H15.4102C15.957 30.875 16.4453 30.6211 16.875 30.1133C23.125 22.9258 26.25 16.9883 26.25 12.3008C26.25 9.03906 25.2539 6.33398 23.2617 4.18555C21.1914 1.97852 18.4766 0.875 15.1172 0.875ZM15.4688 28.8535C15.4492 28.8926 15.4102 28.9316 15.3516 28.9707C15.3125 28.9316 15.2734 28.8926 15.2344 28.8535L14.7363 28.2969C13.9941 27.4375 13.418 26.7734 13.0078 26.3047C12.5977 25.8164 12.0215 25.1133 11.2793 24.1953C10.5371 23.2773 9.95117 22.5059 9.52148 21.8809C9.0918 21.2363 8.59375 20.4648 8.02734 19.5664C7.46094 18.6484 7.02148 17.8281 6.70898 17.1055C6.41602 16.3633 6.16211 15.5723 5.94727 14.7324C5.73242 13.873 5.625 13.0625 5.625 12.3008C5.625 10.6016 6.05469 9.01953 6.91406 7.55469C7.77344 6.07031 8.92578 4.89844 10.3711 4.03906C11.8359 3.17969 13.418 2.75 15.1172 2.75C16.6602 2.75 18.0371 3.02344 19.248 3.57031C20.459 4.09766 21.4258 4.82031 22.1484 5.73828C22.8906 6.65625 23.4473 7.67188 23.8184 8.78516C24.1895 9.89844 24.375 11.0703 24.375 12.3008C24.375 16.5195 21.4062 22.0371 15.4688 28.8535ZM15.0293 6.5293C14.4238 6.5293 13.8281 6.62695 13.2422 6.82227C12.6758 7.01758 12.1582 7.29102 11.6895 7.64258C11.2402 7.97461 10.8398 8.375 10.4883 8.84375C10.1367 9.3125 9.86328 9.83008 9.66797 10.3965C9.49219 10.9629 9.4043 11.5488 9.4043 12.1543C9.4043 13.7168 9.95117 15.0449 11.0449 16.1387C12.1582 17.2324 13.4863 17.7793 15.0293 17.7793C16.5918 17.7793 17.9199 17.2324 19.0137 16.1387C20.1074 15.0449 20.6543 13.7168 20.6543 12.1543C20.6543 11.3926 20.5078 10.6699 20.2148 9.98633C19.9219 9.2832 19.5215 8.6875 19.0137 8.19922C18.5059 7.69141 17.9004 7.29102 17.1973 6.99805C16.5137 6.68555 15.791 6.5293 15.0293 6.5293ZM15.0293 15.9043C13.9941 15.9043 13.1055 15.5332 12.3633 14.791C11.6211 14.0488 11.25 13.1602 11.25 12.125C11.25 11.0898 11.6113 10.2109 12.334 9.48828C13.0762 8.74609 13.9648 8.375 15 8.375C16.0352 8.375 16.9141 8.74609 17.6367 9.48828C18.3789 10.2109 18.75 11.0898 18.75 12.125C18.75 13.4141 18.2324 14.4395 17.1973 15.2012C16.5527 15.6699 15.8301 15.9043 15.0293 15.9043Z" transform="translate(107 620)" fill="#696057"/>
<path d="M15.1172 0.875C13.5938 0.875 12.1289 1.1875 10.7227 1.8125C9.33594 2.41797 8.13477 3.23828 7.11914 4.27344C6.10352 5.28906 5.2832 6.5 4.6582 7.90625C4.05273 9.3125 3.75 10.7773 3.75 12.3008C3.75 13.1602 3.86719 14.0586 4.10156 14.9961C4.33594 15.9336 4.60938 16.8027 4.92188 17.6035C5.23438 18.4043 5.68359 19.293 6.26953 20.2695C6.85547 21.2461 7.37305 22.0762 7.82227 22.7598C8.29102 23.4238 8.91602 24.2441 9.69727 25.2207C10.4785 26.1777 11.084 26.9102 11.5137 27.418C11.9434 27.9258 12.5488 28.6289 13.3301 29.5273C13.5645 29.8008 13.7402 29.9961 13.8574 30.1133C13.8965 30.1719 13.9648 30.2402 14.0625 30.3184C14.1602 30.416 14.3359 30.5332 14.5898 30.6699C14.8438 30.8066 15.0879 30.875 15.3223 30.875H15.4102C15.957 30.875 16.4453 30.6211 16.875 30.1133C23.125 22.9258 26.25 16.9883 26.25 12.3008C26.25 9.03906 25.2539 6.33398 23.2617 4.18555C21.1914 1.97852 18.4766 0.875 15.1172 0.875ZM15.4688 28.8535C15.4492 28.8926 15.4102 28.9316 15.3516 28.9707C15.3125 28.9316 15.2734 28.8926 15.2344 28.8535L14.7363 28.2969C13.9941 27.4375 13.418 26.7734 13.0078 26.3047C12.5977 25.8164 12.0215 25.1133 11.2793 24.1953C10.5371 23.2773 9.95117 22.5059 9.52148 21.8809C9.0918 21.2363 8.59375 20.4648 8.02734 19.5664C7.46094 18.6484 7.02148 17.8281 6.70898 17.1055C6.41602 16.3633 6.16211 15.5723 5.94727 14.7324C5.73242 13.873 5.625 13.0625 5.625 12.3008C5.625 10.6016 6.05469 9.01953 6.91406 7.55469C7.77344 6.07031 8.92578 4.89844 10.3711 4.03906C11.8359 3.17969 13.418 2.75 15.1172 2.75C16.6602 2.75 18.0371 3.02344 19.248 3.57031C20.459 4.09766 21.4258 4.82031 22.1484 5.73828C22.8906 6.65625 23.4473 7.67188 23.8184 8.78516C24.1895 9.89844 24.375 11.0703 24.375 12.3008C24.375 16.5195 21.4062 22.0371 15.4688 28.8535ZM15.0293 6.5293C14.4238 6.5293 13.8281 6.62695 13.2422 6.82227C12.6758 7.01758 12.1582 7.29102 11.6895 7.64258C11.2402 7.97461 10.8398 8.375 10.4883 8.84375C10.1367 9.3125 9.86328 9.83008 9.66797 10.3965C9.49219 10.9629 9.4043 11.5488 9.4043 12.1543C9.4043 13.7168 9.95117 15.0449 11.0449 16.1387C12.1582 17.2324 13.4863 17.7793 15.0293 17.7793C16.5918 17.7793 17.9199 17.2324 19.0137 16.1387C20.1074 15.0449 20.6543 13.7168 20.6543 12.1543C20.6543 11.3926 20.5078 10.6699 20.2148 9.98633C19.9219 9.2832 19.5215 8.6875 19.0137 8.19922C18.5059 7.69141 17.9004 7.29102 17.1973 6.99805C16.5137 6.68555 15.791 6.5293 15.0293 6.5293ZM15.0293 15.9043C13.9941 15.9043 13.1055 15.5332 12.3633 14.791C11.6211 14.0488 11.25 13.1602 11.25 12.125C11.25 11.0898 11.6113 10.2109 12.334 9.48828C13.0762 8.74609 13.9648 8.375 15 8.375C16.0352 8.375 16.9141 8.74609 17.6367 9.48828C18.3789 10.2109 18.75 11.0898 18.75 12.125C18.75 13.4141 18.2324 14.4395 17.1973 15.2012C16.5527 15.6699 15.8301 15.9043 15.0293 15.9043Z" transform="translate(48 599)" fill="#696057"/>
<path d="M15.1172 0.875C13.5938 0.875 12.1289 1.1875 10.7227 1.8125C9.33594 2.41797 8.13477 3.23828 7.11914 4.27344C6.10352 5.28906 5.2832 6.5 4.6582 7.90625C4.05273 9.3125 3.75 10.7773 3.75 12.3008C3.75 13.1602 3.86719 14.0586 4.10156 14.9961C4.33594 15.9336 4.60938 16.8027 4.92188 17.6035C5.23438 18.4043 5.68359 19.293 6.26953 20.2695C6.85547 21.2461 7.37305 22.0762 7.82227 22.7598C8.29102 23.4238 8.91602 24.2441 9.69727 25.2207C10.4785 26.1777 11.084 26.9102 11.5137 27.418C11.9434 27.9258 12.5488 28.6289 13.3301 29.5273C13.5645 29.8008 13.7402 29.9961 13.8574 30.1133C13.8965 30.1719 13.9648 30.2402 14.0625 30.3184C14.1602 30.416 14.3359 30.5332 14.5898 30.6699C14.8438 30.8066 15.0879 30.875 15.3223 30.875H15.4102C15.957 30.875 16.4453 30.6211 16.875 30.1133C23.125 22.9258 26.25 16.9883 26.25 12.3008C26.25 9.03906 25.2539 6.33398 23.2617 4.18555C21.1914 1.97852 18.4766 0.875 15.1172 0.875ZM15.4688 28.8535C15.4492 28.8926 15.4102 28.9316 15.3516 28.9707C15.3125 28.9316 15.2734 28.8926 15.2344 28.8535L14.7363 28.2969C13.9941 27.4375 13.418 26.7734 13.0078 26.3047C12.5977 25.8164 12.0215 25.1133 11.2793 24.1953C10.5371 23.2773 9.95117 22.5059 9.52148 21.8809C9.0918 21.2363 8.59375 20.4648 8.02734 19.5664C7.46094 18.6484 7.02148 17.8281 6.70898 17.1055C6.41602 16.3633 6.16211 15.5723 5.94727 14.7324C5.73242 13.873 5.625 13.0625 5.625 12.3008C5.625 10.6016 6.05469 9.01953 6.91406 7.55469C7.77344 6.07031 8.92578 4.89844 10.3711 4.03906C11.8359 3.17969 13.418 2.75 15.1172 2.75C16.6602 2.75 18.0371 3.02344 19.248 3.57031C20.459 4.09766 21.4258 4.82031 22.1484 5.73828C22.8906 6.65625 23.4473 7.67188 23.8184 8.78516C24.1895 9.89844 24.375 11.0703 24.375 12.3008C24.375 16.5195 21.4062 22.0371 15.4688 28.8535ZM15.0293 6.5293C14.4238 6.5293 13.8281 6.62695 13.2422 6.82227C12.6758 7.01758 12.1582 7.29102 11.6895 7.64258C11.2402 7.97461 10.8398 8.375 10.4883 8.84375C10.1367 9.3125 9.86328 9.83008 9.66797 10.3965C9.49219 10.9629 9.4043 11.5488 9.4043 12.1543C9.4043 13.7168 9.95117 15.0449 11.0449 16.1387C12.1582 17.2324 13.4863 17.7793 15.0293 17.7793C16.5918 17.7793 17.9199 17.2324 19.0137 16.1387C20.1074 15.0449 20.6543 13.7168 20.6543 12.1543C20.6543 11.3926 20.5078 10.6699 20.2148 9.98633C19.9219 9.2832 19.5215 8.6875 19.0137 8.19922C18.5059 7.69141 17.9004 7.29102 17.1973 6.99805C16.5137 6.68555 15.791 6.5293 15.0293 6.5293ZM15.0293 15.9043C13.9941 15.9043 13.1055 15.5332 12.3633 14.791C11.6211 14.0488 11.25 13.1602 11.25 12.125C11.25 11.0898 11.6113 10.2109 12.334 9.48828C13.0762 8.74609 13.9648 8.375 15 8.375C16.0352 8.375 16.9141 8.74609 17.6367 9.48828C18.3789 10.2109 18.75 11.0898 18.75 12.125C18.75 13.4141 18.2324 14.4395 17.1973 15.2012C16.5527 15.6699 15.8301 15.9043 15.0293 15.9043Z" transform="translate(234 117)" fill="#696057"/>
<path d="M15.1172 0.875C13.5938 0.875 12.1289 1.1875 10.7227 1.8125C9.33594 2.41797 8.13477 3.23828 7.11914 4.27344C6.10352 5.28906 5.2832 6.5 4.6582 7.90625C4.05273 9.3125 3.75 10.7773 3.75 12.3008C3.75 13.1602 3.86719 14.0586 4.10156 14.9961C4.33594 15.9336 4.60938 16.8027 4.92188 17.6035C5.23438 18.4043 5.68359 19.293 6.26953 20.2695C6.85547 21.2461 7.37305 22.0762 7.82227 22.7598C8.29102 23.4238 8.91602 24.2441 9.69727 25.2207C10.4785 26.1777 11.084 26.9102 11.5137 27.418C11.9434 27.9258 12.5488 28.6289 13.3301 29.5273C13.5645 29.8008 13.7402 29.9961 13.8574 30.1133C13.8965 30.1719 13.9648 30.2402 14.0625 30.3184C14.1602 30.416 14.3359 30.5332 14.5898 30.6699C14.8438 30.8066 15.0879 30.875 15.3223 30.875H15.4102C15.957 30.875 16.4453 30.6211 16.875 30.1133C23.125 22.9258 26.25 16.9883 26.25 12.3008C26.25 9.03906 25.2539 6.33398 23.2617 4.18555C21.1914 1.97852 18.4766 0.875 15.1172 0.875ZM15.4688 28.8535C15.4492 28.8926 15.4102 28.9316 15.3516 28.9707C15.3125 28.9316 15.2734 28.8926 15.2344 28.8535L14.7363 28.2969C13.9941 27.4375 13.418 26.7734 13.0078 26.3047C12.5977 25.8164 12.0215 25.1133 11.2793 24.1953C10.5371 23.2773 9.95117 22.5059 9.52148 21.8809C9.0918 21.2363 8.59375 20.4648 8.02734 19.5664C7.46094 18.6484 7.02148 17.8281 6.70898 17.1055C6.41602 16.3633 6.16211 15.5723 5.94727 14.7324C5.73242 13.873 5.625 13.0625 5.625 12.3008C5.625 10.6016 6.05469 9.01953 6.91406 7.55469C7.77344 6.07031 8.92578 4.89844 10.3711 4.03906C11.8359 3.17969 13.418 2.75 15.1172 2.75C16.6602 2.75 18.0371 3.02344 19.248 3.57031C20.459 4.09766 21.4258 4.82031 22.1484 5.73828C22.8906 6.65625 23.4473 7.67188 23.8184 8.78516C24.1895 9.89844 24.375 11.0703 24.375 12.3008C24.375 16.5195 21.4062 22.0371 15.4688 28.8535ZM15.0293 6.5293C14.4238 6.5293 13.8281 6.62695 13.2422 6.82227C12.6758 7.01758 12.1582 7.29102 11.6895 7.64258C11.2402 7.97461 10.8398 8.375 10.4883 8.84375C10.1367 9.3125 9.86328 9.83008 9.66797 10.3965C9.49219 10.9629 9.4043 11.5488 9.4043 12.1543C9.4043 13.7168 9.95117 15.0449 11.0449 16.1387C12.1582 17.2324 13.4863 17.7793 15.0293 17.7793C16.5918 17.7793 17.9199 17.2324 19.0137 16.1387C20.1074 15.0449 20.6543 13.7168 20.6543 12.1543C20.6543 11.3926 20.5078 10.6699 20.2148 9.98633C19.9219 9.2832 19.5215 8.6875 19.0137 8.19922C18.5059 7.69141 17.9004 7.29102 17.1973 6.99805C16.5137 6.68555 15.791 6.5293 15.0293 6.5293ZM15.0293 15.9043C13.9941 15.9043 13.1055 15.5332 12.3633 14.791C11.6211 14.0488 11.25 13.1602 11.25 12.125C11.25 11.0898 11.6113 10.2109 12.334 9.48828C13.0762 8.74609 13.9648 8.375 15 8.375C16.0352 8.375 16.9141 8.74609 17.6367 9.48828C18.3789 10.2109 18.75 11.0898 18.75 12.125C18.75 13.4141 18.2324 14.4395 17.1973 15.2012C16.5527 15.6699 15.8301 15.9043 15.0293 15.9043Z" transform="translate(125 221)" fill="#696057"/>
<path d="M15.1172 0.875C13.5938 0.875 12.1289 1.1875 10.7227 1.8125C9.33594 2.41797 8.13477 3.23828 7.11914 4.27344C6.10352 5.28906 5.2832 6.5 4.6582 7.90625C4.05273 9.3125 3.75 10.7773 3.75 12.3008C3.75 13.1602 3.86719 14.0586 4.10156 14.9961C4.33594 15.9336 4.60938 16.8027 4.92188 17.6035C5.23438 18.4043 5.68359 19.293 6.26953 20.2695C6.85547 21.2461 7.37305 22.0762 7.82227 22.7598C8.29102 23.4238 8.91602 24.2441 9.69727 25.2207C10.4785 26.1777 11.084 26.9102 11.5137 27.418C11.9434 27.9258 12.5488 28.6289 13.3301 29.5273C13.5645 29.8008 13.7402 29.9961 13.8574 30.1133C13.8965 30.1719 13.9648 30.2402 14.0625 30.3184C14.1602 30.416 14.3359 30.5332 14.5898 30.6699C14.8438 30.8066 15.0879 30.875 15.3223 30.875H15.4102C15.957 30.875 16.4453 30.6211 16.875 30.1133C23.125 22.9258 26.25 16.9883 26.25 12.3008C26.25 9.03906 25.2539 6.33398 23.2617 4.18555C21.1914 1.97852 18.4766 0.875 15.1172 0.875ZM15.4688 28.8535C15.4492 28.8926 15.4102 28.9316 15.3516 28.9707C15.3125 28.9316 15.2734 28.8926 15.2344 28.8535L14.7363 28.2969C13.9941 27.4375 13.418 26.7734 13.0078 26.3047C12.5977 25.8164 12.0215 25.1133 11.2793 24.1953C10.5371 23.2773 9.95117 22.5059 9.52148 21.8809C9.0918 21.2363 8.59375 20.4648 8.02734 19.5664C7.46094 18.6484 7.02148 17.8281 6.70898 17.1055C6.41602 16.3633 6.16211 15.5723 5.94727 14.7324C5.73242 13.873 5.625 13.0625 5.625 12.3008C5.625 10.6016 6.05469 9.01953 6.91406 7.55469C7.77344 6.07031 8.92578 4.89844 10.3711 4.03906C11.8359 3.17969 13.418 2.75 15.1172 2.75C16.6602 2.75 18.0371 3.02344 19.248 3.57031C20.459 4.09766 21.4258 4.82031 22.1484 5.73828C22.8906 6.65625 23.4473 7.67188 23.8184 8.78516C24.1895 9.89844 24.375 11.0703 24.375 12.3008C24.375 16.5195 21.4062 22.0371 15.4688 28.8535ZM15.0293 6.5293C14.4238 6.5293 13.8281 6.62695 13.2422 6.82227C12.6758 7.01758 12.1582 7.29102 11.6895 7.64258C11.2402 7.97461 10.8398 8.375 10.4883 8.84375C10.1367 9.3125 9.86328 9.83008 9.66797 10.3965C9.49219 10.9629 9.4043 11.5488 9.4043 12.1543C9.4043 13.7168 9.95117 15.0449 11.0449 16.1387C12.1582 17.2324 13.4863 17.7793 15.0293 17.7793C16.5918 17.7793 17.9199 17.2324 19.0137 16.1387C20.1074 15.0449 20.6543 13.7168 20.6543 12.1543C20.6543 11.3926 20.5078 10.6699 20.2148 9.98633C19.9219 9.2832 19.5215 8.6875 19.0137 8.19922C18.5059 7.69141 17.9004 7.29102 17.1973 6.99805C16.5137 6.68555 15.791 6.5293 15.0293 6.5293ZM15.0293 15.9043C13.9941 15.9043 13.1055 15.5332 12.3633 14.791C11.6211 14.0488 11.25 13.1602 11.25 12.125C11.25 11.0898 11.6113 10.2109 12.334 9.48828C13.0762 8.74609 13.9648 8.375 15 8.375C16.0352 8.375 16.9141 8.74609 17.6367 9.48828C18.3789 10.2109 18.75 11.0898 18.75 12.125C18.75 13.4141 18.2324 14.4395 17.1973 15.2012C16.5527 15.6699 15.8301 15.9043 15.0293 15.9043Z" transform="translate(181 102)" fill="#696057"/>
<path d="M15.1172 0.875C13.5938 0.875 12.1289 1.1875 10.7227 1.8125C9.33594 2.41797 8.13477 3.23828 7.11914 4.27344C6.10352 5.28906 5.2832 6.5 4.6582 7.90625C4.05273 9.3125 3.75 10.7773 3.75 12.3008C3.75 13.1602 3.86719 14.0586 4.10156 14.9961C4.33594 15.9336 4.60938 16.8027 4.92188 17.6035C5.23438 18.4043 5.68359 19.293 6.26953 20.2695C6.85547 21.2461 7.37305 22.0762 7.82227 22.7598C8.29102 23.4238 8.91602 24.2441 9.69727 25.2207C10.4785 26.1777 11.084 26.9102 11.5137 27.418C11.9434 27.9258 12.5488 28.6289 13.3301 29.5273C13.5645 29.8008 13.7402 29.9961 13.8574 30.1133C13.8965 30.1719 13.9648 30.2402 14.0625 30.3184C14.1602 30.416 14.3359 30.5332 14.5898 30.6699C14.8438 30.8066 15.0879 30.875 15.3223 30.875H15.4102C15.957 30.875 16.4453 30.6211 16.875 30.1133C23.125 22.9258 26.25 16.9883 26.25 12.3008C26.25 9.03906 25.2539 6.33398 23.2617 4.18555C21.1914 1.97852 18.4766 0.875 15.1172 0.875ZM15.4688 28.8535C15.4492 28.8926 15.4102 28.9316 15.3516 28.9707C15.3125 28.9316 15.2734 28.8926 15.2344 28.8535L14.7363 28.2969C13.9941 27.4375 13.418 26.7734 13.0078 26.3047C12.5977 25.8164 12.0215 25.1133 11.2793 24.1953C10.5371 23.2773 9.95117 22.5059 9.52148 21.8809C9.0918 21.2363 8.59375 20.4648 8.02734 19.5664C7.46094 18.6484 7.02148 17.8281 6.70898 17.1055C6.41602 16.3633 6.16211 15.5723 5.94727 14.7324C5.73242 13.873 5.625 13.0625 5.625 12.3008C5.625 10.6016 6.05469 9.01953 6.91406 7.55469C7.77344 6.07031 8.92578 4.89844 10.3711 4.03906C11.8359 3.17969 13.418 2.75 15.1172 2.75C16.6602 2.75 18.0371 3.02344 19.248 3.57031C20.459 4.09766 21.4258 4.82031 22.1484 5.73828C22.8906 6.65625 23.4473 7.67188 23.8184 8.78516C24.1895 9.89844 24.375 11.0703 24.375 12.3008C24.375 16.5195 21.4062 22.0371 15.4688 28.8535ZM15.0293 6.5293C14.4238 6.5293 13.8281 6.62695 13.2422 6.82227C12.6758 7.01758 12.1582 7.29102 11.6895 7.64258C11.2402 7.97461 10.8398 8.375 10.4883 8.84375C10.1367 9.3125 9.86328 9.83008 9.66797 10.3965C9.49219 10.9629 9.4043 11.5488 9.4043 12.1543C9.4043 13.7168 9.95117 15.0449 11.0449 16.1387C12.1582 17.2324 13.4863 17.7793 15.0293 17.7793C16.5918 17.7793 17.9199 17.2324 19.0137 16.1387C20.1074 15.0449 20.6543 13.7168 20.6543 12.1543C20.6543 11.3926 20.5078 10.6699 20.2148 9.98633C19.9219 9.2832 19.5215 8.6875 19.0137 8.19922C18.5059 7.69141 17.9004 7.29102 17.1973 6.99805C16.5137 6.68555 15.791 6.5293 15.0293 6.5293ZM15.0293 15.9043C13.9941 15.9043 13.1055 15.5332 12.3633 14.791C11.6211 14.0488 11.25 13.1602 11.25 12.125C11.25 11.0898 11.6113 10.2109 12.334 9.48828C13.0762 8.74609 13.9648 8.375 15 8.375C16.0352 8.375 16.9141 8.74609 17.6367 9.48828C18.3789 10.2109 18.75 11.0898 18.75 12.125C18.75 13.4141 18.2324 14.4395 17.1973 15.2012C16.5527 15.6699 15.8301 15.9043 15.0293 15.9043Z" transform="translate(144 143)" fill="#696057"/>
</svg>
