<svg width="389" height="250" viewBox="0 0 389 250" fill="none" xmlns="http://www.w3.org/2000/svg">
<g opacity="0.25">
<path d="M163 127.379V0.192517L81.1601 26.873L0 0V108.107L81.2212 135" transform="translate(68 134)" stroke="white" stroke-width="2"/>
<path d="M0 19.9738V0L58 38" transform="translate(90 120)" stroke="white" stroke-width="2"/>
<path fill-rule="evenodd" clip-rule="evenodd" d="M61.2497 30.6441C61.2497 47.5716 47.534 61.2901 30.6258 61.2901C13.7117 61.2901 0 47.5716 0 30.6441C0 13.7186 13.7117 0 30.6258 0C47.534 0 61.2497 13.7186 61.2497 30.6441Z" transform="translate(-26 53)" stroke="white" stroke-width="2"/>
<path fill-rule="evenodd" clip-rule="evenodd" d="M0 63.733C0 28.5338 28.5153 0 63.6866 0C98.86 0 127.373 28.5338 127.373 63.733H0Z" transform="translate(-59 128)" stroke="white" stroke-width="2"/>
<path fill-rule="evenodd" clip-rule="evenodd" d="M61.2497 30.6461C61.2497 47.5716 47.536 61.2921 30.6258 61.2921C13.7117 61.2921 0 47.5716 0 30.6461C0 13.7206 13.7117 0 30.6258 0C47.536 0 61.2497 13.7206 61.2497 30.6461Z" transform="translate(198)" stroke="white" stroke-width="2"/>
<path d="M0 63.733C0 28.5338 28.5153 0 63.6866 0C98.86 0 127.785 30.6401 127.785 68.0881" transform="translate(165 76)" stroke="white" stroke-width="2"/>
<path fill-rule="evenodd" clip-rule="evenodd" d="M61.2438 30.6441C61.2438 47.5716 47.5321 61.2901 30.6219 61.2901C13.7097 61.2901 0 47.5716 0 30.6441C0 13.7186 13.7097 0 30.6219 0C47.5321 0 61.2438 13.7186 61.2438 30.6441Z" transform="translate(292 53)" stroke="white" stroke-width="2"/>
<path fill-rule="evenodd" clip-rule="evenodd" d="M0 74.8365L63.653 0L127.304 74.8365H0Z" transform="translate(259 125)" stroke="white" stroke-width="2"/>
<path d="M0 73.1717V0H98.0371V214.524L203.09 179.355V71.0891L98.4644 105.108" transform="translate(51 76)" stroke="white" stroke-width="2"/>
<path fill-rule="evenodd" clip-rule="evenodd" d="M61.2438 30.6461C61.2438 47.5716 47.534 61.2921 30.6219 61.2921C13.7097 61.2921 0 47.5716 0 30.6461C0 13.7206 13.7097 0 30.6219 0C47.534 0 61.2438 13.7206 61.2438 30.6461Z" transform="translate(70)" stroke="white" stroke-width="2"/>
<path d="M0 0C0 0 20.1858 26.9818 49.5734 23.4027" transform="translate(303 60)" stroke="white" stroke-width="2"/>
<path d="M0 0C7.97344 7.73822 25.7243 20.9659 53.0409 19.7801" transform="translate(78 10)" stroke="white" stroke-width="2"/>
<path fill-rule="evenodd" clip-rule="evenodd" d="M0 0L30 20.5843L6.06351 34L0 0Z" transform="translate(353 84)" stroke="white" stroke-width="2"/>
</g>
</svg>
