<svg width="167" height="167" viewBox="0 0 167 167" fill="none" xmlns="http://www.w3.org/2000/svg">
<path fill-rule="evenodd" clip-rule="evenodd" d="M82.5 165C128.063 165 165 128.063 165 82.5C165 36.9365 128.063 0 82.5 0C36.9365 0 0 36.9365 0 82.5C0 128.063 36.9365 165 82.5 165Z" transform="translate(1 1)" stroke="#00AFAA" stroke-width="2"/>
<path d="M0 0V42.7781" transform="translate(129.847 83.8964)" stroke="#696057" stroke-width="2"/>
<path d="M0 0V42.7781H31.4707V6.14978H50.8403V42.7781" transform="translate(61.2139 83.8964)" stroke="#696057" stroke-width="2"/>
<path d="M0 42.0199L40.9464 0L81.8936 42.0199" transform="translate(54.583 48.2186)" stroke="#00AFAA" stroke-width="2"/>
<path d="M0 31L30.9992 0L62 31" transform="translate(31 59.0001)" stroke="#696057" stroke-width="2"/>
<path d="M0.00562713 19.5067V0H16.9184L13.3765 5.20014L16.9184 10.2229L0 10.6548" transform="translate(62.0449 40.4241)" stroke="#00AFAA" stroke-width="2"/>
<path fill-rule="evenodd" clip-rule="evenodd" d="M0 8H8V0H0V8Z" transform="translate(72 92)" stroke="#00AFAA" stroke-width="2"/>
<path fill-rule="evenodd" clip-rule="evenodd" d="M0 8H8V0H0V8Z" transform="translate(72 106)" stroke="#00AFAA" stroke-width="2"/>
<path fill-rule="evenodd" clip-rule="evenodd" d="M0 8H8V0H0V8Z" transform="translate(42 92)" stroke="#00AFAA" stroke-width="2"/>
<path fill-rule="evenodd" clip-rule="evenodd" d="M0 8H8V0H0V8Z" transform="translate(42 106)" stroke="#00AFAA" stroke-width="2"/>
</svg>
