<svg width="14" height="13" viewBox="0 0 14 13" fill="none" xmlns="http://www.w3.org/2000/svg">
<path d="M11.9062 11.1055L8.26172 7.4375C8.98828 6.57031 9.35156 5.57031 9.35156 4.4375C9.35156 3.58594 9.14062 2.80078 8.71875 2.08203C8.30469 1.36328 7.73438 0.796875 7.00781 0.382812C6.28906 -0.0390625 5.50391 -0.25 4.65234 -0.25C3.80859 -0.25 3.02734 -0.0390625 2.30859 0.382812C1.58984 0.796875 1.01953 1.36328 0.597656 2.08203C0.183594 2.80078 -0.0234375 3.58594 -0.0234375 4.4375C-0.0234375 5.28906 0.183594 6.07422 0.597656 6.79297C1.01953 7.51172 1.58984 8.08203 2.30859 8.50391C3.02734 8.91797 3.8125 9.125 4.66406 9.125C5.82812 9.125 6.85156 8.74219 7.73438 7.97656L11.3672 11.6328C11.4453 11.7109 11.5352 11.75 11.6367 11.75C11.7383 11.75 11.8242 11.7109 11.8945 11.6328C11.9727 11.5625 12.0117 11.4727 12.0117 11.3633C12.0117 11.2617 11.9766 11.1758 11.9062 11.1055ZM4.66406 8.38672C3.94531 8.38672 3.28125 8.21094 2.67188 7.85938C2.07031 7.5 1.59375 7.01953 1.24219 6.41797C0.890625 5.80859 0.714844 5.14844 0.714844 4.4375C0.714844 3.72656 0.890625 3.07031 1.24219 2.46875C1.59375 1.85938 2.07031 1.37891 2.67188 1.02734C3.28125 0.667969 3.94141 0.488281 4.65234 0.488281C5.37109 0.488281 6.03125 0.667969 6.63281 1.02734C7.24219 1.37891 7.72266 1.85938 8.07422 2.46875C8.42578 3.07031 8.60156 3.72656 8.60156 4.4375C8.60156 4.74219 8.56641 5.04297 8.49609 5.33984C8.42578 5.63672 8.32422 5.91406 8.19141 6.17188C8.06641 6.42969 7.91406 6.67578 7.73438 6.91016C7.55469 7.13672 7.35156 7.33984 7.125 7.51953C6.89844 7.69922 6.65625 7.85547 6.39844 7.98828C6.14062 8.11328 5.86328 8.21094 5.56641 8.28125C5.26953 8.35156 4.96875 8.38672 4.66406 8.38672Z" transform="translate(1 1)" fill="#00AFAA"/>
</svg>
