<svg width="17" height="17" viewBox="0 0 17 17" fill="none" xmlns="http://www.w3.org/2000/svg">
<path d="M8.34375 15.3281C8.27083 15.401 8.22396 15.4792 8.20312 15.5625C8.18229 15.6458 8.18229 15.7344 8.20312 15.8281C8.22396 15.9115 8.27083 15.9844 8.34375 16.0469C8.38542 16.0885 8.4375 16.125 8.5 16.1562C8.5625 16.1771 8.625 16.1875 8.6875 16.1875C8.82292 16.1875 8.94271 16.1406 9.04688 16.0469L12 13.0156L9.04688 9.98438C8.94271 9.88021 8.82292 9.82812 8.6875 9.82812C8.55208 9.82812 8.4375 9.88021 8.34375 9.98438C8.30208 10.0156 8.27083 10.0521 8.25 10.0938C8.22917 10.125 8.21354 10.1615 8.20312 10.2031C8.19271 10.2448 8.1875 10.2865 8.1875 10.3281C8.1875 10.3698 8.19271 10.4115 8.20312 10.4531C8.21354 10.4948 8.22917 10.5365 8.25 10.5781C8.27083 10.6198 8.30208 10.6562 8.34375 10.6875L10.1406 12.5H0.515625C0.380208 12.5 0.260417 12.5469 0.15625 12.6406C0.0625 12.7344 0.015625 12.8542 0.015625 13C0.015625 13.1354 0.0625 13.2552 0.15625 13.3594C0.260417 13.4531 0.380208 13.5 0.515625 13.5H10.1719L8.34375 15.3281ZM15.0156 5H6.01562C5.83854 5 5.67188 5.04688 5.51562 5.14062C5.35938 5.22396 5.23438 5.34375 5.14062 5.5C5.05729 5.65625 5.01562 5.82292 5.01562 6V10.5H6.03125V6.60938C6.03125 6.50521 6.05729 6.40625 6.10938 6.3125C6.16146 6.21875 6.23438 6.14583 6.32812 6.09375C6.42188 6.03125 6.52083 6 6.625 6H14.3906C14.5573 6 14.6979 6.0625 14.8125 6.1875C14.9375 6.30208 15 6.44271 15 6.60938L15.0156 19.3906C15.0156 19.5573 14.9531 19.7031 14.8281 19.8281C14.7135 19.9427 14.5729 20 14.4062 20H6.625C6.45833 20 6.31771 19.9427 6.20312 19.8281C6.08854 19.7031 6.03125 19.5573 6.03125 19.3906V15.4844H5.01562V20C5.01562 20.2812 5.11458 20.5156 5.3125 20.7031C5.51042 20.901 5.74479 21 6.01562 21H15.0156C15.2969 21 15.5312 20.901 15.7188 20.7031C15.9167 20.5156 16.0156 20.2812 16.0156 20V6C16.0156 5.59375 15.8333 5.29688 15.4688 5.10938C15.3229 5.03646 15.1719 5 15.0156 5Z" transform="translate(0 -4.5)" fill="white"/>
</svg>
