<svg width="359" height="35" viewBox="0 0 359 35" fill="none" xmlns="http://www.w3.org/2000/svg">
<path fill-rule="evenodd" clip-rule="evenodd" d="M237.751 33.8935H239V0H237.751V33.8935ZM130.627 24.1407H119.679V1.24573H109.484L109.482 26.5139L117.201 34H140.818V1.24573H130.627V24.1407ZM92.1347 22.1083C90.7936 23.8757 88.9079 24.8659 86.3998 24.8659C81.5419 24.8659 78.5903 21.3251 78.5903 17C78.5903 12.6784 81.5419 9.14001 86.3998 9.14001C88.9079 9.14001 90.7936 10.1184 92.1347 11.8894V22.1083ZM90.9395 3.74898V3.74779C88.5666 1.4764 85.576 0.0934448 82.3151 0.0934448C74.6226 0.0934448 68.3979 7.67424 68.3979 17C68.3979 26.3234 74.6226 33.8935 82.3151 33.8935C85.576 33.8935 88.5666 32.5224 90.9395 30.2545V30.2474L94.1566 33.3694V33.3742H102.324V0.621072H94.1566L90.9395 3.74898ZM23.74 22.1083C22.3988 23.8757 20.5095 24.8659 18.0038 24.8659C13.1483 24.8659 10.1919 21.3251 10.1919 17C10.1919 12.6784 13.1483 9.14001 18.0038 9.14001C20.5095 9.14001 22.3988 10.1184 23.74 11.8894V22.1083ZM22.544 3.74898V3.74779C20.1735 1.4764 17.1781 0.0934448 13.922 0.0934448C6.23075 0.0934448 0 7.67424 0 17C0 26.3234 6.23075 33.8935 13.922 33.8935C17.1781 33.8935 20.1735 32.5224 22.544 30.2545V30.2474L25.7659 33.3742H33.925V0.621072H25.7586L22.544 3.74898ZM51.1506 6.7728V0.621094H40.9609V33.3742H51.1506V10.4437H65.8474V0.621094H57.4715L51.1506 6.7728ZM164.995 9.127C168.024 9.127 170.479 10.7714 171.64 13.4024L178.751 6.49242C175.544 2.5991 170.584 0.0958252 164.992 0.0958252C155.252 0.0958252 147.436 7.70028 147.436 16.9965C147.436 26.3009 155.252 33.8935 164.992 33.8935C170.586 33.8935 175.544 31.3914 178.751 27.4993L171.64 20.5881C170.483 23.218 168.024 24.8647 164.995 24.8647C160.752 24.8647 157.629 21.6315 157.629 16.9965C157.629 12.359 160.752 9.127 164.995 9.127ZM199.641 24.8647C195.397 24.8647 192.273 21.6315 192.273 16.9965C192.273 12.359 195.397 9.12701 199.641 9.12701C203.885 9.12701 207.004 12.359 207.004 16.9965C207.004 21.6315 203.885 24.8647 199.641 24.8647ZM199.641 0.0958252C189.899 0.0958252 182.083 7.70028 182.083 16.9965C182.083 26.3009 189.899 33.8935 199.641 33.8935C209.384 33.8935 217.198 26.3009 217.198 16.9965C217.198 7.70028 209.384 0.0958252 199.641 0.0958252Z" fill="#696057"/>
<path fill-rule="evenodd" clip-rule="evenodd" d="M99.2377 32.0361V20.4513H97.3008V32.0361C97.3008 32.4865 97.3213 33.1191 97.6294 33.6714C98.0222 34.3866 98.7846 34.7125 100 34.7125V32.6495C99.2583 32.6495 99.2377 32.5884 99.2377 32.0361ZM92.9907 32.2422C92.4747 32.7106 91.7739 32.9765 90.7239 32.9765C89.7971 32.9765 89.1978 32.3021 89.1978 31.7713C89.1978 31.2191 89.7971 30.4643 90.7239 30.4643H92.3926C92.6185 30.4643 92.8046 30.4427 92.9907 30.402V32.2422ZM95.0919 27.5004C95.0919 25.7429 93.3616 24.497 91.4658 24.497C89.9602 24.497 88.1272 25.0493 87.3429 27.2153L89.3633 27.8071C89.7971 26.7038 90.661 26.5205 91.4658 26.5205C92.4143 26.5205 92.9907 27.0512 92.9907 27.5004V28.3786C92.8457 28.4612 92.6813 28.5427 92.3925 28.5427H90.7238C88.7857 28.5427 87.0977 29.9719 87.0977 31.7714C87.0977 33.5696 88.8074 34.9173 90.7238 34.9173C91.734 34.9173 92.6185 34.6717 93.2577 34.3663L93.4232 34.897L95.4424 34.3243L95.0919 33.2222V27.5004ZM81.2204 24.6396C80.5196 24.6396 79.8393 24.8037 79.2424 25.0888V24.7821H77.1387V34.7125H79.2424V27.97C79.304 27.7244 79.3862 27.5208 79.4877 27.3579C79.7982 26.8679 80.3951 26.5204 81.2204 26.5204C82.1049 26.5204 82.7042 26.8259 82.9713 27.2153C83.2806 27.6442 83.3434 28.2767 83.3434 28.9931V34.7125H85.4435V28.9931C85.4435 28.1342 85.3819 27.0308 84.7427 26.1119C84.0032 25.0493 82.6837 24.6396 81.2204 24.6396ZM72.7474 32.0361C72.4369 32.5477 71.7796 32.8951 70.8503 32.8951C69.9429 32.8951 69.3049 32.5477 68.9762 32.0361C68.6246 31.485 68.563 30.5649 68.563 29.7683C68.563 28.9117 68.6246 28.0311 68.9762 27.4801C69.2844 26.9697 69.9429 26.6426 70.8503 26.6426C71.7796 26.6426 72.4369 26.9697 72.7474 27.4801C73.0978 28.012 73.1583 28.9117 73.1583 29.7683C73.1583 30.5458 73.0978 31.485 72.7474 32.0361ZM70.8719 24.6204C69.3047 24.6204 67.903 25.2529 67.1611 26.4378C66.5219 27.4597 66.4409 28.8087 66.4409 29.7683C66.4409 30.6476 66.5038 32.0361 67.1611 33.0999C67.903 34.2632 69.3252 34.9173 70.8719 34.897C72.4366 34.897 73.8178 34.2632 74.5597 33.0999C75.2194 32.0361 75.281 30.6476 75.281 29.7479C75.281 28.7883 75.1989 27.4597 74.5597 26.4378C73.7972 25.2529 72.4366 24.6204 70.8719 24.6204ZM62.1938 34.7125H64.3145V24.6192H62.1938V34.7125ZM63.2645 19.9398C62.5636 19.9398 62.0078 20.492 62.0078 21.1857C62.0078 21.8805 62.5636 22.4328 63.2645 22.4328C63.9653 22.4328 64.5211 21.8805 64.5211 21.1857C64.5211 20.492 63.9653 19.9398 63.2645 19.9398ZM56.1737 26.4378C56.935 26.4378 57.3893 26.6019 58.5022 27.7867L60.0476 26.4378C58.5638 24.8648 57.6153 24.4754 56.1737 24.4754C53.2459 24.4754 51.5156 26.6642 51.5156 29.6868C51.5156 32.6902 53.2459 34.8766 56.1737 34.8766C57.6153 34.8766 58.5638 34.4896 60.0476 32.9358L58.5022 31.588C57.3893 32.7525 56.935 32.9154 56.1737 32.9154C55.3074 32.9154 54.6476 32.6088 54.2162 31.9954C53.8441 31.5066 53.6785 30.8117 53.6785 29.6868C53.6785 28.5427 53.8441 27.8478 54.2162 27.3579C54.6476 26.7648 55.3074 26.4378 56.1737 26.4378ZM47.6176 32.2422C47.1017 32.7106 46.4021 32.9765 45.3496 32.9765C44.4216 32.9765 43.8247 32.3021 43.8247 31.7713C43.8247 31.2191 44.4216 30.4643 45.3496 30.4643H47.0207C47.2455 30.4643 47.4316 30.4427 47.6176 30.402V32.2422ZM49.7191 27.5004C49.7191 25.7429 47.9876 24.497 46.0929 24.497C44.5874 24.497 42.7531 25.0493 41.9701 27.2153L43.9905 27.8071C44.4218 26.7038 45.2882 26.5205 46.0929 26.5205C47.0415 26.5205 47.6179 27.0512 47.6179 27.5004V28.3786C47.4741 28.4612 47.3085 28.5427 47.0209 28.5427H45.3498C43.4129 28.5427 41.7236 29.9719 41.7236 31.7714C41.7236 33.5696 43.4334 34.9173 45.3498 34.9173C46.3612 34.9173 47.2457 34.6717 47.8849 34.3663L48.0504 34.897L50.0696 34.3243L49.7191 33.2222V27.5004ZM36.4047 26.4378C37.1647 26.4378 37.6191 26.6019 38.7319 27.7867L40.2786 26.4378C38.7935 24.8648 37.845 24.4754 36.4047 24.4754C33.4769 24.4754 31.7466 26.6642 31.7466 29.6868C31.7466 32.6902 33.4769 34.8766 36.4047 34.8766C37.845 34.8766 38.7935 34.4896 40.2786 32.9358L38.7319 31.588C37.6191 32.7525 37.1647 32.9154 36.4047 32.9154C35.5383 32.9154 34.8786 32.6088 34.446 31.9954C34.0738 31.5066 33.9083 30.8117 33.9083 29.6868C33.9083 28.5427 34.0738 27.8478 34.446 27.3579C34.8786 26.7648 35.5383 26.4378 36.4047 26.4378ZM27.7856 31.3628C27.7856 32.3021 26.5905 32.8124 25.8076 32.8124C24.0748 32.8124 23.6845 32.0984 23.6845 30.5458V24.6204H21.582V30.5458C21.582 33.2832 22.9209 34.8766 25.8076 34.8766C26.4866 34.8766 27.1669 34.6717 27.7856 34.3866V34.7125H29.8881V24.6204H27.7856V31.3628ZM17.3336 31.0765C17.2925 31.4443 17.2103 31.751 17.0883 31.975C16.7778 32.5069 16.1808 32.834 15.3556 32.834C14.5303 32.834 13.9334 32.4866 13.6252 31.975C13.2736 31.3832 13.212 30.5051 13.2325 29.6868C13.2325 28.8087 13.2954 27.9701 13.6252 27.3986C13.9334 26.8883 14.5303 26.5408 15.3556 26.5408C16.1808 26.5408 16.7778 26.8883 17.0883 27.3986C17.2103 27.6226 17.2925 27.9293 17.3336 28.2983V31.0765ZM19.4563 20.4513H17.3332V24.9055C16.7363 24.6204 16.056 24.4754 15.3552 24.4754C13.8291 24.4754 12.5108 25.1295 11.7906 26.3767C11.1732 27.4189 11.1104 28.6852 11.1104 29.6868C11.1104 30.6069 11.1732 31.9343 11.7906 33.0173C12.5108 34.2237 13.8291 34.897 15.3552 34.9173C16.1805 34.9173 16.9429 34.7125 17.6027 34.3243L17.8069 35L19.8272 34.407L19.4563 33.1814V20.4513ZM0 34.7125H9.5615V32.6087H2.16291V28.3594H8.63471V26.397H2.16291V22.5562H9.5615V20.4513H0V34.7125ZM78.8095 8.03028C78.8711 7.78469 78.9533 7.58102 79.056 7.4169C79.3653 6.92691 79.9635 6.57948 80.7876 6.57948C81.6721 6.57948 82.2714 6.88618 82.5384 7.27433C82.849 7.70322 82.9106 8.33697 82.9106 9.05099V14.7727H85.0119V9.05099C85.0119 8.19441 84.949 7.08984 84.311 6.16976C83.5703 5.10832 82.2508 4.6998 80.7876 4.6998C80.0867 4.6998 79.4064 4.86273 78.8095 5.14905V4.84236H76.707V14.7727H78.8095V8.03028ZM68.5424 7.54029C68.8505 7.02874 69.509 6.70288 70.4165 6.70288C71.3457 6.70288 72.003 7.02874 72.3124 7.54029C72.664 8.07101 72.7244 8.97072 72.7244 9.8285C72.7244 10.6048 72.664 11.5453 72.3124 12.0951C72.003 12.6067 71.3457 12.9541 70.4165 12.9541C69.509 12.9541 68.871 12.6067 68.5424 12.0951C68.1908 11.5453 68.1279 10.6252 68.1279 9.8285C68.1279 8.97072 68.1908 8.09138 68.5424 7.54029ZM70.4383 14.956C72.003 14.956 73.3842 14.3235 74.1261 13.159C74.7858 12.0952 74.8475 10.7067 74.8475 9.80695C74.8475 8.84853 74.7653 7.51874 74.1261 6.49803C73.3624 5.312 72.003 4.67944 70.4383 4.67944C68.8711 4.67944 67.4694 5.312 66.7275 6.49803C66.0883 7.51874 66.0073 8.8677 66.0073 9.82851C66.0073 10.7067 66.0689 12.0952 66.7275 13.159C67.4694 14.3235 68.8916 14.9776 70.4383 14.956ZM72.8693 0.654114H70.5203L68.7876 3.63717H70.4793L72.8693 0.654114ZM62.8331 2.49307C63.5339 2.49307 64.0897 1.94078 64.0897 1.24594C64.0897 0.551087 63.5339 0 62.8331 0C62.1322 0 61.5752 0.551087 61.5752 1.24594C61.5752 1.94078 62.1322 2.49307 62.8331 2.49307ZM61.7612 14.7727H63.8831V4.67944H61.7612V14.7727ZM55.7401 14.9368C57.1817 14.9368 58.1302 14.5475 59.614 12.9949L58.0674 11.6471C56.9557 12.8116 56.5014 12.9745 55.7401 12.9745C54.8738 12.9745 54.214 12.6678 53.7814 12.0544C53.4105 11.5644 53.2449 10.8708 53.2449 9.74704C53.2449 8.60174 53.4105 7.90689 53.7814 7.4169C54.214 6.82388 54.8738 6.49802 55.7401 6.49802C56.5014 6.49802 56.9557 6.66095 58.0674 7.84699L59.614 6.49802C58.1302 4.92383 57.1817 4.53568 55.7401 4.53568C52.8136 4.53568 51.082 6.72325 51.082 9.74704C51.082 12.7493 52.8136 14.9368 55.7401 14.9368ZM47.185 12.3C46.6691 12.7708 45.9682 13.0368 44.9182 13.0368C43.9914 13.0368 43.3921 12.3611 43.3921 11.8304C43.3921 11.2793 43.9914 10.5234 44.9182 10.5234H46.5881C46.8141 10.5234 47.0002 10.5018 47.185 10.4611V12.3ZM46.5883 8.60175H44.9184C42.9815 8.60175 41.291 10.0334 41.291 11.8304C41.291 13.6286 43.0008 14.9776 44.9184 14.9776C45.9286 14.9776 46.8143 14.732 47.4523 14.4253L47.6178 14.956L49.6381 14.3846L49.2865 13.2824V7.55948C49.2865 5.80319 47.5562 4.55725 45.6603 4.55725C44.156 4.55725 42.3217 5.10834 41.5387 7.27435L43.5578 7.86617C43.9916 6.7628 44.8568 6.5795 45.6603 6.5795C46.6089 6.5795 47.1852 7.11022 47.1852 7.55948V8.43882C47.0414 8.52028 46.8759 8.60175 46.5883 8.60175ZM33.6411 7.45763C33.9492 6.94728 34.5474 6.59985 35.3726 6.59985C36.1967 6.59985 36.7948 6.94728 37.1042 7.45763C37.2262 7.68286 37.3096 7.98955 37.3507 8.35734V11.1367C37.3096 11.5033 37.2262 11.81 37.1042 12.0352C36.7948 12.566 36.1967 12.893 35.3726 12.893C34.5474 12.893 33.9492 12.5456 33.6411 12.0352C33.2907 11.4422 33.2291 10.5641 33.2496 9.74704C33.2496 8.86769 33.3112 8.03028 33.6411 7.45763ZM35.3728 14.9776C36.1969 14.9776 36.9593 14.7727 37.6191 14.3846L37.8245 15.0591L39.8436 14.466L39.4739 13.2417V0.511566H37.3508V4.96459C36.7539 4.67946 36.0736 4.5357 35.3728 4.5357C33.8467 4.5357 32.5284 5.18981 31.8082 6.43575C31.1883 7.47802 31.1279 8.74552 31.1279 9.74706C31.1279 10.6659 31.1883 11.9945 31.8082 13.0775C32.5284 14.2827 33.8467 14.956 35.3728 14.9776ZM23.2724 8.03028C23.3352 7.78469 23.4174 7.58102 23.5189 7.4169C23.8282 6.92691 24.4264 6.57948 25.2517 6.57948C26.1362 6.57948 26.7355 6.88618 27.0025 7.27433C27.3119 7.70322 27.3747 8.33697 27.3747 9.05099V14.7727H29.4748V9.05099C29.4748 8.19441 29.4131 7.08984 28.7739 6.16976C28.0332 5.10832 26.7149 4.6998 25.2517 4.6998C24.5496 4.6998 23.8693 4.86273 23.2724 5.14905V4.84236H21.1699V14.7727H23.2724V8.03028ZM14.8202 14.9368C15.5005 14.9368 16.1808 14.732 16.7983 14.4457V14.7727H18.9008V4.67944H16.7983V11.4219C16.7983 12.3611 15.6032 12.8727 14.8202 12.8727C13.0887 12.8727 12.6972 12.1575 12.6972 10.6048V4.67944H10.5947V10.6048C10.5947 13.3423 11.9348 14.9368 14.8202 14.9368ZM2.16291 8.41726H8.61417V6.45612H2.16291V2.61528H9.35487V0.511566H0V14.7727H2.16291V8.41726Z" transform="translate(259)" fill="#00AFAA"/>
</svg>
