<svg width="14" height="15" viewBox="0 0 14 15" fill="none" xmlns="http://www.w3.org/2000/svg">
<path d="M2.59961 8.3125H10.1738C10.3014 8.3125 10.4062 8.27148 10.4883 8.18945C10.5703 8.09831 10.6113 7.99349 10.6113 7.875C10.6113 7.7474 10.5703 7.64258 10.4883 7.56055C10.4062 7.47852 10.3014 7.4375 10.1738 7.4375H2.62695L4.21289 5.85156C4.29492 5.76953 4.33594 5.66927 4.33594 5.55078C4.33594 5.42318 4.29492 5.31836 4.21289 5.23633C4.14909 5.18164 4.08073 5.14518 4.00781 5.12695C3.9349 5.09961 3.85742 5.09961 3.77539 5.12695C3.70247 5.14518 3.63867 5.18164 3.58398 5.23633L1 7.88867L3.58398 10.541C3.62956 10.5775 3.67969 10.6094 3.73438 10.6367C3.78906 10.6549 3.84375 10.6641 3.89844 10.6641C4.01693 10.6641 4.12174 10.623 4.21289 10.541C4.24023 10.5137 4.26302 10.4818 4.28125 10.4453C4.29948 10.4089 4.31315 10.3724 4.32227 10.3359C4.33138 10.2995 4.33594 10.263 4.33594 10.2266C4.33594 10.1901 4.33138 10.1536 4.32227 10.1172C4.31315 10.0807 4.29948 10.0443 4.28125 10.0078C4.26302 9.97135 4.24023 9.93945 4.21289 9.91211L2.59961 8.3125ZM14.125 0.875H6.6875C6.44141 0.875 6.23177 0.961589 6.05859 1.13477C5.89453 1.29883 5.8125 1.50391 5.8125 1.75V5.6875H6.6875V2.2832C6.6875 2.19206 6.71029 2.10547 6.75586 2.02344C6.80143 1.94141 6.86523 1.8776 6.94727 1.83203C7.0293 1.77734 7.12044 1.75 7.2207 1.75H13.5781C13.724 1.75 13.847 1.80469 13.9473 1.91406C14.0475 2.01432 14.0977 2.13737 14.0977 2.2832L14.1113 13.4668C14.1113 13.6126 14.0612 13.7402 13.9609 13.8496C13.8607 13.9499 13.7376 14 13.5918 14H7.2207C7.07487 14 6.94727 13.9499 6.83789 13.8496C6.73763 13.7402 6.6875 13.6126 6.6875 13.4668V10.0488H5.8125V14C5.8125 14.2461 5.89453 14.4512 6.05859 14.6152C6.23177 14.7884 6.44141 14.875 6.6875 14.875H14.125C14.1797 14.875 14.2344 14.8659 14.2891 14.8477C14.3529 14.8385 14.4076 14.8249 14.4531 14.8066C14.5078 14.7884 14.5579 14.7611 14.6035 14.7246C14.6582 14.6973 14.7038 14.6608 14.7402 14.6152C14.7767 14.5788 14.8086 14.5378 14.8359 14.4922C14.8724 14.4466 14.8997 14.3965 14.918 14.3418C14.9453 14.2871 14.9635 14.2324 14.9727 14.1777C14.9909 14.123 15 14.0638 15 14V1.75C15 1.39453 14.8405 1.13477 14.5215 0.970703C14.3939 0.906901 14.2617 0.875 14.125 0.875Z" transform="translate(-1)" fill="#00AFAA"/>
</svg>
