<svg width="13" height="9" viewBox="0 0 13 9" fill="none" xmlns="http://www.w3.org/2000/svg">
<path d="M12 2.46875C12.0078 2.44531 12.0117 2.42188 12.0117 2.39844C12.0117 2.375 12.0078 2.35156 12 2.32812C11.9922 2.30469 11.9844 2.28125 11.9766 2.25781C11.8828 1.83594 11.582 1.625 11.0742 1.625H1.32422C1.08984 1.625 0.863281 1.66797 0.644531 1.75391C0.433594 1.83984 0.273438 1.95703 0.164062 2.10547C0.140625 2.12891 0.121094 2.14844 0.105469 2.16406C0.0273438 2.25 0 2.35156 0.0234375 2.46875C0.015625 2.48438 0.0117188 2.5 0.0117188 2.51562C0.0117188 2.53125 0.0117188 2.54687 0.0117188 2.5625V8.5625C0.0117188 8.875 0.152344 9.17188 0.433594 9.45312C0.714844 9.73438 1.01172 9.875 1.32422 9.875H11.0742C11.3633 9.875 11.5898 9.74219 11.7539 9.47656C11.9258 9.21094 12.0117 8.90625 12.0117 8.5625V2.5625C12.0117 2.55469 12.0117 2.54687 12.0117 2.53906C12.0117 2.52344 12.0117 2.51172 12.0117 2.50391C12.0117 2.48828 12.0078 2.47656 12 2.46875ZM1.32422 2.375H11.0742L6.01172 6.41797L0.960938 2.38672C1.02344 2.37891 1.14453 2.375 1.32422 2.375ZM11.0742 9.125H1.32422C1.25391 9.125 1.17188 9.09375 1.07812 9.03125C0.992188 8.96875 0.917969 8.89453 0.855469 8.80859C0.792969 8.71484 0.761719 8.63281 0.761719 8.5625V3.19531L5.76562 7.19141C5.83594 7.25391 5.91797 7.28516 6.01172 7.28516C6.10547 7.27734 6.1875 7.24609 6.25781 7.19141L11.2617 3.19531V8.5625C11.2617 8.57031 11.2617 8.58594 11.2617 8.60938C11.2617 8.95312 11.1992 9.125 11.0742 9.125Z" transform="translate(0 -1)" fill="#00AFAA"/>
</svg>
