<svg width="13" height="13" viewBox="0 0 13 13" fill="none" xmlns="http://www.w3.org/2000/svg">
<path d="M11.168 -0.226562L6.21094 1.10938C6.17969 1.11719 6.14062 1.125 6.09375 1.13281C6.04688 1.13281 5.99609 1.13281 5.94141 1.13281C5.89453 1.13281 5.84766 1.13281 5.80078 1.13281C5.75391 1.125 5.71484 1.11719 5.68359 1.10938L0.855469 -0.226562C0.636719 -0.289063 0.441406 -0.253906 0.269531 -0.121094C0.0976562 0.0117188 0.0117188 0.1875 0.0117188 0.40625V9.52344C0.0117188 9.71094 0.0742188 9.88672 0.199219 10.0508C0.324219 10.207 0.476562 10.3125 0.65625 10.3672L5.48438 11.7031C5.61719 11.7422 5.77344 11.7617 5.95312 11.7617C6.02344 11.7617 6.09766 11.7578 6.17578 11.75C6.26172 11.7422 6.33984 11.7266 6.41016 11.7031L11.3672 10.3555C11.5469 10.3086 11.6992 10.207 11.8242 10.0508C11.9492 9.88672 12.0117 9.71094 12.0117 9.52344V0.40625C12.0117 0.1875 11.9258 0.0117188 11.7539 -0.121094C11.582 -0.253906 11.3867 -0.289063 11.168 -0.226562ZM5.63672 10.9648L0.84375 9.64062C0.828125 9.63281 0.808594 9.61719 0.785156 9.59375C0.769531 9.57031 0.761719 9.54688 0.761719 9.52344V0.523438L5.48438 1.83594C5.50781 1.83594 5.53125 1.83984 5.55469 1.84766C5.57812 1.85547 5.60547 1.85938 5.63672 1.85938V10.9648ZM11.2617 9.52344C11.2617 9.53906 11.25 9.5625 11.2266 9.59375C11.2031 9.61719 11.1836 9.63281 11.168 9.64062L6.38672 10.9297V1.83594C6.39453 1.83594 6.40234 1.83594 6.41016 1.83594L11.2617 0.523438V9.52344ZM7.53516 4.03906C7.57422 4.03906 7.60938 4.03516 7.64062 4.02734L10.2656 3.28906C10.3594 3.25781 10.4297 3.19922 10.4766 3.11328C10.5312 3.01953 10.5469 2.92578 10.5234 2.83203C10.5 2.76172 10.4648 2.70312 10.418 2.65625C10.3711 2.60938 10.3164 2.57813 10.2539 2.5625C10.1914 2.54687 10.125 2.54687 10.0547 2.5625L7.42969 3.30078C7.33594 3.33203 7.26172 3.39453 7.20703 3.48828C7.16016 3.57422 7.14844 3.66797 7.17188 3.76953C7.23438 3.94141 7.35547 4.03125 7.53516 4.03906ZM7.53516 6.28906C7.57422 6.28906 7.60938 6.28516 7.64062 6.27734L10.2656 5.53906C10.3594 5.50781 10.4297 5.44922 10.4766 5.36328C10.5312 5.26953 10.543 5.17578 10.5117 5.08203C10.4883 4.98047 10.4297 4.90625 10.3359 4.85938C10.25 4.80469 10.1562 4.78906 10.0547 4.8125L7.42969 5.55078C7.33594 5.58203 7.26172 5.64453 7.20703 5.73828C7.16016 5.82422 7.14844 5.91797 7.17188 6.01953C7.23438 6.19141 7.35547 6.28125 7.53516 6.28906ZM7.53516 8.53906C7.55078 8.53906 7.56641 8.53906 7.58203 8.53906C7.60547 8.53906 7.625 8.53516 7.64062 8.52734L10.2656 7.78906C10.3594 7.75781 10.4297 7.69922 10.4766 7.61328C10.5312 7.51953 10.543 7.42578 10.5117 7.33203C10.4883 7.23047 10.4297 7.15625 10.3359 7.10938C10.25 7.05469 10.1562 7.03906 10.0547 7.0625L7.42969 7.80078C7.33594 7.83203 7.26172 7.89453 7.20703 7.98828C7.16016 8.07422 7.14844 8.16797 7.17188 8.26953C7.23438 8.44141 7.35547 8.53125 7.53516 8.53906ZM4.64062 3.30078L2.01562 2.5625C1.96094 2.55469 1.91016 2.55469 1.86328 2.5625C1.81641 2.57031 1.76953 2.58594 1.72266 2.60938C1.68359 2.625 1.64844 2.65234 1.61719 2.69141C1.58594 2.73047 1.5625 2.77734 1.54688 2.83203C1.52344 2.92578 1.53516 3.01953 1.58203 3.11328C1.63672 3.19922 1.71094 3.25781 1.80469 3.28906L4.42969 4.02734C4.44531 4.03516 4.46094 4.03906 4.47656 4.03906C4.5 4.03906 4.51953 4.03906 4.53516 4.03906C4.58984 4.03906 4.64062 4.03125 4.6875 4.01562C4.74219 3.99219 4.78516 3.96094 4.81641 3.92188C4.85547 3.875 4.88281 3.82422 4.89844 3.76953C4.94531 3.58984 4.89062 3.44922 4.73438 3.34766C4.69531 3.33203 4.66406 3.31641 4.64062 3.30078ZM4.64062 5.55078L2.01562 4.8125C1.94531 4.79688 1.87891 4.79688 1.81641 4.8125C1.75391 4.82812 1.69922 4.85938 1.65234 4.90625C1.60547 4.95312 1.57031 5.01172 1.54688 5.08203C1.53906 5.12109 1.53516 5.16016 1.53516 5.19922C1.53516 5.23828 1.54297 5.27734 1.55859 5.31641C1.57422 5.34766 1.59375 5.37891 1.61719 5.41016C1.64062 5.44141 1.66797 5.46875 1.69922 5.49219C1.73047 5.51562 1.76562 5.53125 1.80469 5.53906L4.42969 6.27734C4.46094 6.28516 4.49609 6.28906 4.53516 6.28906C4.62109 6.28906 4.69531 6.26562 4.75781 6.21875C4.82812 6.16406 4.875 6.09766 4.89844 6.01953C4.94531 5.83984 4.89062 5.69922 4.73438 5.59766C4.69531 5.58203 4.66406 5.56641 4.64062 5.55078ZM4.64062 7.80078L2.01562 7.0625C1.91406 7.03906 1.81641 7.05469 1.72266 7.10938C1.63672 7.15625 1.57812 7.23047 1.54688 7.33203C1.53906 7.37109 1.53516 7.41016 1.53516 7.44922C1.53516 7.48828 1.54297 7.52734 1.55859 7.56641C1.57422 7.59766 1.59375 7.62891 1.61719 7.66016C1.64062 7.69141 1.66797 7.71875 1.69922 7.74219C1.73047 7.76562 1.76562 7.78125 1.80469 7.78906L4.42969 8.52734C4.46875 8.53516 4.50391 8.53906 4.53516 8.53906C4.62109 8.53906 4.69531 8.51562 4.75781 8.46875C4.82812 8.41406 4.875 8.34766 4.89844 8.26953C4.95312 8.08203 4.89453 7.94141 4.72266 7.84766C4.69141 7.83203 4.66406 7.81641 4.64062 7.80078Z" transform="translate(0 1)" fill="#00AFAA"/>
</svg>
