<svg width="167" height="167" viewBox="0 0 167 167" fill="none" xmlns="http://www.w3.org/2000/svg">
<path fill-rule="evenodd" clip-rule="evenodd" d="M82.5 165C128.063 165 165 128.063 165 82.5C165 36.9365 128.063 0 82.5 0C36.9365 0 0 36.9365 0 82.5C0 128.063 36.9365 165 82.5 165Z" transform="translate(1 1)" stroke="#00AFAA" stroke-width="2"/>
<path d="M28.2 18.624C26.398 24.531 20.903 28.825 14.406 28.825C6.453 28.825 0 22.38 0 14.418C0 6.456 6.453 0 14.406 0C15.402 0 16.372 0.101 17.31 0.292" transform="translate(69.958 41.785)" stroke="#696057" stroke-width="2"/>
<path d="M10.521 44.507L0 18.788L14.176 0H38.979C38.979 0 54.967 15.614 42.549 47.223" transform="translate(59.8018 34.4)" stroke="#696057" stroke-width="2"/>
<path d="M0 0C0 0 7.125 25.77 33.097 27.801" transform="translate(73.9785 34.4002)" stroke="#696057" stroke-width="2"/>
<path d="M0 0C0 0 5.076 18.36 23.58 19.807" transform="translate(83.6826 34.4002)" stroke="#696057" stroke-width="2"/>
<path d="M0 0C0 0 2.825 10.222 13.125 11.026" transform="translate(92.0215 34.5725)" stroke="#696057" stroke-width="2"/>
<path d="M0 37.034C1.635 20.277 14.842 0 34.983 0C55.124 0 71.438 16.579 71.438 37.034" transform="translate(48.3984 76.2089)" stroke="#696057" stroke-width="2"/>
<path fill-rule="evenodd" clip-rule="evenodd" d="M53.519 22.868L27.029 31.909L0 22.868V0L26.759 9.041L53.519 0V22.868Z" transform="translate(57.3584 101.664)" stroke="#00AFAA" stroke-width="2"/>
<path d="M27.192 31.559L0 0" transform="translate(57.7324 102.06)" stroke="#696057" stroke-width="2"/>
</svg>
