<svg width="167" height="167" viewBox="0 0 167 167" fill="none" xmlns="http://www.w3.org/2000/svg">
<path fill-rule="evenodd" clip-rule="evenodd" d="M82.5 165C128.063 165 165 128.063 165 82.5C165 36.9365 128.063 0 82.5 0C36.9365 0 0 36.9365 0 82.5C0 128.063 36.9365 165 82.5 165Z" transform="translate(1 1)" stroke="#00AFAA" stroke-width="2"/>
<path fill-rule="evenodd" clip-rule="evenodd" d="M0 42L40.9992 0L82 42H0Z" transform="translate(43 86)" stroke="#00AFAA" stroke-width="2"/>
<path fill-rule="evenodd" clip-rule="evenodd" d="M39 19.4992C39 30.2702 30.2706 39 19.5 39C8.73103 39 0 30.2702 0 19.4992C0 8.72979 8.73103 0 19.5 0C30.2706 0 39 8.72979 39 19.4992Z" transform="translate(64 40)" stroke="#696057" stroke-width="2"/>
<path d="M0 21.863C2.19269 22.7262 15.9711 18.5329 19.4797 0C19.4797 0 21.8961 16.3957 39 22" transform="translate(64 40)" stroke="#696057" stroke-width="2"/>
<path fill-rule="evenodd" clip-rule="evenodd" d="M19 0L0 13.3195L15.1603 22L19 0Z" transform="translate(46 63)" stroke="#696057" stroke-width="2"/>
<path fill-rule="evenodd" clip-rule="evenodd" d="M0 0L19 13.3195L3.83972 22L0 0Z" transform="translate(102 63)" stroke="#696057" stroke-width="2"/>
</svg>
