<svg width="69" height="69" viewBox="0 0 69 69" fill="none" xmlns="http://www.w3.org/2000/svg">
<path fill-rule="evenodd" clip-rule="evenodd" d="M34.5 69C53.5538 69 69 53.5538 69 34.5C69 15.4462 53.5538 0 34.5 0C15.4462 0 0 15.4462 0 34.5C0 53.5538 15.4462 69 34.5 69Z" fill="#F99000" fill-opacity="0.5"/>
<path d="M4.53125 16.0312L27.5 30L4.5 43.9688L4.53125 16.0312ZM4.53125 14.0312C4.17708 14.0312 3.85417 14.1146 3.5625 14.2812C2.875 14.6771 2.53125 15.2604 2.53125 16.0312L2.5 43.9688C2.5 44.7396 2.84375 45.3229 3.53125 45.7188C3.67708 45.8021 3.83333 45.8646 4 45.9062C4.16667 45.9479 4.33333 45.9688 4.5 45.9688C4.6875 45.9688 4.86458 45.9375 5.03125 45.875C5.21875 45.8333 5.38542 45.7604 5.53125 45.6562L28.5625 31.6875C29.1875 31.3125 29.5 30.75 29.5 30C29.5 29.7708 29.4583 29.5521 29.375 29.3438C29.3125 29.1146 29.2083 28.9167 29.0625 28.75C28.9167 28.5625 28.75 28.4167 28.5625 28.3125L5.5625 14.3438C5.45833 14.2812 5.34375 14.2292 5.21875 14.1875C5.11458 14.1458 5 14.1146 4.875 14.0938C4.77083 14.0521 4.65625 14.0312 4.53125 14.0312Z" transform="translate(21 5)" fill="white"/>
</svg>
