<svg width="14" height="15" viewBox="0 0 14 15" fill="none" xmlns="http://www.w3.org/2000/svg">
<path d="M14.125 1.1875H10.625V0.3125C10.625 0.19401 10.5794 0.09375 10.4883 0.0117188C10.4062 -0.0794271 10.306 -0.125 10.1875 -0.125C10.069 -0.125 9.96419 -0.0794271 9.87305 0.0117188C9.79102 0.09375 9.75 0.19401 9.75 0.3125V1.1875H6.25V0.3125C6.25 0.19401 6.20443 0.09375 6.11328 0.0117188C6.03125 -0.0794271 5.93099 -0.125 5.8125 -0.125C5.69401 -0.125 5.58919 -0.0794271 5.49805 0.0117188C5.41602 0.09375 5.375 0.19401 5.375 0.3125V1.1875H1.875C1.62891 1.1875 1.41927 1.27409 1.24609 1.44727C1.08203 1.61133 1 1.81641 1 2.0625V13C1 13.1549 1.03646 13.3008 1.10938 13.4375C1.19141 13.5742 1.30078 13.679 1.4375 13.752C1.57422 13.834 1.72005 13.875 1.875 13.875H14.125C14.3711 13.875 14.5762 13.7884 14.7402 13.6152C14.9134 13.4421 15 13.237 15 13V2.0625C15 1.89844 14.959 1.7526 14.877 1.625C14.804 1.48828 14.6992 1.38346 14.5625 1.31055C14.4258 1.22852 14.2799 1.1875 14.125 1.1875ZM14.125 13H1.875V2.0625H5.375V2.5C5.375 2.61849 5.41602 2.72331 5.49805 2.81445C5.58919 2.89648 5.69401 2.9375 5.8125 2.9375C5.93099 2.9375 6.03125 2.89648 6.11328 2.81445C6.20443 2.72331 6.25 2.61849 6.25 2.5V2.0625H9.75V2.5C9.75 2.61849 9.79102 2.72331 9.87305 2.81445C9.96419 2.89648 10.069 2.9375 10.1875 2.9375C10.306 2.9375 10.4062 2.89648 10.4883 2.81445C10.5794 2.72331 10.625 2.61849 10.625 2.5V2.0625H14.125V13ZM11.0625 6.875H11.9375C12.056 6.875 12.1562 6.83398 12.2383 6.75195C12.3294 6.66081 12.375 6.55599 12.375 6.4375V5.5625C12.375 5.44401 12.3294 5.34375 12.2383 5.26172C12.1562 5.17057 12.056 5.125 11.9375 5.125H11.0625C10.944 5.125 10.8392 5.17057 10.748 5.26172C10.666 5.34375 10.625 5.44401 10.625 5.5625V6.4375C10.625 6.55599 10.666 6.66081 10.748 6.75195C10.8392 6.83398 10.944 6.875 11.0625 6.875ZM11.0625 10.375H11.9375C12.056 10.375 12.1562 10.334 12.2383 10.252C12.3294 10.1608 12.375 10.056 12.375 9.9375V9.0625C12.375 8.94401 12.3294 8.84375 12.2383 8.76172C12.1562 8.67057 12.056 8.625 11.9375 8.625H11.0625C10.944 8.625 10.8392 8.67057 10.748 8.76172C10.666 8.84375 10.625 8.94401 10.625 9.0625V9.9375C10.625 10.056 10.666 10.1608 10.748 10.252C10.8392 10.334 10.944 10.375 11.0625 10.375ZM8.4375 8.625H7.5625C7.44401 8.625 7.33919 8.67057 7.24805 8.76172C7.16602 8.84375 7.125 8.94401 7.125 9.0625V9.9375C7.125 9.98307 7.12956 10.0286 7.13867 10.0742C7.1569 10.1198 7.17969 10.1608 7.20703 10.1973C7.23438 10.2337 7.26628 10.2656 7.30273 10.293C7.33919 10.3203 7.38021 10.3431 7.42578 10.3613C7.47135 10.3704 7.51693 10.375 7.5625 10.375H8.4375C8.55599 10.375 8.65625 10.334 8.73828 10.252C8.82943 10.1608 8.875 10.056 8.875 9.9375V9.0625C8.875 9.02604 8.87044 8.98958 8.86133 8.95312C8.85221 8.90755 8.83854 8.87109 8.82031 8.84375C8.80208 8.80729 8.7793 8.77539 8.75195 8.74805C8.72461 8.7207 8.69271 8.69792 8.65625 8.67969C8.62891 8.66146 8.59245 8.64779 8.54688 8.63867C8.51042 8.62956 8.47396 8.625 8.4375 8.625ZM8.4375 5.125H7.5625C7.44401 5.125 7.33919 5.17057 7.24805 5.26172C7.16602 5.34375 7.125 5.44401 7.125 5.5625V6.4375C7.125 6.55599 7.16602 6.66081 7.24805 6.75195C7.33919 6.83398 7.44401 6.875 7.5625 6.875H8.4375C8.55599 6.875 8.65625 6.83398 8.73828 6.75195C8.82943 6.66081 8.875 6.55599 8.875 6.4375V5.5625C8.875 5.4987 8.86133 5.44401 8.83398 5.39844C8.81576 5.34375 8.78385 5.29818 8.73828 5.26172C8.70182 5.21615 8.65625 5.18424 8.60156 5.16602C8.55599 5.13867 8.5013 5.125 8.4375 5.125ZM4.9375 5.125H4.0625C3.94401 5.125 3.83919 5.17057 3.74805 5.26172C3.66602 5.34375 3.625 5.44401 3.625 5.5625V6.4375C3.625 6.55599 3.66602 6.66081 3.74805 6.75195C3.83919 6.83398 3.94401 6.875 4.0625 6.875H4.9375C5.05599 6.875 5.15625 6.83398 5.23828 6.75195C5.32943 6.66081 5.375 6.55599 5.375 6.4375V5.5625C5.375 5.4987 5.36133 5.44401 5.33398 5.39844C5.31576 5.34375 5.28385 5.29818 5.23828 5.26172C5.20182 5.21615 5.15625 5.18424 5.10156 5.16602C5.05599 5.13867 5.0013 5.125 4.9375 5.125ZM4.9375 8.625H4.0625C3.94401 8.625 3.83919 8.67057 3.74805 8.76172C3.66602 8.84375 3.625 8.94401 3.625 9.0625V9.9375C3.625 10.056 3.66602 10.1608 3.74805 10.252C3.83919 10.334 3.94401 10.375 4.0625 10.375H4.9375C5.05599 10.375 5.15625 10.334 5.23828 10.252C5.32943 10.1608 5.375 10.056 5.375 9.9375V9.0625C5.375 9.02604 5.37044 8.98958 5.36133 8.95312C5.35221 8.90755 5.33854 8.87109 5.32031 8.84375C5.30208 8.80729 5.2793 8.77539 5.25195 8.74805C5.22461 8.7207 5.19271 8.69792 5.15625 8.67969C5.12891 8.66146 5.09245 8.64779 5.04688 8.63867C5.01042 8.62956 4.97396 8.625 4.9375 8.625Z" transform="translate(-1 1)" fill="white"/>
</svg>
