<svg width="10" height="9" viewBox="0 0 10 9" fill="none" xmlns="http://www.w3.org/2000/svg">
<path d="M9.375 2.25H0.625C0.449219 2.25 0.299479 2.31185 0.175781 2.43555C0.0585938 2.55273 0 2.69922 0 2.875V8.50977C0 8.68555 0.0585938 8.83529 0.175781 8.95898C0.299479 9.07617 0.449219 9.13477 0.625 9.13477H1.875V10.6875C1.875 10.7201 1.87826 10.7526 1.88477 10.7852C1.89128 10.8112 1.90104 10.8372 1.91406 10.8633C1.93359 10.8893 1.95638 10.9121 1.98242 10.9316C2.00846 10.9512 2.03451 10.9674 2.06055 10.9805C2.08008 10.987 2.09961 10.9935 2.11914 11C2.13867 11 2.16146 11 2.1875 11C2.27214 11 2.34375 10.9707 2.40234 10.9121L4.20898 9.13477H9.375C9.55078 9.13477 9.69727 9.07617 9.81445 8.95898C9.93815 8.83529 10 8.68555 10 8.50977V2.875C10 2.80339 9.99023 2.73828 9.9707 2.67969C9.95117 2.61458 9.92188 2.55599 9.88281 2.50391C9.84375 2.45182 9.79818 2.40625 9.74609 2.36719C9.69401 2.32812 9.63542 2.29883 9.57031 2.2793C9.50521 2.25977 9.4401 2.25 9.375 2.25ZM9.375 8.50977H3.95508L2.5 9.94531V8.50977H0.625V2.875H9.375V8.50977ZM2.1875 6.00977H7.8125C7.89714 6.00977 7.96875 5.98047 8.02734 5.92188C8.09245 5.85677 8.125 5.7819 8.125 5.69727C8.125 5.61263 8.09245 5.54102 8.02734 5.48242C7.96875 5.41732 7.89714 5.38477 7.8125 5.38477H2.1875C2.10286 5.38477 2.02799 5.41732 1.96289 5.48242C1.9043 5.54102 1.875 5.61263 1.875 5.69727C1.875 5.7819 1.9043 5.85677 1.96289 5.92188C2.02799 5.98047 2.10286 6.00977 2.1875 6.00977ZM2.1875 4.75977H7.8125C7.89714 4.75977 7.96875 4.73047 8.02734 4.67188C8.09245 4.60677 8.125 4.5319 8.125 4.44727C8.125 4.36263 8.09245 4.29102 8.02734 4.23242C7.96875 4.16732 7.89714 4.13477 7.8125 4.13477H2.1875C2.10286 4.13477 2.02799 4.16732 1.96289 4.23242C1.9043 4.29102 1.875 4.36263 1.875 4.44727C1.875 4.5319 1.9043 4.60677 1.96289 4.67188C2.02799 4.73047 2.10286 4.75977 2.1875 4.75977ZM2.1875 7.25977H5.9375C6.02214 7.25977 6.09375 7.23047 6.15234 7.17188C6.21745 7.10677 6.25 7.0319 6.25 6.94727C6.25 6.86263 6.21745 6.79102 6.15234 6.73242C6.09375 6.66732 6.02214 6.63477 5.9375 6.63477H2.1875C2.10286 6.63477 2.02799 6.66732 1.96289 6.73242C1.9043 6.79102 1.875 6.86263 1.875 6.94727C1.875 7.0319 1.9043 7.10677 1.96289 7.17188C2.02799 7.23047 2.10286 7.25977 2.1875 7.25977Z" transform="translate(0 -2)" fill="#696057"/>
</svg>
