<svg width="10" height="11" viewBox="0 0 10 11" fill="none" xmlns="http://www.w3.org/2000/svg">
<path d="M1.41602 2.25977L8.59375 6.625L1.40625 10.9902L1.41602 2.25977ZM1.41602 1.63477C1.30534 1.63477 1.20443 1.66081 1.11328 1.71289C0.898438 1.83659 0.791016 2.01888 0.791016 2.25977L0.78125 10.9902C0.78125 11.2311 0.888672 11.4134 1.10352 11.5371C1.14909 11.5632 1.19792 11.5827 1.25 11.5957C1.30208 11.6087 1.35417 11.6152 1.40625 11.6152C1.46484 11.6152 1.52018 11.6055 1.57227 11.5859C1.63086 11.5729 1.68294 11.5501 1.72852 11.5176L8.92578 7.15234C9.12109 7.03516 9.21875 6.85938 9.21875 6.625C9.21875 6.55339 9.20573 6.48503 9.17969 6.41992C9.16016 6.34831 9.1276 6.28646 9.08203 6.23438C9.03646 6.17578 8.98438 6.13021 8.92578 6.09766L1.73828 1.73242C1.70573 1.71289 1.66992 1.69661 1.63086 1.68359C1.59831 1.67057 1.5625 1.66081 1.52344 1.6543C1.49089 1.64128 1.45508 1.63477 1.41602 1.63477Z" transform="translate(0 -1)" fill="#696057"/>
</svg>
