<svg width="10" height="11" viewBox="0 0 10 11" fill="none" xmlns="http://www.w3.org/2000/svg">
<path d="M5 2.25C5.25391 2.25 5.51432 2.30208 5.78125 2.40625C6.05469 2.50391 6.29232 2.63086 6.49414 2.78711C6.69596 2.93685 6.86198 3.10612 6.99219 3.29492C7.1224 3.47721 7.1875 3.64974 7.1875 3.8125V5.375C7.1875 5.74609 7.10938 6.15951 6.95312 6.61523C6.79688 7.07096 6.56576 7.41602 6.25977 7.65039C6.20768 7.69596 6.16211 7.7513 6.12305 7.81641C6.08398 7.875 6.05469 7.9401 6.03516 8.01172C6.02214 8.07682 6.01888 8.14518 6.02539 8.2168C6.05794 8.45117 6.17839 8.61719 6.38672 8.71484L9.11133 10.0039C9.11133 10.0039 9.11784 10.0072 9.13086 10.0137C9.14388 10.0137 9.1569 10.0169 9.16992 10.0234C9.18294 10.0299 9.19922 10.0397 9.21875 10.0527C9.23828 10.0658 9.25456 10.082 9.26758 10.1016C9.28711 10.1146 9.30339 10.1341 9.31641 10.1602C9.33594 10.1862 9.34896 10.2188 9.35547 10.2578C9.36198 10.2969 9.36523 10.3392 9.36523 10.3848V10.9902L0.625 11V10.3652C0.625 10.2025 0.712891 10.082 0.888672 10.0039L3.63281 8.70508C3.84115 8.60742 3.95833 8.44466 3.98438 8.2168C4.01693 7.98242 3.94206 7.79362 3.75977 7.65039C3.46029 7.40951 3.22591 7.0612 3.05664 6.60547C2.89388 6.14323 2.8125 5.73307 2.8125 5.375V3.8125C2.8125 3.59766 2.91992 3.36979 3.13477 3.12891C3.34961 2.88151 3.62956 2.67318 3.97461 2.50391C4.31966 2.33464 4.66146 2.25 5 2.25ZM5 1.625C4.55078 1.625 4.10482 1.73568 3.66211 1.95703C3.22591 2.17188 2.87109 2.45182 2.59766 2.79688C2.32422 3.13542 2.1875 3.47396 2.1875 3.8125V5.375C2.1875 5.79818 2.28516 6.28646 2.48047 6.83984C2.68229 7.38672 2.97852 7.81966 3.36914 8.13867L0.625 9.4375C0.605469 9.44401 0.582682 9.45378 0.556641 9.4668C0.530599 9.47982 0.481771 9.50911 0.410156 9.55469C0.338542 9.60026 0.273438 9.64583 0.214844 9.69141C0.16276 9.73698 0.113932 9.79557 0.0683594 9.86719C0.0227865 9.93229 0 9.99414 0 10.0527V11C0 11.1693 0.0585938 11.3125 0.175781 11.4297C0.299479 11.5534 0.449219 11.6152 0.625 11.6152H9.375C9.54427 11.6152 9.6875 11.5534 9.80469 11.4297C9.92839 11.3125 9.99023 11.1693 9.99023 11V10.0527C9.99023 9.98763 9.96745 9.92253 9.92188 9.85742C9.88281 9.78581 9.83073 9.72721 9.76562 9.68164C9.70703 9.62956 9.64844 9.58398 9.58984 9.54492C9.53125 9.50586 9.47917 9.47656 9.43359 9.45703L9.375 9.4375L6.65039 8.13867C7.04102 7.83268 7.33073 7.40951 7.51953 6.86914C7.71484 6.32878 7.8125 5.83073 7.8125 5.375V3.8125C7.8125 3.55859 7.72786 3.30143 7.55859 3.04102C7.39583 2.77409 7.18424 2.53646 6.92383 2.32812C6.66341 2.11979 6.36068 1.95052 6.01562 1.82031C5.67057 1.6901 5.33203 1.625 5 1.625Z" transform="translate(0 -1)" fill="#696057"/>
</svg>
