<svg width="10" height="9" viewBox="0 0 10 9" fill="none" xmlns="http://www.w3.org/2000/svg">
<path d="M9.375 2.40625H0.625C0.455729 2.40625 0.309245 2.4681 0.185547 2.5918C0.061849 2.71549 0 2.86198 0 3.03125V10.2188C0 10.388 0.061849 10.5345 0.185547 10.6582C0.309245 10.7819 0.455729 10.8438 0.625 10.8438H9.375C9.54427 10.8438 9.69076 10.7819 9.81445 10.6582C9.93815 10.5345 10 10.388 10 10.2188V3.03125C10 2.92057 9.9707 2.81641 9.91211 2.71875C9.86003 2.62109 9.78516 2.54622 9.6875 2.49414C9.58984 2.43555 9.48568 2.40625 9.375 2.40625ZM9.375 10.2188H0.625V8.38281L3.13477 5.95117L5.72266 8.5293C5.77474 8.5944 5.83984 8.62695 5.91797 8.62695C6.0026 8.62044 6.08073 8.59115 6.15234 8.53906L7.29492 7.50391L9.3457 9.62305C9.35221 9.62305 9.36198 9.62956 9.375 9.64258V10.2188ZM9.375 8.75391L7.53906 6.86914C7.48047 6.81706 7.41211 6.78776 7.33398 6.78125C7.26237 6.77474 7.19401 6.79753 7.12891 6.84961L5.94727 7.875L3.36914 5.31641C3.31055 5.24479 3.23568 5.20573 3.14453 5.19922C3.05339 5.19271 2.97526 5.22201 2.91016 5.28711L0.625 7.50391V3.03125H9.375V8.75391ZM7.1875 5.53125C7.29818 5.53125 7.40234 5.50521 7.5 5.45312C7.59766 5.39453 7.67253 5.31966 7.72461 5.22852C7.7832 5.13086 7.8125 5.02344 7.8125 4.90625C7.8125 4.73698 7.75065 4.59049 7.62695 4.4668C7.50326 4.3431 7.35677 4.28125 7.1875 4.28125C7.01823 4.28125 6.87174 4.3431 6.74805 4.4668C6.62435 4.59049 6.5625 4.74023 6.5625 4.91602C6.5625 5.08529 6.62435 5.23177 6.74805 5.35547C6.87174 5.47266 7.01823 5.53125 7.1875 5.53125Z" transform="translate(0 -2)" fill="#696057"/>
</svg>
