<svg width="14" height="8" viewBox="0 0 14 8" fill="none" xmlns="http://www.w3.org/2000/svg">
<path d="M1.10938 3.63477C1.10938 3.50716 1.15495 3.39779 1.24609 3.30664C1.33724 3.21549 1.44661 3.16992 1.57422 3.16992C1.70182 3.16992 1.8112 3.21549 1.90234 3.30664L8.08203 9.48633L14.166 3.40234C14.2572 3.3112 14.3665 3.26562 14.4941 3.26562C14.6217 3.26562 14.7311 3.3112 14.8223 3.40234C14.9134 3.49349 14.959 3.60286 14.959 3.73047C14.959 3.85807 14.9134 3.96745 14.8223 4.05859L8.41016 10.4707C8.31901 10.5618 8.20964 10.6074 8.08203 10.6074C7.95443 10.6074 7.84505 10.5618 7.75391 10.4707L1.24609 3.97656C1.22786 3.95833 1.20964 3.9401 1.19141 3.92188C1.18229 3.89453 1.17318 3.87174 1.16406 3.85352C1.15495 3.82617 1.14583 3.80339 1.13672 3.78516C1.1276 3.75781 1.11849 3.73503 1.10938 3.7168C1.10938 3.68945 1.10938 3.66211 1.10938 3.63477Z" transform="translate(-1 -3)" fill="white"/>
</svg>
