<svg width="11" height="11" viewBox="0 0 11 11" fill="none" xmlns="http://www.w3.org/2000/svg">
<path d="M9.30664 1.64453L5.17578 2.75781C5.14974 2.76432 5.11719 2.77083 5.07812 2.77734C5.03906 2.77734 4.99674 2.77734 4.95117 2.77734C4.91211 2.77734 4.87305 2.77734 4.83398 2.77734C4.79492 2.77083 4.76237 2.76432 4.73633 2.75781L0.712891 1.64453C0.530599 1.59245 0.367839 1.62174 0.224609 1.73242C0.0813802 1.8431 0.00976562 1.98958 0.00976562 2.17188V9.76953C0.00976562 9.92578 0.061849 10.0723 0.166016 10.209C0.270182 10.3392 0.397135 10.4271 0.546875 10.4727L4.57031 11.5859C4.68099 11.6185 4.8112 11.6348 4.96094 11.6348C5.01953 11.6348 5.08138 11.6315 5.14648 11.625C5.2181 11.6185 5.2832 11.6055 5.3418 11.5859L9.47266 10.4629C9.6224 10.4238 9.74935 10.3392 9.85352 10.209C9.95768 10.0723 10.0098 9.92578 10.0098 9.76953V2.17188C10.0098 1.98958 9.93815 1.8431 9.79492 1.73242C9.65169 1.62174 9.48893 1.59245 9.30664 1.64453ZM4.69727 10.9707L0.703125 9.86719C0.690104 9.86068 0.673828 9.84766 0.654297 9.82812C0.641276 9.80859 0.634766 9.78906 0.634766 9.76953V2.26953L4.57031 3.36328C4.58984 3.36328 4.60938 3.36654 4.62891 3.37305C4.64844 3.37956 4.67122 3.38281 4.69727 3.38281V10.9707ZM9.38477 9.76953C9.38477 9.78255 9.375 9.80208 9.35547 9.82812C9.33594 9.84766 9.31966 9.86068 9.30664 9.86719L5.32227 10.9414V3.36328C5.32878 3.36328 5.33529 3.36328 5.3418 3.36328L9.38477 2.26953V9.76953ZM6.2793 5.19922C6.31185 5.19922 6.34115 5.19596 6.36719 5.18945L8.55469 4.57422C8.63281 4.54818 8.69141 4.49935 8.73047 4.42773C8.77604 4.34961 8.78906 4.27148 8.76953 4.19336C8.75 4.13477 8.7207 4.08594 8.68164 4.04688C8.64258 4.00781 8.59701 3.98177 8.54492 3.96875C8.49284 3.95573 8.4375 3.95573 8.37891 3.96875L6.19141 4.58398C6.11328 4.61003 6.05143 4.66211 6.00586 4.74023C5.9668 4.81185 5.95703 4.88997 5.97656 4.97461C6.02865 5.11784 6.12956 5.19271 6.2793 5.19922ZM6.2793 7.07422C6.31185 7.07422 6.34115 7.07096 6.36719 7.06445L8.55469 6.44922C8.63281 6.42318 8.69141 6.37435 8.73047 6.30273C8.77604 6.22461 8.78581 6.14648 8.75977 6.06836C8.74023 5.98372 8.69141 5.92188 8.61328 5.88281C8.54167 5.83724 8.46354 5.82422 8.37891 5.84375L6.19141 6.45898C6.11328 6.48503 6.05143 6.53711 6.00586 6.61523C5.9668 6.68685 5.95703 6.76497 5.97656 6.84961C6.02865 6.99284 6.12956 7.06771 6.2793 7.07422ZM6.2793 8.94922C6.29232 8.94922 6.30534 8.94922 6.31836 8.94922C6.33789 8.94922 6.35417 8.94596 6.36719 8.93945L8.55469 8.32422C8.63281 8.29818 8.69141 8.24935 8.73047 8.17773C8.77604 8.09961 8.78581 8.02148 8.75977 7.94336C8.74023 7.85872 8.69141 7.79688 8.61328 7.75781C8.54167 7.71224 8.46354 7.69922 8.37891 7.71875L6.19141 8.33398C6.11328 8.36003 6.05143 8.41211 6.00586 8.49023C5.9668 8.56185 5.95703 8.63997 5.97656 8.72461C6.02865 8.86784 6.12956 8.94271 6.2793 8.94922ZM3.86719 4.58398L1.67969 3.96875C1.63411 3.96224 1.5918 3.96224 1.55273 3.96875C1.51367 3.97526 1.47461 3.98828 1.43555 4.00781C1.40299 4.02083 1.3737 4.04362 1.34766 4.07617C1.32161 4.10872 1.30208 4.14779 1.28906 4.19336C1.26953 4.27148 1.2793 4.34961 1.31836 4.42773C1.36393 4.49935 1.42578 4.54818 1.50391 4.57422L3.69141 5.18945C3.70443 5.19596 3.71745 5.19922 3.73047 5.19922C3.75 5.19922 3.76628 5.19922 3.7793 5.19922C3.82487 5.19922 3.86719 5.19271 3.90625 5.17969C3.95182 5.16016 3.98763 5.13411 4.01367 5.10156C4.04622 5.0625 4.06901 5.02018 4.08203 4.97461C4.12109 4.82487 4.07552 4.70768 3.94531 4.62305C3.91276 4.61003 3.88672 4.59701 3.86719 4.58398ZM3.86719 6.45898L1.67969 5.84375C1.62109 5.83073 1.56576 5.83073 1.51367 5.84375C1.46159 5.85677 1.41602 5.88281 1.37695 5.92188C1.33789 5.96094 1.30859 6.00977 1.28906 6.06836C1.28255 6.10091 1.2793 6.13346 1.2793 6.16602C1.2793 6.19857 1.28581 6.23112 1.29883 6.26367C1.31185 6.28971 1.32812 6.31576 1.34766 6.3418C1.36719 6.36784 1.38997 6.39062 1.41602 6.41016C1.44206 6.42969 1.47135 6.44271 1.50391 6.44922L3.69141 7.06445C3.71745 7.07096 3.74674 7.07422 3.7793 7.07422C3.85091 7.07422 3.91276 7.05469 3.96484 7.01562C4.02344 6.97005 4.0625 6.91471 4.08203 6.84961C4.12109 6.69987 4.07552 6.58268 3.94531 6.49805C3.91276 6.48503 3.88672 6.47201 3.86719 6.45898ZM3.86719 8.33398L1.67969 7.71875C1.59505 7.69922 1.51367 7.71224 1.43555 7.75781C1.36393 7.79688 1.3151 7.85872 1.28906 7.94336C1.28255 7.97591 1.2793 8.00846 1.2793 8.04102C1.2793 8.07357 1.28581 8.10612 1.29883 8.13867C1.31185 8.16471 1.32812 8.19076 1.34766 8.2168C1.36719 8.24284 1.38997 8.26562 1.41602 8.28516C1.44206 8.30469 1.47135 8.31771 1.50391 8.32422L3.69141 8.93945C3.72396 8.94596 3.75326 8.94922 3.7793 8.94922C3.85091 8.94922 3.91276 8.92969 3.96484 8.89062C4.02344 8.84505 4.0625 8.78971 4.08203 8.72461C4.1276 8.56836 4.07878 8.45117 3.93555 8.37305C3.90951 8.36003 3.88672 8.34701 3.86719 8.33398Z" transform="translate(0 -1)" fill="#696057"/>
</svg>
