<svg width="70" height="62" viewBox="0 0 70 62" fill="none" xmlns="http://www.w3.org/2000/svg">
<path d="M67.625 1.75H6.375C5.14453 1.75 4.09635 2.18294 3.23047 3.04883C2.41016 3.86914 2 4.89453 2 6.125V45.5684C2 46.7988 2.41016 47.847 3.23047 48.7129C4.09635 49.5332 5.14453 49.9434 6.375 49.9434H15.125V60.8125C15.125 61.0404 15.1478 61.2682 15.1934 61.4961C15.2389 61.6784 15.3073 61.8607 15.3984 62.043C15.5352 62.2253 15.6947 62.3848 15.877 62.5215C16.0592 62.6582 16.2415 62.7721 16.4238 62.8633C16.5605 62.9089 16.6973 62.9544 16.834 63C16.9707 63 17.1302 63 17.3125 63C17.9049 63 18.4062 62.7949 18.8164 62.3848L31.4629 49.9434H67.625C68.8555 49.9434 69.8809 49.5332 70.7012 48.7129C71.5671 47.847 72 46.7988 72 45.5684V6.125C72 5.6237 71.9316 5.16797 71.7949 4.75781C71.6582 4.30208 71.4531 3.89193 71.1797 3.52734C70.9062 3.16276 70.5872 2.84375 70.2227 2.57031C69.8581 2.29688 69.4479 2.0918 68.9922 1.95508C68.5365 1.81836 68.0807 1.75 67.625 1.75ZM67.625 45.5684H29.6855L19.5 55.6172V45.5684H6.375V6.125H67.625V45.5684ZM17.3125 28.0684H56.6875C57.2799 28.0684 57.7812 27.8633 58.1914 27.4531C58.6471 26.9974 58.875 26.4733 58.875 25.8809C58.875 25.2884 58.6471 24.7871 58.1914 24.377C57.7812 23.9212 57.2799 23.6934 56.6875 23.6934H17.3125C16.7201 23.6934 16.196 23.9212 15.7402 24.377C15.3301 24.7871 15.125 25.2884 15.125 25.8809C15.125 26.4733 15.3301 26.9974 15.7402 27.4531C16.196 27.8633 16.7201 28.0684 17.3125 28.0684ZM17.3125 19.3184H56.6875C57.2799 19.3184 57.7812 19.1133 58.1914 18.7031C58.6471 18.2474 58.875 17.7233 58.875 17.1309C58.875 16.5384 58.6471 16.0371 58.1914 15.627C57.7812 15.1712 57.2799 14.9434 56.6875 14.9434H17.3125C16.7201 14.9434 16.196 15.1712 15.7402 15.627C15.3301 16.0371 15.125 16.5384 15.125 17.1309C15.125 17.7233 15.3301 18.2474 15.7402 18.7031C16.196 19.1133 16.7201 19.3184 17.3125 19.3184ZM17.3125 36.8184H43.5625C44.1549 36.8184 44.6562 36.6133 45.0664 36.2031C45.5221 35.7474 45.75 35.2233 45.75 34.6309C45.75 34.0384 45.5221 33.5371 45.0664 33.127C44.6562 32.6712 44.1549 32.4434 43.5625 32.4434H17.3125C16.7201 32.4434 16.196 32.6712 15.7402 33.127C15.3301 33.5371 15.125 34.0384 15.125 34.6309C15.125 35.2233 15.3301 35.7474 15.7402 36.2031C16.196 36.6133 16.7201 36.8184 17.3125 36.8184Z" transform="translate(-2 -1)" fill="white"/>
</svg>
