<svg width="52" height="71" viewBox="0 0 52 71" fill="none" xmlns="http://www.w3.org/2000/svg">
<path d="M30.2812 2.375H6.21875C4.98828 2.375 3.9401 2.80794 3.07422 3.67383C2.25391 4.49414 1.84375 5.51953 1.84375 6.75V68C1.84375 69.2305 2.25391 70.2559 3.07422 71.0762C3.9401 71.9421 4.98828 72.375 6.21875 72.375H47.7812C49.0117 72.375 50.0371 71.9421 50.8574 71.0762C51.7233 70.2559 52.1562 69.2305 52.1562 68V24.25L30.2812 2.375ZM47.7812 26.0957V26.4375H28.0938V6.75H28.5039L47.7812 26.0957ZM6.21875 68V6.75H23.7188V30.8125H47.7812V68H6.21875Z" transform="translate(-1 -2)" fill="white"/>
</svg>
