<svg width="71" height="71" viewBox="0 0 71 71" fill="none" xmlns="http://www.w3.org/2000/svg">
<path d="M68.125 8.9375H50.625V4.5625C50.625 3.97005 50.3971 3.46875 49.9414 3.05859C49.5312 2.60286 49.0299 2.375 48.4375 2.375C47.8451 2.375 47.321 2.60286 46.8652 3.05859C46.4551 3.46875 46.25 3.97005 46.25 4.5625V8.9375H28.75V4.5625C28.75 3.97005 28.5221 3.46875 28.0664 3.05859C27.6562 2.60286 27.1549 2.375 26.5625 2.375C25.9701 2.375 25.446 2.60286 24.9902 3.05859C24.5801 3.46875 24.375 3.97005 24.375 4.5625V8.9375H6.875C5.64453 8.9375 4.59635 9.37044 3.73047 10.2363C2.91016 11.0566 2.5 12.082 2.5 13.3125V68C2.5 68.7747 2.68229 69.5039 3.04688 70.1875C3.45703 70.8711 4.00391 71.3952 4.6875 71.7598C5.37109 72.1699 6.10026 72.375 6.875 72.375H68.125C69.3555 72.375 70.3809 71.9421 71.2012 71.0762C72.0671 70.2103 72.5 69.1849 72.5 68V13.3125C72.5 12.4922 72.2949 11.763 71.8848 11.125C71.5202 10.4414 70.9961 9.91732 70.3125 9.55273C69.6289 9.14258 68.8997 8.9375 68.125 8.9375ZM68.125 68H6.875V13.3125H24.375V15.5C24.375 16.0924 24.5801 16.6165 24.9902 17.0723C25.446 17.4824 25.9701 17.6875 26.5625 17.6875C27.1549 17.6875 27.6562 17.4824 28.0664 17.0723C28.5221 16.6165 28.75 16.0924 28.75 15.5V13.3125H46.25V15.5C46.25 16.0924 46.4551 16.6165 46.8652 17.0723C47.321 17.4824 47.8451 17.6875 48.4375 17.6875C49.0299 17.6875 49.5312 17.4824 49.9414 17.0723C50.3971 16.6165 50.625 16.0924 50.625 15.5V13.3125H68.125V68ZM52.8125 37.375H57.1875C57.7799 37.375 58.2812 37.1699 58.6914 36.7598C59.1471 36.304 59.375 35.7799 59.375 35.1875V30.8125C59.375 30.2201 59.1471 29.7188 58.6914 29.3086C58.2812 28.8529 57.7799 28.625 57.1875 28.625H52.8125C52.2201 28.625 51.696 28.8529 51.2402 29.3086C50.8301 29.7188 50.625 30.2201 50.625 30.8125V35.1875C50.625 35.7799 50.8301 36.304 51.2402 36.7598C51.696 37.1699 52.2201 37.375 52.8125 37.375ZM52.8125 54.875H57.1875C57.7799 54.875 58.2812 54.6699 58.6914 54.2598C59.1471 53.804 59.375 53.2799 59.375 52.6875V48.3125C59.375 47.7201 59.1471 47.2188 58.6914 46.8086C58.2812 46.3529 57.7799 46.125 57.1875 46.125H52.8125C52.2201 46.125 51.696 46.3529 51.2402 46.8086C50.8301 47.2188 50.625 47.7201 50.625 48.3125V52.6875C50.625 53.2799 50.8301 53.804 51.2402 54.2598C51.696 54.6699 52.2201 54.875 52.8125 54.875ZM39.6875 46.125H35.3125C34.7201 46.125 34.196 46.3529 33.7402 46.8086C33.3301 47.2188 33.125 47.7201 33.125 48.3125V52.6875C33.125 52.9154 33.1478 53.1432 33.1934 53.3711C33.2845 53.599 33.3984 53.804 33.5352 53.9863C33.6719 54.1686 33.8314 54.3281 34.0137 54.4648C34.196 54.6016 34.401 54.7155 34.6289 54.8066C34.8568 54.8522 35.0846 54.875 35.3125 54.875H39.6875C40.2799 54.875 40.7812 54.6699 41.1914 54.2598C41.6471 53.804 41.875 53.2799 41.875 52.6875V48.3125C41.875 48.1302 41.8522 47.9479 41.8066 47.7656C41.7611 47.5378 41.6927 47.3555 41.6016 47.2188C41.5104 47.0365 41.3965 46.877 41.2598 46.7402C41.123 46.6035 40.9635 46.4896 40.7812 46.3984C40.6445 46.3073 40.4622 46.2389 40.2344 46.1934C40.0521 46.1478 39.8698 46.125 39.6875 46.125ZM39.6875 28.625H35.3125C34.7201 28.625 34.196 28.8529 33.7402 29.3086C33.3301 29.7188 33.125 30.2201 33.125 30.8125V35.1875C33.125 35.7799 33.3301 36.304 33.7402 36.7598C34.196 37.1699 34.7201 37.375 35.3125 37.375H39.6875C40.2799 37.375 40.7812 37.1699 41.1914 36.7598C41.6471 36.304 41.875 35.7799 41.875 35.1875V30.8125C41.875 30.4935 41.8066 30.2201 41.6699 29.9922C41.5788 29.7188 41.4193 29.4909 41.1914 29.3086C41.0091 29.0807 40.7812 28.9212 40.5078 28.8301C40.2799 28.6934 40.0065 28.625 39.6875 28.625ZM22.1875 28.625H17.8125C17.2201 28.625 16.696 28.8529 16.2402 29.3086C15.8301 29.7188 15.625 30.2201 15.625 30.8125V35.1875C15.625 35.7799 15.8301 36.304 16.2402 36.7598C16.696 37.1699 17.2201 37.375 17.8125 37.375H22.1875C22.7799 37.375 23.2812 37.1699 23.6914 36.7598C24.1471 36.304 24.375 35.7799 24.375 35.1875V30.8125C24.375 30.4935 24.3066 30.2201 24.1699 29.9922C24.0788 29.7188 23.9193 29.4909 23.6914 29.3086C23.5091 29.0807 23.2812 28.9212 23.0078 28.8301C22.7799 28.6934 22.5065 28.625 22.1875 28.625ZM22.1875 46.125H17.8125C17.2201 46.125 16.696 46.3529 16.2402 46.8086C15.8301 47.2188 15.625 47.7201 15.625 48.3125V52.6875C15.625 53.2799 15.8301 53.804 16.2402 54.2598C16.696 54.6699 17.2201 54.875 17.8125 54.875H22.1875C22.7799 54.875 23.2812 54.6699 23.6914 54.2598C24.1471 53.804 24.375 53.2799 24.375 52.6875V48.3125C24.375 48.1302 24.3522 47.9479 24.3066 47.7656C24.2611 47.5378 24.1927 47.3555 24.1016 47.2188C24.0104 47.0365 23.8965 46.877 23.7598 46.7402C23.623 46.6035 23.4635 46.4896 23.2812 46.3984C23.1445 46.3073 22.9622 46.2389 22.7344 46.1934C22.5521 46.1478 22.3698 46.125 22.1875 46.125Z" transform="translate(-2 -2)" fill="white"/>
</svg>
