<svg width="16" height="14" viewBox="0 0 16 14" fill="none" xmlns="http://www.w3.org/2000/svg">
<path d="M15 10H1C0.71875 10 0.479167 10.099 0.28125 10.2969C0.09375 10.4844 0 10.7188 0 11V20.0156C0 20.2969 0.09375 20.5365 0.28125 20.7344C0.479167 20.9219 0.71875 21.0156 1 21.0156H3V23.5C3 23.5521 3.00521 23.6042 3.01562 23.6562C3.02604 23.6979 3.04167 23.7396 3.0625 23.7812C3.09375 23.8229 3.13021 23.8594 3.17188 23.8906C3.21354 23.9219 3.25521 23.9479 3.29688 23.9688C3.32812 23.9792 3.35938 23.9896 3.39062 24C3.42188 24 3.45833 24 3.5 24C3.63542 24 3.75 23.9531 3.84375 23.8594L6.73438 21.0156H15C15.2812 21.0156 15.5156 20.9219 15.7031 20.7344C15.901 20.5365 16 20.2969 16 20.0156V11C16 10.8854 15.9844 10.7812 15.9531 10.6875C15.9219 10.5833 15.875 10.4896 15.8125 10.4062C15.75 10.3229 15.6771 10.25 15.5938 10.1875C15.5104 10.125 15.4167 10.0781 15.3125 10.0469C15.2083 10.0156 15.1042 10 15 10ZM15 20.0156H6.32812L4 22.3125V20.0156H1V11H15V20.0156ZM3.5 16.0156H12.5C12.6354 16.0156 12.75 15.9688 12.8438 15.875C12.9479 15.7708 13 15.651 13 15.5156C13 15.3802 12.9479 15.2656 12.8438 15.1719C12.75 15.0677 12.6354 15.0156 12.5 15.0156H3.5C3.36458 15.0156 3.24479 15.0677 3.14062 15.1719C3.04688 15.2656 3 15.3802 3 15.5156C3 15.651 3.04688 15.7708 3.14062 15.875C3.24479 15.9688 3.36458 16.0156 3.5 16.0156ZM3.5 14.0156H12.5C12.6354 14.0156 12.75 13.9688 12.8438 13.875C12.9479 13.7708 13 13.651 13 13.5156C13 13.3802 12.9479 13.2656 12.8438 13.1719C12.75 13.0677 12.6354 13.0156 12.5 13.0156H3.5C3.36458 13.0156 3.24479 13.0677 3.14062 13.1719C3.04688 13.2656 3 13.3802 3 13.5156C3 13.651 3.04688 13.7708 3.14062 13.875C3.24479 13.9688 3.36458 14.0156 3.5 14.0156ZM3.5 18.0156H9.5C9.63542 18.0156 9.75 17.9688 9.84375 17.875C9.94792 17.7708 10 17.651 10 17.5156C10 17.3802 9.94792 17.2656 9.84375 17.1719C9.75 17.0677 9.63542 17.0156 9.5 17.0156H3.5C3.36458 17.0156 3.24479 17.0677 3.14062 17.1719C3.04688 17.2656 3 17.3802 3 17.5156C3 17.651 3.04688 17.7708 3.14062 17.875C3.24479 17.9688 3.36458 18.0156 3.5 18.0156Z" transform="translate(0 -10)" fill="#696057"/>
</svg>
