<svg width="16" height="16" viewBox="0 0 16 16" fill="none" xmlns="http://www.w3.org/2000/svg">
<path d="M15 10.5H11V9.5C11 9.36458 10.9479 9.25 10.8438 9.15625C10.75 9.05208 10.6354 9 10.5 9C10.3646 9 10.2448 9.05208 10.1406 9.15625C10.0469 9.25 10 9.36458 10 9.5V10.5H6V9.5C6 9.36458 5.94792 9.25 5.84375 9.15625C5.75 9.05208 5.63542 9 5.5 9C5.36458 9 5.24479 9.05208 5.14062 9.15625C5.04688 9.25 5 9.36458 5 9.5V10.5H1C0.71875 10.5 0.479167 10.599 0.28125 10.7969C0.09375 10.9844 0 11.2188 0 11.5V24C0 24.1771 0.0416667 24.3438 0.125 24.5C0.21875 24.6562 0.34375 24.776 0.5 24.8594C0.65625 24.9531 0.822917 25 1 25H15C15.2812 25 15.5156 24.901 15.7031 24.7031C15.901 24.5052 16 24.2708 16 24V11.5C16 11.3125 15.9531 11.1458 15.8594 11C15.776 10.8438 15.6562 10.724 15.5 10.6406C15.3438 10.5469 15.1771 10.5 15 10.5ZM15 24H1V11.5H5V12C5 12.1354 5.04688 12.2552 5.14062 12.3594C5.24479 12.4531 5.36458 12.5 5.5 12.5C5.63542 12.5 5.75 12.4531 5.84375 12.3594C5.94792 12.2552 6 12.1354 6 12V11.5H10V12C10 12.1354 10.0469 12.2552 10.1406 12.3594C10.2448 12.4531 10.3646 12.5 10.5 12.5C10.6354 12.5 10.75 12.4531 10.8438 12.3594C10.9479 12.2552 11 12.1354 11 12V11.5H15V24ZM11.5 17H12.5C12.6354 17 12.75 16.9531 12.8438 16.8594C12.9479 16.7552 13 16.6354 13 16.5V15.5C13 15.3646 12.9479 15.25 12.8438 15.1562C12.75 15.0521 12.6354 15 12.5 15H11.5C11.3646 15 11.2448 15.0521 11.1406 15.1562C11.0469 15.25 11 15.3646 11 15.5V16.5C11 16.6354 11.0469 16.7552 11.1406 16.8594C11.2448 16.9531 11.3646 17 11.5 17ZM11.5 21H12.5C12.6354 21 12.75 20.9531 12.8438 20.8594C12.9479 20.7552 13 20.6354 13 20.5V19.5C13 19.3646 12.9479 19.25 12.8438 19.1562C12.75 19.0521 12.6354 19 12.5 19H11.5C11.3646 19 11.2448 19.0521 11.1406 19.1562C11.0469 19.25 11 19.3646 11 19.5V20.5C11 20.6354 11.0469 20.7552 11.1406 20.8594C11.2448 20.9531 11.3646 21 11.5 21ZM8.5 19H7.5C7.36458 19 7.24479 19.0521 7.14062 19.1562C7.04688 19.25 7 19.3646 7 19.5V20.5C7 20.5521 7.00521 20.6042 7.01562 20.6562C7.03646 20.7083 7.0625 20.7552 7.09375 20.7969C7.125 20.8385 7.16146 20.875 7.20312 20.9062C7.24479 20.9375 7.29167 20.9635 7.34375 20.9844C7.39583 20.9948 7.44792 21 7.5 21H8.5C8.63542 21 8.75 20.9531 8.84375 20.8594C8.94792 20.7552 9 20.6354 9 20.5V19.5C9 19.4583 8.99479 19.4167 8.98438 19.375C8.97396 19.3229 8.95833 19.2812 8.9375 19.25C8.91667 19.2083 8.89062 19.1719 8.85938 19.1406C8.82812 19.1094 8.79167 19.0833 8.75 19.0625C8.71875 19.0417 8.67708 19.026 8.625 19.0156C8.58333 19.0052 8.54167 19 8.5 19ZM8.5 15H7.5C7.36458 15 7.24479 15.0521 7.14062 15.1562C7.04688 15.25 7 15.3646 7 15.5V16.5C7 16.6354 7.04688 16.7552 7.14062 16.8594C7.24479 16.9531 7.36458 17 7.5 17H8.5C8.63542 17 8.75 16.9531 8.84375 16.8594C8.94792 16.7552 9 16.6354 9 16.5V15.5C9 15.4271 8.98438 15.3646 8.95312 15.3125C8.93229 15.25 8.89583 15.1979 8.84375 15.1562C8.80208 15.1042 8.75 15.0677 8.6875 15.0469C8.63542 15.0156 8.57292 15 8.5 15ZM4.5 15H3.5C3.36458 15 3.24479 15.0521 3.14062 15.1562C3.04688 15.25 3 15.3646 3 15.5V16.5C3 16.6354 3.04688 16.7552 3.14062 16.8594C3.24479 16.9531 3.36458 17 3.5 17H4.5C4.63542 17 4.75 16.9531 4.84375 16.8594C4.94792 16.7552 5 16.6354 5 16.5V15.5C5 15.4271 4.98438 15.3646 4.95312 15.3125C4.93229 15.25 4.89583 15.1979 4.84375 15.1562C4.80208 15.1042 4.75 15.0677 4.6875 15.0469C4.63542 15.0156 4.57292 15 4.5 15ZM4.5 19H3.5C3.36458 19 3.24479 19.0521 3.14062 19.1562C3.04688 19.25 3 19.3646 3 19.5V20.5C3 20.6354 3.04688 20.7552 3.14062 20.8594C3.24479 20.9531 3.36458 21 3.5 21H4.5C4.63542 21 4.75 20.9531 4.84375 20.8594C4.94792 20.7552 5 20.6354 5 20.5V19.5C5 19.4583 4.99479 19.4167 4.98438 19.375C4.97396 19.3229 4.95833 19.2812 4.9375 19.25C4.91667 19.2083 4.89062 19.1719 4.85938 19.1406C4.82812 19.1094 4.79167 19.0833 4.75 19.0625C4.71875 19.0417 4.67708 19.026 4.625 19.0156C4.58333 19.0052 4.54167 19 4.5 19Z" transform="translate(0 -9)" fill="#696057"/>
</svg>
