<svg width="12" height="16" viewBox="0 0 12 16" fill="none" xmlns="http://www.w3.org/2000/svg">
<path d="M8.75 1H3.25C2.96875 1 2.72917 1.09896 2.53125 1.29688C2.34375 1.48438 2.25 1.71875 2.25 2V16C2.25 16.2812 2.34375 16.5156 2.53125 16.7031C2.72917 16.901 2.96875 17 3.25 17H12.75C13.0312 17 13.2656 16.901 13.4531 16.7031C13.651 16.5156 13.75 16.2812 13.75 16V6L8.75 1ZM12.75 6.42188V6.5H8.25V2H8.34375L12.75 6.42188ZM3.25 16V2H7.25V7.5H12.75V16H3.25Z" transform="translate(-2 -1)" fill="#696057"/>
</svg>
